<?xml version="1.0" encoding="UTF-8" standalone="no"?>
<!-- Created with Inkscape (http://www.inkscape.org/) -->

<svg
   width="1920"
   height="1080"
   viewBox="0 0 1920 1080"
   version="1.1"
   id="svg5"
   inkscape:version="1.2.2 (b0a8486541, 2022-12-01)"
   sodipodi:docname="base.svg"
   xmlns:inkscape="http://www.inkscape.org/namespaces/inkscape"
   xmlns:sodipodi="http://sodipodi.sourceforge.net/DTD/sodipodi-0.dtd"
   xmlns="http://www.w3.org/2000/svg"
   xmlns:svg="http://www.w3.org/2000/svg">
  <sodipodi:namedview
     id="namedview7"
     pagecolor="#505050"
     bordercolor="#eeeeee"
     borderopacity="1"
     inkscape:showpageshadow="0"
     inkscape:pageopacity="0"
     inkscape:pagecheckerboard="0"
     inkscape:deskcolor="#505050"
     inkscape:document-units="mm"
     showgrid="false"
     inkscape:zoom="0.47234453"
     inkscape:cx="68.805708"
     inkscape:cy="194.77308"
     inkscape:window-width="1362"
     inkscape:window-height="721"
     inkscape:window-x="0"
     inkscape:window-y="22"
     inkscape:window-maximized="1"
     inkscape:current-layer="layer1" />
  <defs
     id="defs2">
    <rect
       x="116.87956"
       y="443.35153"
       width="553.79813"
       height="149.96553"
       id="rect13524" />
    <rect
       x="208.38227"
       y="779.76588"
       width="752.06454"
       height="107.24175"
       id="rect6436" />
    <rect
       x="213.07217"
       y="513.88606"
       width="753.0961"
       height="260.79167"
       id="rect6380" />
  </defs>
  <g
     inkscape:groupmode="layer"
     id="layer2"
     inkscape:label="background">
    <path
       id="rect3321"
       style="fill:#151821;stroke-width:1.88976;paint-order:stroke fill markers"
       d="M 0,0 H 1920 V 1080 H 0 Z"
       inkscape:label="background" />
    <g
       id="g13514"
       transform="translate(-66.508745,481.56922)"
       inkscape:label="stars">
      <path
         fill-rule="nonzero"
         fill="#ffffff"
         fill-opacity="1"
         d="m 1676.1248,474.81439 c 0,14.91147 -12.0937,27.00522 -27.0052,27.00522 -14.9167,0 -27.0052,-12.09375 -27.0052,-27.00522 0,-14.91666 12.0885,-27.00519 27.0052,-27.00519 14.9115,0 27.0052,12.08853 27.0052,27.00519"
         id="path4433"
         style="stroke-width:1.33333" />
      <path
         fill-rule="nonzero"
         fill="#ffffff"
         fill-opacity="1"
         d="m 1430.5769,-398.14057 c 0,21.03126 -17.0521,38.08333 -38.0834,38.08333 -21.0312,0 -38.0833,-17.05207 -38.0833,-38.08333 0,-21.03126 17.0521,-38.08334 38.0833,-38.08334 21.0313,0 38.0834,17.05208 38.0834,38.08334"
         id="path4435"
         style="stroke-width:1.33333" />
      <path
         fill-rule="nonzero"
         fill="#ffffff"
         fill-opacity="1"
         d="m 1841.2603,-139.29435 c 0,7.45833 -6.0469,13.5 -13.5052,13.5 -7.4584,0 -13.5,-6.04167 -13.5,-13.5 0,-7.45834 6.0416,-13.50522 13.5,-13.50522 7.4583,0 13.5052,6.04688 13.5052,13.50522"
         id="path4439"
         style="stroke-width:1.33333" />
      <path
         fill-rule="nonzero"
         fill="#ffffff"
         fill-opacity="1"
         d="m 1178.2272,58.778242 c 0,7.45833 -6.0468,13.50521 -13.4999,13.50521 -7.4582,0 -13.5052,-6.04688 -13.5052,-13.50521 0,-7.45312 6.047,-13.5 13.5052,-13.5 7.4531,0 13.4999,6.04688 13.4999,13.5"
         id="path4441"
         style="stroke-width:1.33333" />
      <path
         fill-rule="nonzero"
         fill="#ffffff"
         fill-opacity="1"
         d="m 604.0727,-254.83801 c 0,11.02604 -8.9427,19.96353 -19.9688,19.96353 -11.0208,0 -19.9635,-8.93749 -19.9635,-19.96353 0,-11.02604 8.9427,-19.96355 19.9635,-19.96355 11.0261,0 19.9688,8.93751 19.9688,19.96355"
         id="path4443"
         style="stroke-width:1.33333" />
      <path
         fill-rule="nonzero"
         fill="#ffffff"
         fill-opacity="1"
         d="m 1095.2029,54.429303 c 0,11.02082 -8.9376,19.96354 -19.9636,19.96354 -11.026,0 -19.9634,-8.94272 -19.9634,-19.96354 0,-11.02604 8.9374,-19.96875 19.9634,-19.96875 11.026,0 19.9636,8.94271 19.9636,19.96875"
         id="path4445"
         style="stroke-width:1.33333" />
      <path
         fill-rule="nonzero"
         fill="#ffffff"
         fill-opacity="1"
         d="m 1001.6732,-20.675179 c 0,11.0260402 -8.94272,19.96354022 -19.96352,19.96354022 -11.0261,0 -19.9688,-8.93750002 -19.9688,-19.96354022 0,-11.02604 8.9427,-19.96354 19.9688,-19.96354 11.0208,0 19.96352,8.9375 19.96352,19.96354"
         id="path4447"
         style="stroke-width:1.33333" />
      <path
         fill-rule="nonzero"
         fill="#ffffff"
         fill-opacity="1"
         d="m 813.81367,-192.02904 c 0,11.02084 -8.9427,19.96356 -19.9636,19.96356 -11.026,0 -19.9687,-8.94272 -19.9687,-19.96356 0,-11.02604 8.9427,-19.96875 19.9687,-19.96875 11.0209,0 19.9636,8.94271 19.9636,19.96875"
         id="path4451"
         style="stroke-width:1.33333" />
      <path
         fill-rule="nonzero"
         fill="#ffffff"
         fill-opacity="1"
         d="m 309.22551,-73.147235 c 0,6.93229 -5.6198,12.54688 -12.5521,12.54688 -6.9271,0 -12.5468,-5.61459 -12.5468,-12.54688 0,-6.9323 5.6197,-12.54688 12.5468,-12.54688 6.9323,0 12.5521,5.61458 12.5521,12.54688"
         id="path4457"
         style="stroke-width:1.33333" />
      <path
         fill-rule="nonzero"
         fill="#ffffff"
         fill-opacity="1"
         d="m 307.71302,-193.71824 c 0,6.92708 -5.6198,12.54688 -12.5521,12.54688 -6.927,0 -12.5467,-5.6198 -12.5467,-12.54688 0,-6.93229 5.6198,-12.54688 12.5467,-12.54688 6.9324,0 12.5521,5.61459 12.5521,12.54688"
         id="path4463"
         style="stroke-width:1.33333" />
      <path
         fill-rule="nonzero"
         fill="#ffffff"
         fill-opacity="1"
         d="m 636.65647,108.13234 c 0,6.93229 -5.6198,12.54688 -12.5521,12.54688 -6.9271,0 -12.5469,-5.61459 -12.5469,-12.54688 0,-6.93229 5.6198,-12.546858 12.5469,-12.546858 6.9323,0 12.5521,5.614558 12.5521,12.546858"
         id="path4469"
         style="stroke-width:1.33333" />
      <path
         fill-rule="nonzero"
         fill="#ffffff"
         fill-opacity="1"
         d="m 1193.8215,480.89709 c 0,11.026 -8.9427,19.9635 -19.9635,19.9635 -11.0261,0 -19.9636,-8.9375 -19.9636,-19.9635 0,-11.026 8.9375,-19.9636 19.9636,-19.9636 11.0208,0 19.9635,8.9376 19.9635,19.9636"
         id="path4449"
         style="stroke-width:1.33333" />
      <path
         fill-rule="nonzero"
         fill="#ffffff"
         fill-opacity="1"
         d="m 1659.0948,-168.97338 c 0,7.4582 -6.0469,13.5 -13.5052,13.5 -7.4584,0 -13.5,-6.0418 -13.5,-13.5 0,-7.4584 6.0416,-13.5052 13.5,-13.5052 7.4583,0 13.5052,6.0468 13.5052,13.5052"
         id="path4453"
         style="stroke-width:1.33333" />
      <path
         fill-rule="nonzero"
         fill="#ffffff"
         fill-opacity="1"
         d="m 1037.5058,-80.701209 c 0,6.9323 -5.6145,12.5522 -12.5468,12.5522 -6.9271,0 -12.5468,-5.6199 -12.5468,-12.5522 0,-6.927 5.6197,-12.5469 12.5468,-12.5469 6.9323,0 12.5468,5.6199 12.5468,12.5469"
         id="path4461"
         style="stroke-width:1.33333" />
    </g>
  </g>
  <g
     inkscape:label="foreground"
     inkscape:groupmode="layer"
     id="layer1">
    <path
       fill-rule="nonzero"
       fill="#fff200"
       fill-opacity="1"
       d="m 744.99609,418.33203 c 0,0 -81.79687,184.11719 -537.05468,317.47266 -289.199222,84.71093 -322.82422,282.84761 -269.605472,434.25391 45.683593,129.9609 173.097652,251.7578 407.289062,270.6094 434.01562,34.9375 876.8867,-261.0274 876.8867,-261.0274 0,0 -528.15233,188.4063 -772.32811,30.5313 -142.875,-92.375 -131.76953,-281.03518 37.97266,-401.91018 C 762.49219,612.91016 744.99609,418.33203 744.99609,418.33203"
       id="path4429"
       transform="matrix(1.3333333,0,0,1.3333333,3592.1926,-459.87664)" />
    <path
       fill-rule="nonzero"
       fill="#00a870"
       fill-opacity="1"
       d="m 4726.6978,-0.89228191 c 0,0 16.8021,49.79166991 0.9948,109.09375191 -20.8073,78.04688 -78.1563,174.48437 -82.6302,177.89583 -4.5052,3.4375 -14.9688,-1.85417 -20.4948,-4.5625 -5.5209,-2.70312 -14.474,-8.54167 -15.7136,-14.46354 -0.5312,-2.55729 42.3698,-75.0625 44.3959,-119.61979 2.0156,-44.22396 -9.0938,-57.979162 -9.0938,-57.979162 z m 0,0"
       id="path4471"
       style="stroke-width:1.33333" />
    <path
       fill-rule="nonzero"
       fill="#00a870"
       fill-opacity="1"
       d="m 4437.4634,171.1598 c -2.5938,5.28647 -13.1615,1.36459 -21.7396,-2.83853 -8.9687,-4.39584 -10.5989,-10.10938 -10.6198,-12.53647 -0.016,-2.42708 34.8646,-99.927082 81.1406,-157.3593719 39.5834,-49.1302001 61.5678,-58.5520801 61.5678,-58.5520801 l -8.6355,97.70833 c 0,0 -36.2083,25.48438 -56.8333,55.96355 -21.9062,32.375002 -44.8802,77.614572 -44.8802,77.614572"
       id="path4473"
       style="stroke-width:1.33333" />
    <path
       fill-rule="nonzero"
       fill="#fff200"
       fill-opacity="1"
       d="m 4651.5988,81.321268 -7.4479,8.15104 c 0,0 11.1146,13.755202 9.099,57.984372 -2.0261,44.55729 -44.9271,117.05729 -44.3959,119.61458 1.2396,5.92187 10.1927,11.76042 15.7188,14.46354 5.5208,2.70833 15.9844,8 20.4896,4.5625 0.6614,-0.5 2.4739,-3.03125 5.151,-7.23437 0,0 -10.224,1.06249 -20.5729,-4.42709 -10.349,-5.49479 -12.3281,-8.33334 -10.8386,-12.22916 1.4896,-3.89584 34.8698,-65.70312 40.849,-102.625 5.3906,-33.29166 -0.349,-57.63021 -4.5208,-69.703122 0,0 25.9062,-27.77084 41.4322,-46.4375 17.724,-21.3073 31.2605,-40.3697899 31.2605,-40.3697899 l -1.125,-3.96355001 z m 0,0"
       id="path4475"
       style="stroke-width:1.33333" />
    <path
       fill-rule="nonzero"
       fill="#fff200"
       fill-opacity="1"
       d="m 4407.979,147.04001 c -1.8802,5.20312 -2.875,8.33334 -2.875,8.74479 0.021,2.42709 1.6511,8.14063 10.6198,12.53647 8.5781,4.20312 19.1458,8.125 21.7396,2.83853 0,0 22.974,-45.23957 44.8802,-77.614572 20.625,-30.47917 56.8333,-55.95833 56.8333,-55.95833 l 0.9323,-10.5 c 0,0 -36.1823,20.51041 -60.7656,56.3177 -24.9792,36.385422 -43.9635,78.802082 -45.474,80.166672 -1.5052,1.36457 -6.5885,0.59896 -12.0104,-2.09896 -12.1302,-6.03647 -13.8802,-14.4323 -13.8802,-14.4323"
       id="path4477"
       style="stroke-width:1.33333" />
    <path
       fill-rule="nonzero"
       fill="#bdd3dc"
       fill-opacity="1"
       d="m 4784.1249,-349.77768 c 2.5937,-0.92709 4.5572,-1.86979 5.7656,-2.94792 4.3281,-3.84375 18.9844,-25.59896 24.9218,-34.52604 0.2813,-0.42708 0.9323,-0.0781 0.7396,0.39063 -4.1302,9.79166 -13.9218,33.6927 -13.8698,39.83333 0.011,1.375 -0.016,5.24479 0.4063,6.88541 -5.724,-4.26562 -11.6667,-7.1302 -17.9635,-9.63541"
       id="path4479"
       style="stroke-width:1.33333" />
    <path
       fill-rule="nonzero"
       fill="#00a870"
       fill-opacity="1"
       d="m 4674.0832,-303.56414 c 49.8854,-34.96875 93.401,-40.25521 110.0417,-46.21354 6.2968,2.50521 12.2395,5.36979 17.9635,9.63541 2.9375,11.35938 14.6927,29.9948 20.7396,67.45312 6.25,38.72396 12.2396,105.91147 -45.5781,200.260418 -57.375,93.625 -133.0938,161.90104 -133.0938,161.90104 0,0 -5.1302,10.46353 -58,-15.43751 -60.8489,-29.8177 -60.6406,-38.71353 -60.6406,-38.71353 0,0 2.5364,-38.9843699 22.6146,-117.71876 26.7916,-105.067698 73.4166,-184.348938 125.9531,-221.166648"
       id="path4481"
       style="stroke-width:1.33333" />
    <path
       fill-rule="nonzero"
       fill="#fff200"
       fill-opacity="1"
       d="m 4526.9426,22.076468 c -1.1407,8.83855 -1.4323,13.2448 -1.4323,13.2448 0,0 -0.2031,8.89583 60.6458,38.71353 52.8698,25.90104 58,15.43751 58,15.43751 0,0 3.2656,-2.94271 8.9531,-8.45313 0,0 -5.4375,6.64584 -24.5208,0.89584 -19.0833,-5.75 -55.4062,-21.60418 -78.5729,-35.97918 -23.1667,-14.36978 -23.0729,-23.85937 -23.0729,-23.85937"
       id="path4483"
       style="stroke-width:1.33333" />
    <path
       fill-rule="nonzero"
       fill="#fff200"
       fill-opacity="1"
       d="m 4789.078,-344.71518 c 0,0 -21.1823,10.83333 -31.9896,21.96354 -10.8021,11.125 -20.2344,24.8177 -20.2344,24.8177 l 15.6406,6.21355 c 0,0 4.8698,-10.33333 14.7032,-25.27084 9.3333,-14.17708 21.8802,-27.72395 21.8802,-27.72395"
       id="path4485"
       style="stroke-width:1.33333" />
    <path
       fill-rule="nonzero"
       fill="#fff200"
       fill-opacity="1"
       d="m 4687.104,-183.62143 c 0,0 -17.125,27.51561 -29.1458,49.8229 -20.5938,38.208338 -36.6615,73.640628 -36.6615,73.640628 0,0 9.4427,-39.18749 25.3282,-80.270818 10.1979,-26.3698 24.5416,-51.00522 24.5416,-51.00522 z m 0,0"
       id="path4487"
       style="stroke-width:1.33333" />
    <path
       fill-rule="nonzero"
       fill="#fff200"
       fill-opacity="1"
       d="m 4588.8801,60.128558 c 0,0 34.5156,-29.17188 45.75,-51.6979199 14.901,-29.8645801 15.5,-58.8229101 -5.8855,-73.6875001 -20.5364,-14.27604 -42.1822,-0.83853 -51.1927,10.42709 -23.0364,28.8125 -39.3073,66.03124 -39.3073,66.03124 z m 0,0"
       id="path4489"
       style="stroke-width:1.33333" />
    <path
       fill-rule="nonzero"
       fill="#00a870"
       fill-opacity="1"
       d="m 4460.354,256.83689 c -2.5625,3.57812 -13.0989,1.23438 -22.3646,-3.70313 -9.2604,-4.94271 -11.5677,-9.28645 -11.5833,-11.72396 -0.011,-2.43749 38.0313,-100.6302 77.7604,-171.020822 34.6354,-61.3593799 50.0209,-85.96355 60.6615,-100.67188 19.0729,-26.35937 38.6823,-39.23959 56.9166,-28.92187 23.1146,13.08334 16.6615,56.7656101 -1.9166,81.91145 -13.3438,18.0573 -30.7344,34.01042 -69.6667,89.161462 -35.8229,50.74999 -89.8073,144.96875 -89.8073,144.96875"
       id="path4491"
       style="stroke-width:1.33333" />
    <path
       fill-rule="nonzero"
       fill="#fff200"
       fill-opacity="1"
       d="m 4430.5363,229.80564 c -2.6614,6.94271 -4.1302,11.125 -4.1302,11.60416 0.016,2.43751 2.3229,6.77604 11.5885,11.71876 9.2605,4.94271 19.7969,7.28645 22.3594,3.70833 0,0 2.1927,-3.82813 5.9844,-10.34896 0,0 -8.776,5.98438 -23.7656,-1.59376 -14.4011,-7.28124 -12.0365,-15.08853 -12.0365,-15.08853"
       id="path4493"
       style="stroke-width:1.33333" />
    <path
       fill-rule="nonzero"
       fill="#151821"
       fill-opacity="1"
       d="m 4734.6457,-167.13186 c -8.2292,0 -16.474,-1.18229 -24.5156,-3.5052 -48.4011,-13.9948 -65.3698,-36.95833 -71.0729,-53.76042 -3.9948,-11.76562 -2.9219,-24.07812 3.1041,-35.60938 8.599,-16.43229 26.9948,-30.73957 46.875,-36.4427 8.7083,-2.5 16.901,-3.71354 25.0469,-3.71354 18.6094,0 36.8281,6.63542 54.1458,19.72395 16.849,12.72917 26.724,29.05209 28.5521,47.19792 1.3854,13.72396 -1.9219,28.56771 -9.0729,40.71875 -9.2031,15.66146 -29.5417,25.39062 -53.0625,25.39062 z m 0,0"
       id="path4495"
       style="stroke-width:1.33333" />
    <path
       fill-rule="nonzero"
       fill="#bdd3dc"
       fill-opacity="1"
       d="m 4714.0832,-303.41831 c -8.4531,0 -16.9375,1.25521 -25.9427,3.83855 -20.6979,5.9427 -39.875,20.8802 -48.8594,38.06249 -6.4531,12.33855 -7.5937,25.53645 -3.3073,38.16667 5.9584,17.53125 23.5,41.45833 73.25,55.83854 8.3385,2.41146 16.8854,3.6302 25.4219,3.6302 24.6719,0 46.0781,-10.33853 55.8698,-26.98957 7.4896,-12.73959 10.9531,-28.30209 9.5052,-42.69792 -1.9271,-19.06771 -12.2396,-36.17188 -29.8281,-49.46875 -17.8959,-13.52084 -36.7761,-20.38021 -56.1094,-20.38021 m 0,6.50521 c 15.4844,0 33.1354,4.67187 52.1875,19.06771 36.5052,27.58853 30.0156,64.32812 18.6354,83.67708 -8.8385,15.03125 -28.4062,23.78125 -50.2604,23.78125 -7.7084,0 -15.7031,-1.08854 -23.6146,-3.375 -40.9479,-11.83854 -61.9271,-31.17188 -68.8958,-51.68229 -10.9427,-32.21355 20.7916,-60.125 47.7968,-67.88021 7.2657,-2.08334 15.3594,-3.58854 24.1511,-3.58854"
       id="path4497"
       style="stroke-width:1.33333" />
    <path
       fill-rule="nonzero"
       fill="#2f404c"
       fill-opacity="1"
       d="m 4772.4478,-256.38706 c -8.1042,-10.8125 -21.9896,-24.91146 -49.3542,-29.07813 -27.3646,-4.16667 -48.2656,6.69271 -60.1719,18.89584 -15.4114,15.79167 -10.5937,31.97916 -10.5937,31.97916 0,0 17.2916,-21.27604 63.0833,-19.57812 43.2031,1.60416 66.1094,26.41667 66.1094,26.41667 0,0 1.4219,-14.63542 -9.0729,-28.63542"
       id="path4499"
       style="stroke-width:1.33333" />
    <path
       fill-rule="nonzero"
       fill="#ffffff"
       fill-opacity="1"
       d="m 4540.1092,228.10251 c 0,0 -45.2604,152.86458 -288.9427,331.44271 -201.0052,147.30212 -267.7656,179.44272 -296.526,339.90622 -28.7605,160.46356 70.3593,296.84366 234.2708,355.43226 277.4271,99.1666 710.7552,-25.3334 710.7552,-25.3334 0,0 -532.6875,229.474 -839.3958,78.0104 -252.7865,-124.8385 -268.0573,-330.45816 -191.3959,-483.27596 53.2448,-106.1458 189.6146,-196.3437 323.7709,-274.73432 304.1458,-177.71353 347.4635,-321.44791 347.4635,-321.44791"
       id="path4501"
       style="stroke-width:1.33333" />
    <path
       fill-rule="nonzero"
       fill="#ffffff"
       fill-opacity="1"
       d="m 3631.6509,1061.566 c 0,0 45.2969,115.9583 150.3854,202.927 131.4635,108.7969 230.1094,144.948 230.1094,144.948 0,0 -134.5417,-32.0625 -235.0365,-100.6927 -156.3281,-106.7657 -145.4583,-247.1823 -145.4583,-247.1823"
       id="path4503"
       style="stroke-width:1.33333" />
    <path
       fill-rule="nonzero"
       fill="#fff200"
       fill-opacity="1"
       d="m 2380.3518,411.5894 c -2.1719,0 -3.8802,-1.70312 -3.8802,-3.8802 V 306.82379 c 0,-2.17188 1.7083,-3.88021 3.8802,-3.88021 h 16.2968 c 2.1719,0 3.8803,1.70833 3.8803,3.88021 V 407.7092 c 0,2.17708 -1.7084,3.8802 -3.8803,3.8802 z m 0,0"
       id="path4505"
       style="stroke-width:1.33333" />
    <path
       fill-rule="nonzero"
       fill="#ec008c"
       fill-opacity="1"
       d="m 2475.9559,411.5894 c -2.3229,0 -4.5,-1.39582 -5.4323,-3.5677 l -25.4531,-59.13541 c -0.1562,-0.3073 -0.3125,-0.15626 -0.3125,0 v 58.82291 c 0,2.17708 -1.7031,3.8802 -3.8802,3.8802 h -16.2917 c -2.177,0 -3.8802,-1.70312 -3.8802,-3.8802 V 306.82379 c 0,-2.17188 1.7032,-3.88021 3.8802,-3.88021 h 16.6042 c 2.3281,0 4.5,1.39583 5.4323,3.57292 l 25.4583,59.28645 c 0.1511,0.31251 0.3073,0.15626 0.3073,0 v -58.97916 c 0,-2.17188 1.7084,-3.88021 3.8802,-3.88021 h 16.2969 c 2.1719,0 3.8802,1.70833 3.8802,3.88021 V 407.7092 c 0,2.17708 -1.7083,3.8802 -3.8802,3.8802 z m 0,0"
       id="path4507"
       style="stroke-width:1.33333" />
    <path
       fill-rule="nonzero"
       fill="#ec008c"
       fill-opacity="1"
       d="m 2514.6018,324.5217 c -2.1719,0 -3.8802,-1.70833 -3.8802,-3.8802 v -13.81771 c 0,-2.17188 1.7083,-3.88021 3.8802,-3.88021 h 62.7031 c 2.1719,0 3.8802,1.70833 3.8802,3.88021 v 13.81771 c 0,2.17187 -1.7083,3.8802 -3.8802,3.8802 h -18.4688 c -0.4687,0 -0.776,0.30729 -0.776,0.77084 v 82.41666 c 0,2.17187 -1.7083,3.8802 -3.8802,3.8802 h -16.2969 c -2.1719,0 -3.8802,-1.70833 -3.8802,-3.8802 v -82.41666 c 0,-0.46355 -0.3125,-0.77084 -0.776,-0.77084 z m 0,0"
       id="path4509"
       style="stroke-width:1.33333" />
    <path
       fill-rule="nonzero"
       fill="#ec008c"
       fill-opacity="1"
       d="m 2599.3413,411.5894 c -2.1718,0 -3.8802,-1.70312 -3.8802,-3.8802 V 306.82379 c 0,-2.17188 1.7084,-3.88021 3.8802,-3.88021 h 52.9271 c 2.1719,0 3.8802,1.70833 3.8802,3.88021 v 13.8125 c 0,2.17708 -1.7083,3.88021 -3.8802,3.88021 h -31.9739 c -0.4636,0 -0.7761,0.31249 -0.7761,0.77604 v 21.10937 c 0,0.46875 0.3125,0.77604 0.7761,0.77604 h 22.3489 c 2.1719,0 3.8802,1.70834 3.8802,3.88022 v 12.26041 c 0,2.17708 -1.7083,3.88021 -3.8802,3.88021 h -22.3489 c -0.4636,0 -0.7761,0.3125 -0.7761,0.78124 v 21.26043 c 0,0.46875 0.3125,0.77604 0.7761,0.77604 h 31.9739 c 2.1719,0 3.8802,1.70833 3.8802,3.8802 v 13.8125 c 0,2.17708 -1.7083,3.8802 -3.8802,3.8802 z m 0,0"
       id="path4511"
       style="stroke-width:1.33333" />
    <path
       fill-rule="nonzero"
       fill="#ec008c"
       fill-opacity="1"
       d="m 2697.7372,324.5217 c -0.4636,0 -0.7709,0.30729 -0.7709,0.77084 v 24.05729 c 0,0.46875 0.3073,0.78124 0.7709,0.78124 h 20.8021 c 0.4635,0 0.776,-0.31249 0.776,-0.78124 v -24.05729 c 0,-0.46355 -0.3125,-0.77084 -0.776,-0.77084 z m -20.9479,87.0677 c -2.1771,0 -3.8802,-1.70833 -3.8802,-3.8802 V 306.82379 c 0,-2.17188 1.7031,-3.88021 3.8802,-3.88021 h 54.1666 c 6.3594,0 11.6407,5.27604 11.6407,11.64063 v 45.47916 c 0,6.36458 -5.2813,11.64062 -11.6407,11.64062 h -2.7968 c -0.3073,0 -0.6198,0.3073 -0.4636,0.6198 l 19.4011,35.85416 c 0.9323,1.55208 -0.3125,3.41145 -2.0157,3.41145 h -17.3854 c -2.3281,0 -4.6562,-1.39582 -5.7448,-3.41145 l -19.401,-35.85416 c -0.1511,-0.3125 -0.6198,-0.6198 -1.0834,-0.6198 h -3.7291 c -0.4636,0 -0.7709,0.3073 -0.7709,0.77604 v 35.22917 c 0,2.17187 -1.7083,3.8802 -3.8802,3.8802 z m 0,0"
       id="path4513"
       style="stroke-width:1.33333" />
    <path
       fill-rule="nonzero"
       fill="#fff200"
       fill-opacity="1"
       d="m 2231.5132,539.63111 c -6.3645,0 -11.6406,-5.27614 -11.6406,-11.64067 v -85.36457 c 0,-6.36459 5.2761,-11.64063 11.6406,-11.64063 h 42.9948 c 6.3646,0 11.6407,5.27604 11.6407,11.64063 v 13.5052 c 0,2.32813 -1.3959,4.5 -3.573,5.43229 l -16.9166,6.98437 c -1.7084,0.77606 -3.5677,-0.46353 -3.5677,-2.32812 V 453.3394 c 0,-0.46875 -0.3125,-0.77604 -0.7761,-0.77604 h -16.6094 c -0.4687,0 -0.776,0.30729 -0.776,0.77604 v 63.94272 c 0,0.46875 0.3073,0.77604 0.776,0.77604 h 19.0886 c 0.4687,0 0.776,-0.30729 0.776,-0.77604 v -15.98439 c 0,-0.46353 -0.3073,-0.77604 -0.776,-0.77604 h -10.3958 c -1.8646,0 -3.1042,-1.86457 -2.4844,-3.5729 l 6.0521,-14.4323 c 0.776,-2.17188 2.9531,-3.5677 5.276,-3.5677 h 21.7292 c 2.1771,0 3.8854,1.70312 3.8854,3.8802 v 45.16145 c 0,6.36453 -5.2813,11.64067 -11.6459,11.64067 z m 0,0"
       id="path4515"
       style="stroke-width:1.33333" />
    <path
       fill-rule="nonzero"
       fill="#ec008c"
       fill-opacity="1"
       d="m 2339.5341,460.16753 c 0,-0.15625 -0.3125,-0.15625 -0.3125,0 l -7.2917,39.26563 c -0.1563,0.46875 0.3073,0.77604 0.6198,0.77604 h 13.8125 c 0.4687,0 0.776,-0.30729 0.6198,-0.77604 z m 10.401,-29.18229 c 2.1719,0 4.1875,1.55208 4.8073,3.72916 l 24.526,101.19271 c 0.4636,1.86453 -0.9323,3.724 -2.9479,3.724 h -17.8489 c -2.1771,0 -4.1927,-1.55214 -4.6615,-3.88027 l -3.099,-16.2968 c -0.1562,-0.4636 -0.4687,-0.77088 -0.9322,-0.77088 h -20.7969 c -0.4688,0 -0.7813,0.30728 -0.9323,0.77088 l -2.9479,16.2968 c -0.4688,2.17707 -2.4844,3.88027 -4.6563,3.88027 h -17.8489 c -2.0209,0 -3.4167,-1.85947 -2.9532,-3.724 l 24.5261,-101.19271 c 0.6198,-2.17708 2.6354,-3.72916 4.8125,-3.72916 z m 0,0"
       id="path4517"
       style="stroke-width:1.33333" />
    <path
       fill-rule="nonzero"
       fill="#ec008c"
       fill-opacity="1"
       d="m 2396.1799,539.63111 c -2.1719,0 -3.8802,-1.7032 -3.8802,-3.88027 V 434.86546 c 0,-2.17188 1.7083,-3.88022 3.8802,-3.88022 h 16.2969 c 2.1718,0 3.8802,1.70834 3.8802,3.88022 v 82.41666 c 0,0.46875 0.3125,0.77604 0.776,0.77604 h 31.974 c 2.1719,0 3.8802,1.70828 3.8802,3.88015 v 13.81253 c 0,2.17707 -1.7083,3.88027 -3.8802,3.88027 z m 0,0"
       id="path4519"
       style="stroke-width:1.33333" />
    <path
       fill-rule="nonzero"
       fill="#ec008c"
       fill-opacity="1"
       d="m 2499.2372,460.16753 c 0,-0.15625 -0.3125,-0.15625 -0.3125,0 l -7.2969,39.26563 c -0.151,0.46875 0.3125,0.77604 0.625,0.77604 h 13.8125 c 0.4688,0 0.7761,-0.30729 0.6198,-0.77604 z m 10.3958,-29.18229 c 2.1771,0 4.1927,1.55208 4.8125,3.72916 l 24.5209,101.19271 c 0.4687,1.86453 -0.9271,3.724 -2.948,3.724 h -17.8489 c -2.1719,0 -4.1875,-1.55214 -4.6563,-3.88027 l -3.1041,-16.2968 c -0.1511,-0.4636 -0.4636,-0.77088 -0.9271,-0.77088 h -20.8021 c -0.4635,0 -0.776,0.30728 -0.9271,0.77088 l -2.9531,16.2968 c -0.4636,2.17707 -2.4792,3.88027 -4.6511,3.88027 h -17.8541 c -2.0156,0 -3.4115,-1.85947 -2.9479,-3.724 l 24.526,-101.19271 c 0.6198,-2.17708 2.6354,-3.72916 4.8073,-3.72916 z m 0,0"
       id="path4521"
       style="stroke-width:1.33333" />
    <path
       fill-rule="nonzero"
       fill="#ec008c"
       fill-opacity="1"
       d="m 2607.7268,539.63111 c -2.3282,0 -4.6563,-1.39587 -5.7448,-3.41147 l -20.4896,-39.57815 c -0.151,-0.3125 -0.6198,-0.6198 -1.0833,-0.6198 h -3.573 c -0.4635,0 -0.776,0.3073 -0.776,0.77604 v 38.95311 c 0,2.17707 -1.7031,3.88027 -3.875,3.88027 h -16.3021 c -2.1719,0 -3.8802,-1.7032 -3.8802,-3.88027 V 434.86546 c 0,-2.17188 1.7083,-3.88022 3.8802,-3.88022 h 16.3021 c 2.1719,0 3.875,1.70834 3.875,3.88022 v 38.80207 c 0,0.46875 0.3125,0.78126 0.776,0.78126 h 3.2605 c 0.4687,0 0.9323,-0.31251 1.0885,-0.625 l 19.8646,-39.42188 c 1.0885,-2.02084 3.2604,-3.41667 5.5885,-3.41667 h 18.4688 c 1.8646,0 2.9531,1.86459 2.1719,3.41667 l -25.1407,49.97916 c -0.1562,0.30729 -0.1562,0.92709 0,1.23958 l 26.5417,50.59899 c 0.9271,1.552 -0.3125,3.41147 -2.0208,3.41147 z m 0,0"
       id="path4523"
       style="stroke-width:1.33333" />
    <path
       fill-rule="nonzero"
       fill="#ec008c"
       fill-opacity="1"
       d="m 2638.9195,452.56336 c -2.1771,0 -3.8802,-1.70833 -3.8802,-3.8802 v -13.8125 c 0,-2.17708 1.7031,-3.8802 3.8802,-3.8802 h 62.7031 c 2.1719,0 3.8802,1.70312 3.8802,3.8802 v 13.8125 c 0,2.17187 -1.7083,3.8802 -3.8802,3.8802 h -18.4687 c -0.4688,0 -0.7761,0.30729 -0.7761,0.77084 v 82.41664 c 0,2.17707 -1.7083,3.88027 -3.8802,3.88027 h -16.2969 c -2.1771,0 -3.8802,-1.7032 -3.8802,-3.88027 V 453.3342 c 0,-0.46355 -0.3125,-0.77084 -0.776,-0.77084 z m 0,0"
       id="path4525"
       style="stroke-width:1.33333" />
    <path
       fill-rule="nonzero"
       fill="#ec008c"
       fill-opacity="1"
       d="m 2723.6591,539.63111 c -2.1719,0 -3.8802,-1.7032 -3.8802,-3.88027 V 434.86546 c 0,-2.17188 1.7083,-3.88022 3.8802,-3.88022 h 16.2968 c 2.1719,0 3.8802,1.70834 3.8802,3.88022 v 100.88538 c 0,2.17707 -1.7083,3.88027 -3.8802,3.88027 z m 0,0"
       id="path4527"
       style="stroke-width:1.33333" />
    <path
       fill-rule="nonzero"
       fill="#ec008c"
       fill-opacity="1"
       d="m 2767.1122,490.12065 c -2.1719,-0.46353 -3.724,-2.63541 -3.724,-4.81249 v -42.68229 c 0,-6.35937 5.2761,-11.63541 11.6407,-11.63541 h 40.6666 c 6.3646,0 11.6406,5.27604 11.6406,11.63541 v 11.95312 c 0,2.32813 -1.3958,4.5 -3.5729,5.43229 l -16.9166,6.98437 c -1.7084,0.77604 -3.5677,-0.46353 -3.5677,-2.32812 V 453.3342 c 0,-0.46355 -0.3126,-0.77084 -0.7761,-0.77084 h -14.2812 c -0.4636,0 -0.7761,0.30729 -0.7761,0.77084 v 17.84896 c 0,0.46875 0.3125,0.77604 0.7761,0.93229 l 36.0104,8.54167 c 2.1719,0.46353 3.7239,2.63541 3.7239,4.80728 v 42.52604 c 0,6.36453 -5.276,11.64067 -11.6406,11.64067 h -41.5937 c -6.3646,0 -11.6459,-5.27614 -11.6459,-11.64067 v -11.94791 c 0,-2.32813 1.4011,-4.5 3.5729,-5.43229 l 16.9167,-6.98437 c 1.7083,-0.77604 3.5677,0.46353 3.5677,2.32812 v 11.32813 c 0,0.46875 0.3125,0.77604 0.7813,0.77604 h 15.2083 c 0.4635,0 0.776,-0.30729 0.776,-0.77604 v -17.53647 c 0,-0.46874 -0.3125,-0.78125 -0.776,-0.93229 z m 0,0"
       id="path4529"
       style="stroke-width:1.33333" />
    <path
       fill-rule="nonzero"
       fill="#ec008c"
       fill-opacity="1"
       d="m 2858.6851,539.63111 c -6.3646,0 -11.6406,-5.27614 -11.6406,-11.64067 v -85.36457 c 0,-6.36459 5.276,-11.64063 11.6406,-11.64063 h 43.7656 c 6.3646,0 11.6406,5.27604 11.6406,11.64063 v 18.16145 c 0,2.32813 -1.3958,4.5 -3.5677,5.43229 l -16.9166,6.98438 c -1.7084,0.77604 -3.573,-0.46354 -3.573,-2.32812 V 453.3394 c 0,-0.46875 -0.3072,-0.77604 -0.776,-0.77604 h -17.3854 c -0.4636,0 -0.7708,0.30729 -0.7708,0.77604 v 63.94272 c 0,0.46875 0.3072,0.77604 0.7708,0.77604 h 17.3854 c 0.4688,0 0.776,-0.30729 0.776,-0.77604 v -17.53647 c 0,-1.86458 1.8646,-3.10416 3.573,-2.32812 l 16.9166,6.98438 c 2.1719,0.93229 3.5677,3.10416 3.5677,5.43229 v 18.15624 c 0,6.36453 -5.276,11.64067 -11.6406,11.64067 z m 0,0"
       id="path4531"
       style="stroke-width:1.33333" />
    <path
       fill-rule="nonzero"
       fill="#ec008c"
       fill-opacity="1"
       d="m 2983.9351,539.63111 c -2.1719,0 -3.8802,-1.7032 -3.8802,-3.88027 v -39.57811 c 0,-0.46353 -0.3125,-0.77604 -0.7761,-0.77604 h -22.8177 c -0.4635,0 -0.776,0.31251 -0.776,0.77604 v 39.57811 c 0,2.17707 -1.7083,3.88027 -3.8802,3.88027 h -16.2969 c -2.1719,0 -3.8802,-1.7032 -3.8802,-3.88027 V 434.86546 c 0,-2.17188 1.7083,-3.88022 3.8802,-3.88022 h 16.2969 c 2.1719,0 3.8802,1.70834 3.8802,3.88022 v 38.18227 c 0,0.46876 0.3125,0.77606 0.776,0.77606 h 22.8177 c 0.4636,0 0.7761,-0.3073 0.7761,-0.77606 v -38.18227 c 0,-2.17188 1.7083,-3.88022 3.8802,-3.88022 h 16.2969 c 2.1718,0 3.8802,1.70834 3.8802,3.88022 v 100.88538 c 0,2.17707 -1.7084,3.88027 -3.8802,3.88027 z m 0,0"
       id="path4533"
       style="stroke-width:1.33333" />
    <path
       fill-rule="nonzero"
       fill="#ec008c"
       fill-opacity="1"
       d="m 3028.159,539.63111 c -2.1718,0 -3.8801,-1.7032 -3.8801,-3.88027 V 434.86546 c 0,-2.17188 1.7083,-3.88022 3.8801,-3.88022 h 52.9271 c 2.1719,0 3.8803,1.70834 3.8803,3.88022 v 13.8177 c 0,2.17187 -1.7084,3.8802 -3.8803,3.8802 h -31.9739 c -0.4636,0 -0.7761,0.30729 -0.7761,0.77604 v 21.10939 c 0,0.46353 0.3125,0.77082 0.7761,0.77082 h 22.3542 c 2.1718,0 3.8801,1.70834 3.8801,3.88022 v 12.26041 c 0,2.17708 -1.7083,3.88021 -3.8801,3.88021 h -22.3542 c -0.4636,0 -0.7761,0.3125 -0.7761,0.78124 v 21.26043 c 0,0.46875 0.3125,0.77604 0.7761,0.77604 h 31.9739 c 2.1719,0 3.8803,1.70828 3.8803,3.88015 v 13.81253 c 0,2.17707 -1.7084,3.88027 -3.8803,3.88027 z m 0,0"
       id="path4535"
       style="stroke-width:1.33333" />
    <path
       fill-rule="nonzero"
       fill="#fff200"
       fill-opacity="1"
       d="m 2302.1278,667.6779 c -2.1719,0 -3.8802,-1.70826 -3.8802,-3.88013 V 562.91231 c 0,-2.17187 1.7083,-3.88014 3.8802,-3.88014 h 52.9271 c 2.1719,0 3.8802,1.70827 3.8802,3.88014 v 13.81253 c 0,2.17187 -1.7083,3.88013 -3.8802,3.88013 h -31.974 c -0.4635,0 -0.776,0.31254 -0.776,0.77614 v 21.10933 c 0,0.4636 0.3125,0.776 0.776,0.776 h 22.3542 c 2.1719,0 3.875,1.7084 3.875,3.88026 v 12.2604 c 0,2.17187 -1.7031,3.88027 -3.875,3.88027 h -22.3542 c -0.4635,0 -0.776,0.3072 -0.776,0.776 v 21.2604 c 0,0.4688 0.3125,0.7812 0.776,0.7812 h 31.974 c 2.1719,0 3.8802,1.7032 3.8802,3.88027 v 13.81253 c 0,2.17187 -1.7083,3.88013 -3.8802,3.88013 z m 0,0"
       id="path4537"
       style="stroke-width:1.33333" />
    <path
       fill-rule="nonzero"
       fill="#ec008c"
       fill-opacity="1"
       d="m 2400.5289,580.60497 c -0.4688,0 -0.7761,0.31254 -0.7761,0.77614 v 24.05719 c 0,0.4636 0.3073,0.77614 0.7761,0.77614 h 20.7968 c 0.4688,0 0.7761,-0.31254 0.7761,-0.77614 v -24.05719 c 0,-0.4636 -0.3073,-0.77614 -0.7761,-0.77614 z m -20.9532,87.07293 c -2.1718,0 -3.8802,-1.70826 -3.8802,-3.88013 V 562.91231 c 0,-2.17187 1.7084,-3.88014 3.8802,-3.88014 h 54.1667 c 6.3646,0 11.6406,5.276 11.6406,11.64054 v 45.47399 c 0,6.36454 -5.276,11.64067 -11.6406,11.64067 h -2.7917 c -0.3125,0 -0.6198,0.3124 -0.4687,0.61973 l 19.401,35.85414 c 0.9323,1.55213 -0.3073,3.41666 -2.0156,3.41666 h -17.3854 c -2.3281,0 -4.6563,-1.39573 -5.7396,-3.41666 l -19.401,-35.85414 c -0.1563,-0.30733 -0.6198,-0.61973 -1.0886,-0.61973 h -3.7239 c -0.4688,0 -0.7761,0.3124 -0.7761,0.776 v 35.2344 c 0,2.17187 -1.7083,3.88013 -3.8802,3.88013 z m 0,0"
       id="path4539"
       style="stroke-width:1.33333" />
    <path
       fill-rule="nonzero"
       fill="#ec008c"
       fill-opacity="1"
       d="m 2469.7476,667.6779 c -2.1719,0 -3.8802,-1.70826 -3.8802,-3.88013 V 562.91231 c 0,-2.17187 1.7083,-3.88014 3.8802,-3.88014 h 54.4792 c 2.1718,0 3.8802,1.70827 3.8802,3.88014 v 13.81253 c 0,2.17187 -1.7084,3.88013 -3.8802,3.88013 h -33.5261 c -0.4635,0 -0.776,0.31254 -0.776,0.77614 v 21.42186 c 0,0.46347 0.3125,0.7708 0.776,0.7708 h 23.7448 c 2.1771,0 3.8854,1.7084 3.8854,3.88027 v 12.2604 c 0,2.17706 -1.7083,3.88013 -3.8854,3.88013 h -23.7448 c -0.4635,0 -0.776,0.31253 -0.776,0.78133 v 39.42187 c 0,2.17187 -1.7083,3.88013 -3.8802,3.88013 z m 0,0"
       id="path4541"
       style="stroke-width:1.33333" />
    <path
       fill-rule="nonzero"
       fill="#ec008c"
       fill-opacity="1"
       d="m 2567.6851,588.20924 c 0,-0.15627 -0.3125,-0.15627 -0.3125,0 l -7.2969,39.2656 c -0.151,0.4688 0.3125,0.7812 0.625,0.7812 h 13.8125 c 0.4636,0 0.7761,-0.3124 0.6198,-0.7812 z m 10.3958,-29.17707 c 2.1719,0 4.1927,1.552 4.8125,3.72387 l 24.5209,101.198 c 0.4687,1.85933 -0.9271,3.72386 -2.948,3.72386 h -17.8489 c -2.1719,0 -4.1875,-1.552 -4.6563,-3.88013 l -3.1041,-16.29693 c -0.1511,-0.46867 -0.4636,-0.776 -0.9323,-0.776 h -20.7969 c -0.4635,0 -0.776,0.30733 -0.9323,0.776 l -2.9479,16.29693 c -0.4635,2.17187 -2.4792,3.88013 -4.6562,3.88013 h -17.849 c -2.0156,0 -3.4115,-1.86453 -2.9479,-3.72386 l 24.5208,-101.198 c 0.625,-2.17187 2.6406,-3.72387 4.8125,-3.72387 z m 0,0"
       id="path4543"
       style="stroke-width:1.33333" />
    <path
       fill-rule="nonzero"
       fill="#ec008c"
       fill-opacity="1"
       d="m 2672.758,667.6779 c -2.1719,0 -3.8802,-1.70826 -3.8802,-3.88013 v -39.57813 c 0,-0.4688 -0.3125,-0.776 -0.776,-0.776 h -22.8177 c -0.4636,0 -0.7761,0.3072 -0.7761,0.776 v 39.57813 c 0,2.17187 -1.7031,3.88013 -3.8802,3.88013 h -16.2969 c -2.1718,0 -3.8802,-1.70826 -3.8802,-3.88013 V 562.91231 c 0,-2.17187 1.7084,-3.88014 3.8802,-3.88014 h 16.2969 c 2.1771,0 3.8802,1.70827 3.8802,3.88014 v 38.18226 c 0,0.4636 0.3125,0.77613 0.7761,0.77613 h 22.8177 c 0.4635,0 0.776,-0.31253 0.776,-0.77613 v -38.18226 c 0,-2.17187 1.7083,-3.88014 3.8802,-3.88014 h 16.2969 c 2.1719,0 3.8802,1.70827 3.8802,3.88014 v 100.88546 c 0,2.17187 -1.7083,3.88013 -3.8802,3.88013 z m 0,0"
       id="path4545"
       style="stroke-width:1.33333" />
    <path
       fill-rule="nonzero"
       fill="#ec008c"
       fill-opacity="1"
       d="m 2737.9351,580.60497 c -0.4635,0 -0.7708,0.31254 -0.7708,0.77614 v 24.05719 c 0,0.4636 0.3073,0.77614 0.7708,0.77614 h 20.8021 c 0.4635,0 0.776,-0.31254 0.776,-0.77614 v -24.05719 c 0,-0.4636 -0.3125,-0.77614 -0.776,-0.77614 z m -20.9479,87.07293 c -2.1771,0 -3.8802,-1.70826 -3.8802,-3.88013 V 562.91231 c 0,-2.17187 1.7031,-3.88014 3.8802,-3.88014 h 54.1667 c 6.3645,0 11.6406,5.276 11.6406,11.64054 v 45.47399 c 0,6.36454 -5.2761,11.64067 -11.6406,11.64067 h -2.7969 c -0.3073,0 -0.6198,0.3124 -0.4636,0.61973 l 19.4011,35.85414 c 0.9323,1.55213 -0.3125,3.41666 -2.0156,3.41666 h -17.3855 c -2.3281,0 -4.6562,-1.39573 -5.7448,-3.41666 l -19.401,-35.85414 c -0.151,-0.30733 -0.6198,-0.61973 -1.0833,-0.61973 h -3.7292 c -0.4635,0 -0.7708,0.3124 -0.7708,0.776 v 35.2344 c 0,2.17187 -1.7084,3.88013 -3.8802,3.88013 z m 0,0"
       id="path4547"
       style="stroke-width:1.33333" />
    <path
       fill-rule="nonzero"
       fill="#ec008c"
       fill-opacity="1"
       d="m 2814.9195,667.6779 c -6.3646,0 -11.6406,-5.276 -11.6406,-11.64053 v -93.12506 c 0,-2.17187 1.7031,-3.88014 3.8802,-3.88014 h 16.2968 c 2.1719,0 3.8802,1.70827 3.8802,3.88014 v 82.41146 c 0,0.4688 0.3073,0.7812 0.7761,0.7812 h 18.625 c 0.4635,0 0.776,-0.3124 0.776,-0.7812 v -82.41146 c 0,-2.17187 1.7084,-3.88014 3.8802,-3.88014 h 16.2969 c 2.1719,0 3.8802,1.70827 3.8802,3.88014 v 93.12506 c 0,6.36453 -5.2812,11.64053 -11.6458,11.64053 z m 0,0"
       id="path4549"
       style="stroke-width:1.33333" />
    <path
       fill-rule="nonzero"
       fill="#ec008c"
       fill-opacity="1"
       d="m 2946.9976,667.6779 c -2.3281,0 -4.5052,-1.39573 -5.4323,-3.57293 l -25.4531,-59.13013 c -0.1563,-0.31254 -0.3125,-0.15627 -0.3125,0 v 58.82293 c 0,2.17187 -1.7084,3.88013 -3.8802,3.88013 h -16.2969 c -2.1719,0 -3.8802,-1.70826 -3.8802,-3.88013 V 562.91231 c 0,-2.17187 1.7083,-3.88014 3.8802,-3.88014 h 16.6094 c 2.3229,0 4.5,1.39574 5.4323,3.5676 l 25.4531,59.29173 c 0.151,0.30734 0.3073,0.15627 0.3073,0 v -58.97919 c 0,-2.17187 1.7083,-3.88014 3.8802,-3.88014 h 16.2969 c 2.177,0 3.8802,1.70827 3.8802,3.88014 v 100.88546 c 0,2.17187 -1.7032,3.88013 -3.8802,3.88013 z m 0,0"
       id="path4551"
       style="stroke-width:1.33333" />
    <path
       fill-rule="nonzero"
       fill="#ec008c"
       fill-opacity="1"
       d="m 2999.1434,667.6779 c -6.3645,0 -11.6406,-5.276 -11.6406,-11.64053 v -85.36466 c 0,-6.36454 5.2761,-11.64054 11.6406,-11.64054 h 42.9896 c 6.3646,0 11.6459,5.276 11.6459,11.64054 v 13.5 c 0,2.33333 -1.4011,4.50519 -3.5729,5.43226 l -16.9167,6.9844 c -1.7084,0.77613 -3.5677,-0.46347 -3.5677,-2.32813 v -12.88013 c 0,-0.4636 -0.3126,-0.77614 -0.7812,-0.77614 h -16.6043 c -0.4687,0 -0.776,0.31254 -0.776,0.77614 v 63.94266 c 0,0.4688 0.3073,0.7812 0.776,0.7812 h 19.0885 c 0.4688,0 0.7762,-0.3124 0.7762,-0.7812 v -15.9844 c 0,-0.46347 -0.3074,-0.776 -0.7762,-0.776 h -10.4009 c -1.8595,0 -3.0991,-1.85933 -2.4844,-3.56773 l 6.0572,-14.43227 c 0.7761,-2.17707 2.948,-3.57293 5.2761,-3.57293 h 21.7291 c 2.1772,0 3.8803,1.7084 3.8803,3.88026 v 45.16667 c 0,6.36453 -5.276,11.64053 -11.6407,11.64053 z m 0,0"
       id="path4553"
       style="stroke-width:1.33333" />
    <path
       fill-rule="nonzero"
       fill="#ec008c"
       fill-opacity="1"
       d="m 3077.5184,618.1675 c -2.1719,-0.46866 -3.7239,-2.64053 -3.7239,-4.81253 v -42.68226 c 0,-6.36454 5.276,-11.64054 11.6405,-11.64054 h 40.6615 c 6.3647,0 11.6407,5.276 11.6407,11.64054 v 11.948 c 0,2.32813 -1.3959,4.50519 -3.5678,5.43226 l -16.9166,6.9896 c -1.7083,0.7708 -3.573,-0.4688 -3.573,-2.32813 v -11.33333 c 0,-0.4636 -0.3072,-0.77614 -0.7708,-0.77614 h -14.2812 c -0.4688,0 -0.7761,0.31254 -0.7761,0.77614 v 17.84893 c 0,0.4636 0.3073,0.776 0.7761,0.93226 l 36.0104,8.53654 c 2.1719,0.46346 3.724,2.63533 3.724,4.8072 v 42.53133 c 0,6.36453 -5.2813,11.64053 -11.6406,11.64053 h -41.599 c -6.3646,0 -11.6406,-5.276 -11.6406,-11.64053 v -11.9532 c 0,-2.32813 1.3958,-4.5 3.5729,-5.43227 l 16.9167,-6.9844 c 1.7082,-0.776 3.5677,0.4688 3.5677,2.32814 v 11.33333 c 0,0.4636 0.3124,0.776 0.776,0.776 h 15.2084 c 0.4687,0 0.7812,-0.3124 0.7812,-0.776 v -17.5416 c 0,-0.4636 -0.3125,-0.77613 -0.7812,-0.9324 z m 0,0"
       id="path4555"
       style="stroke-width:1.33333" />
    <path
       fill-rule="nonzero"
       fill="#fff200"
       fill-opacity="1"
       d="m 2518.6382,708.6467 c -0.4635,0 -0.776,0.31254 -0.776,0.776 v 24.05733 c 0,0.4636 0.3125,0.776 0.776,0.776 h 20.7969 c 0.4688,0 0.7813,-0.3124 0.7813,-0.776 V 709.4227 c 0,-0.46346 -0.3125,-0.776 -0.7813,-0.776 z m -20.9531,87.07293 c -2.1719,0 -3.8802,-1.7084 -3.8802,-3.88026 V 690.95404 c 0,-2.17187 1.7083,-3.88027 3.8802,-3.88027 h 54.1667 c 6.3646,0 11.6406,5.276 11.6406,11.64067 v 45.47386 c 0,6.36467 -5.276,11.64067 -11.6406,11.64067 h -2.7917 c -0.3125,0 -0.6198,0.31253 -0.4687,0.61986 l 19.4062,35.85414 c 0.9271,1.552 -0.3125,3.41666 -2.0208,3.41666 h -17.3854 c -2.323,0 -4.6511,-1.39586 -5.7396,-3.41666 l -19.4011,-35.85414 c -0.1562,-0.30733 -0.6198,-0.61986 -1.0885,-0.61986 h -3.724 c -0.4635,0 -0.776,0.31253 -0.776,0.776 v 35.2344 c 0,2.17186 -1.7031,3.88026 -3.8802,3.88026 z m 0,0"
       id="path4557"
       style="stroke-width:1.33333" />
    <path
       fill-rule="nonzero"
       fill="#ec008c"
       fill-opacity="1"
       d="m 2587.857,795.71963 c -2.1719,0 -3.8802,-1.7084 -3.8802,-3.88026 V 690.95404 c 0,-2.17187 1.7083,-3.88027 3.8802,-3.88027 h 52.9271 c 2.1718,0 3.8802,1.7084 3.8802,3.88027 v 13.8124 c 0,2.17186 -1.7084,3.88026 -3.8802,3.88026 h -31.974 c -0.4635,0 -0.776,0.31254 -0.776,0.776 v 21.10947 c 0,0.46346 0.3125,0.776 0.776,0.776 h 22.349 c 2.177,0 3.8802,1.70826 3.8802,3.88013 v 12.26053 c 0,2.17187 -1.7032,3.88014 -3.8802,3.88014 h -22.349 c -0.4635,0 -0.776,0.30733 -0.776,0.776 v 21.26573 c 0,0.46347 0.3125,0.776 0.776,0.776 h 31.974 c 2.1718,0 3.8802,1.70307 3.8802,3.88027 v 13.8124 c 0,2.17186 -1.7084,3.88026 -3.8802,3.88026 z m 0,0"
       id="path4559"
       style="stroke-width:1.33333" />
    <path
       fill-rule="nonzero"
       fill="#ec008c"
       fill-opacity="1"
       d="m 2665.3049,795.71963 c -2.1719,0 -3.8802,-1.7084 -3.8802,-3.88026 V 690.95404 c 0,-2.17187 1.7083,-3.88027 3.8802,-3.88027 h 16.2969 c 2.1718,0 3.8802,1.7084 3.8802,3.88027 v 100.88533 c 0,2.17186 -1.7084,3.88026 -3.8802,3.88026 z m 0,0"
       id="path4561"
       style="stroke-width:1.33333" />
    <path
       fill-rule="nonzero"
       fill="#ec008c"
       fill-opacity="1"
       d="m 2708.758,746.20923 c -2.1719,-0.4688 -3.7239,-2.64066 -3.7239,-4.81253 v -42.68226 c 0,-6.36467 5.276,-11.64067 11.6406,-11.64067 h 40.6666 c 6.3646,0 11.6407,5.276 11.6407,11.64067 v 11.94786 c 0,2.32814 -1.3959,4.5052 -3.5729,5.43227 l -16.9167,6.9896 c -1.7083,0.7708 -3.5677,-0.46867 -3.5677,-2.32814 V 709.4227 c 0,-0.46346 -0.3125,-0.776 -0.7761,-0.776 h -14.2812 c -0.4635,0 -0.7761,0.31254 -0.7761,0.776 v 17.84893 c 0,0.4636 0.3126,0.77614 0.7761,0.9324 l 36.0104,8.5364 c 2.1719,0.4636 3.724,2.63547 3.724,4.80734 v 42.5312 c 0,6.36466 -5.2813,11.64066 -11.6407,11.64066 h -41.5937 c -6.3646,0 -11.6458,-5.276 -11.6458,-11.64066 V 772.1259 c 0,-2.32813 1.401,-4.5 3.5729,-5.43227 l 16.9166,-6.9844 c 1.7084,-0.77613 3.5678,0.46867 3.5678,2.32814 v 11.33333 c 0,0.46347 0.3124,0.776 0.776,0.776 h 15.2135 c 0.4636,0 0.7761,-0.31253 0.7761,-0.776 v -17.54173 c 0,-0.46347 -0.3125,-0.776 -0.7761,-0.92707 z m 0,0"
       id="path4563"
       style="stroke-width:1.33333" />
    <path
       fill-rule="nonzero"
       fill="#ec008c"
       fill-opacity="1"
       d="m 2792.7216,795.71963 c -2.1719,0 -3.8803,-1.7084 -3.8803,-3.88026 V 690.95404 c 0,-2.17187 1.7084,-3.88027 3.8803,-3.88027 h 52.927 c 2.1719,0 3.8803,1.7084 3.8803,3.88027 v 13.8124 c 0,2.17186 -1.7084,3.88026 -3.8803,3.88026 h -31.9739 c -0.4636,0 -0.7761,0.31254 -0.7761,0.776 v 21.10947 c 0,0.46346 0.3125,0.776 0.7761,0.776 h 22.3489 c 2.1771,0 3.8803,1.70826 3.8803,3.88013 v 12.26053 c 0,2.17187 -1.7032,3.88014 -3.8803,3.88014 h -22.3489 c -0.4636,0 -0.7761,0.30733 -0.7761,0.776 v 21.26573 c 0,0.46347 0.3125,0.776 0.7761,0.776 h 31.9739 c 2.1719,0 3.8803,1.70307 3.8803,3.88027 v 13.8124 c 0,2.17186 -1.7084,3.88026 -3.8803,3.88026 z m 0,0"
       id="path4565"
       style="stroke-width:1.33333" />
    <g
       id="g1675"
       transform="translate(-26.88697,-5.71647)"
       inkscape:label="logo">
      <path
         class="st0"
         d="M 313.05438,305.78645 H 140.71897 c -7.62172,0 -13.832,-6.21029 -13.832,-13.90257 V 119.54847 c 0,-7.62172 6.21028,-13.832 13.832,-13.832 h 172.33541 c 7.62171,0 13.83199,6.21028 13.83199,13.832 v 172.33541 c 0.0706,7.69228 -6.13971,13.90257 -13.83199,13.90257 z"
         id="path957"
         style="fill:#e6007e;stroke-width:0.705714" />
      <g
         id="g977"
         transform="matrix(0.7057142,0,0,0.7057142,126.88697,105.71647)">
        <g
           id="g961">
          <circle
             cx="113.3"
             cy="244.39999"
             r="15.2"
             id="circle959" />
        </g>
        <circle
           class="st1"
           cx="113.3"
           cy="244.39999"
           r="10.4"
           id="circle963"
           style="fill:#93b2c2" />
        <g
           id="g967">
          <circle
             cx="144.8"
             cy="244.39999"
             r="15.2"
             id="circle965" />
        </g>
        <circle
           class="st1"
           cx="144.8"
           cy="244.39999"
           r="10.4"
           id="circle969"
           style="fill:#93b2c2" />
        <g
           id="g973">
          <circle
             cx="201"
             cy="244.39999"
             r="15.2"
             id="circle971" />
        </g>
        <circle
           class="st1"
           cx="201"
           cy="244.39999"
           r="10.4"
           id="circle975"
           style="fill:#93b2c2" />
      </g>
      <path
         d="m 210.44353,278.19302 c 0,1.976 -1.62314,3.59914 -3.59914,3.59914 -1.976,0 -3.59914,-1.62314 -3.59914,-3.59914 v -7.33943 h 7.19828 z"
         id="path979"
         style="stroke-width:0.705714" />
      <path
         d="m 232.67353,278.19302 c 0,1.976 -1.62314,3.59914 -3.59914,3.59914 -1.976,0 -3.59915,-1.62314 -3.59915,-3.59914 v -7.33943 h 7.19829 z"
         id="path981"
         style="stroke-width:0.705714" />
      <path
         d="m 272.33467,278.19302 c 0,1.976 -1.62315,3.59914 -3.59915,3.59914 -1.976,0 -3.59914,-1.62314 -3.59914,-3.59914 v -7.33943 h 7.19829 z"
         id="path983"
         style="stroke-width:0.705714" />
      <path
         class="st2"
         d="m 319.26466,246.01245 c -2.82286,-0.14114 -9.03314,-1.41143 -10.51514,-2.11714 -0.35286,-0.14114 -1.27029,-0.63514 -1.62314,-0.91743 -2.39943,-2.04657 -5.50457,-6.21028 -13.832,-12.06771 -8.60971,-6.06914 -24.06486,-15.45514 -53.63428,-12.63229 -8.04514,0.77629 -15.808,2.11715 -22.86514,3.59915 l -0.63514,-0.70572 c -1.976,-2.32885 -10.93857,-12.20885 -24.41771,-15.66685 -17.21943,-4.446 -40.43743,-2.89343 -47.70628,-1.83486 0,0 0,0 0,0 -0.21172,0 -0.35286,0.0706 -0.494,0.0706 0,0 -0.0706,0 -0.0706,0 -0.21171,0 -0.35285,0.0706 -0.56457,0.0706 0,0 0,0 -0.0706,0 -0.14114,0 -0.28228,0.0706 -0.42343,0.0706 0,0 -0.0706,0 -0.0706,0 -0.14114,0 -0.21171,0.0706 -0.28228,0.0706 0,0 0,0 -0.0706,0 -0.0706,0 -0.14114,0.0706 -0.21171,0.0706 -1.27029,0.84686 -1.27029,4.72828 -1.27029,6.77485 0,2.04658 0.35286,5.50458 1.55258,6.77486 0.494,0.56457 21.87714,-1.62314 32.32171,4.23429 0.494,0.28228 0.91742,0.494 1.34085,0.77628 5.928,3.59914 7.97457,6.916 8.75086,8.82143 -0.84686,0.70571 -2.68172,3.59914 -2.68172,15.59628 0,6.422 0.28229,10.72686 0.63515,13.54972 -1.62315,0.42342 -3.38743,0.84685 -5.29286,1.27028 -10.58571,2.25829 -27.45228,2.964 -34.50942,3.17572 -1.55257,0.0706 -3.31686,0.0706 -3.31686,0.0706 -0.988,0.21171 -1.55257,3.31685 -1.482,6.422 0.0706,3.10514 0.70571,4.30485 1.19971,4.58714 0.14115,0.0706 1.27029,0.28228 3.17572,0.56457 0,0 0,0 0,0 v 0 c 6.77485,0.988 23.35914,2.89343 38.67314,2.04657 15.66685,-0.84686 21.87714,-2.18771 25.75856,-3.38743 1.55258,-0.494 2.964,-1.05857 4.23429,-1.62314 1.34086,0.28229 2.68171,0.56457 4.09314,0.91743 28.51086,5.928 53.06971,4.09314 68.17199,-4.23429 14.326,-7.904 20.748,-16.86657 24.13543,-20.18342 0.56457,-0.494 0.988,-0.84686 1.41143,-1.05857 1.41143,-0.56458 7.69228,-1.62315 10.51514,-2.04658 0.21171,0 0.21171,-1.05857 0.0706,-1.05857 z"
         id="path985"
         style="fill:#ffed00;stroke-width:0.705714" />
      <path
         class="st1"
         d="m 249.46953,217.71331 c 0,0 0.494,10.58572 7.83342,15.17286 4.51658,2.82286 12.20886,4.51657 20.32457,1.27028 6.98657,-2.82285 9.52714,-7.33942 9.52714,-7.33942 0,0 -9.31542,-5.64572 -18.98371,-7.69229 -8.11571,-1.69371 -18.70142,-1.41143 -18.70142,-1.41143 z"
         id="path987"
         style="fill:#93b2c2;stroke-width:0.705714" />
      <g
         id="g991"
         transform="matrix(0.7057142,0,0,0.7057142,126.88697,105.71647)">
        <path
           d="m 201.4,157.9 c 15.5,3.1 22.7,12 22.7,12 0,0 -4.1,6.4 -14.9,9.9 -8.2,2.7 -19,1.3 -25.5,-4.9 -5.6,-5.3 -6.9,-16.2 -6.9,-16.2 0,0 8.5,-4 24.6,-0.8 z"
           id="path989" />
      </g>
      <path
         class="st3"
         d="m 255.04467,218.63074 c 0,0 6.916,-1.55257 14.60828,0.42343 7.69229,1.976 12.91457,6.916 12.91457,6.916 0,0 -2.82285,3.24629 -7.41,2.18771 -4.51657,-0.988 -5.78685,-5.15171 -11.856,-7.55114 -4.93999,-2.04657 -8.25685,-1.976 -8.25685,-1.976 z"
         id="path993"
         style="fill:#354b54;stroke-width:0.705714" />
      <g
         id="g1003"
         transform="matrix(0.7057142,0,0,0.7057142,126.88697,105.71647)">
        <ellipse
           transform="matrix(0.9987,-0.05160845,0.05160845,0.9987,-9.7234,5.8569)"
           class="st1"
           cx="108.6"
           cy="191.2"
           rx="12.6"
           ry="10"
           id="ellipse995"
           style="fill:#93b2c2" />
        <g
           id="g999">
          <ellipse
             transform="matrix(0.9987,-0.05160845,0.05160845,0.9987,-9.7236,5.8549)"
             cx="108.5"
             cy="191.2"
             rx="9.5"
             ry="7.5"
             id="ellipse997" />
        </g>
        <path
           class="st3"
           d="m 102.3,188.2 c 0,0 3.5,-3.8 8.3,-2.7 6.1,1.4 5.7,5.7 5.7,5.7 0,0 -2,-2.3 -6.7,-3.3 -3.9,-0.9 -7.3,0.3 -7.3,0.3 z"
           id="path1001"
           style="fill:#354b54" />
      </g>
      <g
         id="g1013"
         transform="matrix(0.7057142,0,0,0.7057142,126.88697,105.71647)">
        <ellipse
           transform="matrix(0.9987,-0.05160845,0.05160845,0.9987,-9.6094,7.3268)"
           class="st1"
           cx="137.10001"
           cy="189.7"
           rx="12.6"
           ry="10"
           id="ellipse1005"
           style="fill:#93b2c2" />
        <g
           id="g1009">
          <ellipse
             transform="matrix(0.9987,-0.05160845,0.05160845,0.9987,-9.6095,7.3248)"
             cx="137"
             cy="189.7"
             rx="9.5"
             ry="7.5"
             id="ellipse1007" />
        </g>
        <path
           class="st3"
           d="m 130.8,186.7 c 0,0 3.5,-3.8 8.3,-2.7 6.1,1.4 5.7,5.7 5.7,5.7 0,0 -2,-2.3 -6.7,-3.3 -3.9,-0.9 -7.3,0.3 -7.3,0.3 z"
           id="path1011"
           style="fill:#354b54" />
      </g>
      <g
         id="g1023"
         transform="matrix(0.7057142,0,0,0.7057142,126.88697,105.71647)">
        <ellipse
           transform="matrix(0.9987,-0.05160845,0.05160845,0.9987,-9.4953,8.7966)"
           class="st1"
           cx="165.60001"
           cy="188.3"
           rx="12.6"
           ry="10"
           id="ellipse1015"
           style="fill:#93b2c2" />
        <g
           id="g1019">
          <ellipse
             transform="matrix(0.9987,-0.05160845,0.05160845,0.9987,-9.4955,8.7946)"
             cx="165.5"
             cy="188.3"
             rx="9.5"
             ry="7.5"
             id="ellipse1017" />
        </g>
        <path
           class="st3"
           d="m 159.4,185.2 c 0,0 3.5,-3.8 8.3,-2.7 6.1,1.4 5.7,5.7 5.7,5.7 0,0 -2,-2.3 -6.7,-3.3 -3.9,-0.8 -7.3,0.3 -7.3,0.3 z"
           id="path1021"
           style="fill:#354b54" />
      </g>
      <path
         class="st2"
         d="m 238.81324,223.14731 c 0,0 0,-26.88771 0,-29.42828 0,-2.54057 0.70572,-5.64571 4.51657,-6.84543 2.82286,-0.84685 8.398,-0.77628 8.398,-0.77628 v 9.10371 c 0,0 -4.16371,-0.35286 -5.57514,1.12914 -0.91743,0.91743 -0.84686,3.10515 -0.84686,3.10515 l 0.0706,22.58285 z"
         id="path1025"
         style="fill:#ffed00;stroke-width:0.705714" />
      <g
         id="g1041"
         transform="matrix(0.7057142,0,0,0.7057142,126.88697,105.71647)">
        <path
           class="st2"
           d="m 33.6,20.2 c 3.2,0 5,2.4 5,5.6 v 72.5 c 0,3.2 -1.8,5.6 -5,5.6 H 27 c -3.2,0 -5,-2.4 -5,-5.6 V 25.7 c 0,-3.2 1.8,-5.6 5,-5.6 h 6.6 z"
           id="path1027"
           style="fill:#ffed00" />
        <path
           class="st2"
           d="m 58.4,53.6 c 3.2,0 5,1.3 5,4.5 v 7.7 c 0,3.2 -1.8,4.5 -5,4.5 h -6.6 c -3.2,0 -5,-1.3 -5,-4.5 v -7.7 c 0,-3.2 1.8,-4.5 5,-4.5 z"
           id="path1029"
           style="fill:#ffed00" />
        <path
           class="st2"
           d="m 99.7,63.1 h 15.4 c 3.2,0 4.5,2.1 4.5,5.3 v 19.7 c 0,10.7 -5.5,15.7 -16.2,15.7 H 87.9 C 77.2,103.8 71,98.8 71,88.1 V 35.9 C 71,25.2 77.2,20.2 87.9,20.2 h 14.8 c 10.7,0 16.9,5 16.9,15.7 v 12.7 c 0,3.2 -1.3,5 -4.5,5 h -7.8 c -3.2,0 -4.6,-1.8 -4.6,-5 V 37 c 0,-3.2 -1.6,-6 -4.8,-6 H 92.7 C 89.5,31 88,33.8 88,37 v 50 c 0,3.2 1.5,6 4.7,6 h 6 c 3.2,0 4.8,-2.8 4.8,-6 v -9.6 c 0,-3.2 -0.5,-4.7 -3.7,-4.7 -4.3,0 -6.6,0 -6.6,-4.8 -0.1,-4.8 2.2,-4.8 6.5,-4.8 z"
           id="path1031"
           style="fill:#ffed00" />
        <path
           class="st2"
           d="m 138.9,53.6 c 3.2,0 5,1.3 5,4.5 v 7.7 c 0,3.2 -1.8,4.5 -5,4.5 h -6.6 c -3.2,0 -5,-1.3 -5,-4.5 v -7.7 c 0,-3.2 1.8,-4.5 5,-4.5 z"
           id="path1033"
           style="fill:#ffed00" />
        <path
           class="st2"
           d="m 183.1,20.2 c 3.2,0 4.8,0.9 4.8,4.1 v 2.6 c 0,3.2 -1.6,4.2 -4.8,4.2 h -9.7 c -3.2,0 -4.4,1.4 -4.4,4.6 v 16.4 c 0,3.2 1.6,4.7 4.8,4.7 h 5.9 c 3.2,0 4.1,0.9 4.1,4.1 v 2.6 c 0,3.2 -0.9,4.2 -4.1,4.2 h -5.9 c -3.2,0 -4.8,1.4 -4.8,4.6 v 16.3 c 0,3.2 1.2,4.7 4.4,4.7 h 9.7 c 3.2,0 4.8,0.9 4.8,4.1 v 2.7 c 0,3.2 -1.6,4.1 -4.8,4.1 h -25.5 c -3.2,0 -5.6,-2.4 -5.6,-5.6 V 25.7 c 0,-3.2 2.4,-5.6 5.6,-5.6 h 25.5 z"
           id="path1035"
           style="fill:#ffed00" />
        <path
           class="st2"
           d="m 203.9,53.6 c 3.2,0 5,1.3 5,4.5 v 7.7 c 0,3.2 -1.8,4.5 -5,4.5 h -6.6 c -3.2,0 -5,-1.3 -5,-4.5 v -7.7 c 0,-3.2 1.8,-4.5 5,-4.5 z"
           id="path1037"
           style="fill:#ffed00" />
        <path
           class="st2"
           d="m 234,98.3 c 0,3.2 -2,5.6 -5.2,5.6 h -6.6 c -3.2,0 -5,-2.4 -5,-5.6 V 25.7 c 0,-3.2 1.3,-5.6 4.5,-5.6 h 27.5 c 10.7,0 16.5,7.4 16.5,18.1 v 10.9 c 0,6.4 -3.2,13.5 -10.5,16.6 -0.4,0.2 -0.6,0.5 -0.6,0.9 0,0.6 0.3,1.3 0.6,1.9 l 11.9,29.7 c 0.3,0.8 0.5,1.5 0.5,2.2 0,2.1 -1.4,3.4 -3.4,3.4 h -6.6 c -4.3,0 -5.8,-2.2 -7.2,-5.6 L 238,68.2 c -0.4,-1 -1.3,-1.5 -2.1,-1.5 -0.9,0 -1.6,0.6 -1.6,1.7 z m 14.6,-50.2 v -8.8 c 0,-5.3 -2.9,-8.3 -8.2,-8.3 h -1.9 c -3.2,0 -4.5,2.5 -4.5,5.7 v 14.1 c 0,3.2 1.6,5.8 4.8,5.8 6,-0.1 9.8,-1.8 9.8,-8.5 z"
           id="path1039"
           style="fill:#ffed00" />
      </g>
    </g>
  </g>
</svg>
