<?xml version="1.0" encoding="UTF-8" standalone="no"?>
<!-- Created with Inkscape (http://www.inkscape.org/) -->

<svg
   width="1920"
   height="1080"
   viewBox="0 0 1920 1080"
   version="1.1"
   id="svg5"
   inkscape:version="1.2.1 (9c6d41e410, 2022-07-14, custom)"
   sodipodi:docname="intro.svg"
   xmlns:inkscape="http://www.inkscape.org/namespaces/inkscape"
   xmlns:sodipodi="http://sodipodi.sourceforge.net/DTD/sodipodi-0.dtd"
   xmlns="http://www.w3.org/2000/svg"
   xmlns:svg="http://www.w3.org/2000/svg">
  <sodipodi:namedview
     id="namedview7"
     pagecolor="#505050"
     bordercolor="#eeeeee"
     borderopacity="1"
     inkscape:showpageshadow="0"
     inkscape:pageopacity="0"
     inkscape:pagecheckerboard="0"
     inkscape:deskcolor="#505050"
     inkscape:document-units="mm"
     showgrid="false"
     inkscape:zoom="0.1646208"
     inkscape:cx="683.38872"
     inkscape:cy="832.2156"
     inkscape:window-width="1362"
     inkscape:window-height="721"
     inkscape:window-x="0"
     inkscape:window-y="22"
     inkscape:window-maximized="1"
     inkscape:current-layer="g13514"
     showguides="true" />
  <defs
     id="defs2">
    <rect
       x="116.87956"
       y="443.35153"
       width="553.79813"
       height="149.96553"
       id="rect13524" />
    <rect
       x="208.38227"
       y="779.76588"
       width="752.06454"
       height="107.24175"
       id="rect6436" />
    <rect
       x="213.07217"
       y="513.88606"
       width="753.0961"
       height="260.79167"
       id="rect6380" />
    <rect
       x="213.07217"
       y="513.88605"
       width="753.09613"
       height="260.79166"
       id="rect6380-4" />
    <rect
       x="208.38226"
       y="779.76587"
       width="752.06451"
       height="107.24175"
       id="rect6436-7" />
  </defs>
  <g
     inkscape:groupmode="layer"
     id="layer2"
     inkscape:label="background">
    <path
       id="rect3321"
       style="fill:#151821;stroke-width:1.88976;paint-order:stroke fill markers"
       d="M 0,0 H 1920 V 1080 H 0 Z"
       inkscape:label="background" />
    <g
       id="g13514"
       transform="translate(-66.508745,481.56922)"
       inkscape:label="stars">
      <path
         fill-rule="nonzero"
         fill="#ffffff"
         fill-opacity="1"
         d="m 1676.1248,474.81439 c 0,14.91147 -12.0937,27.00522 -27.0052,27.00522 -14.9167,0 -27.0052,-12.09375 -27.0052,-27.00522 0,-14.91666 12.0885,-27.00519 27.0052,-27.00519 14.9115,0 27.0052,12.08853 27.0052,27.00519"
         id="star00"
         style="stroke-width:1.33333"
         inkscape:label="star00" />
      <path
         fill-rule="nonzero"
         fill="#ffffff"
         fill-opacity="1"
         d="m 1841.2603,-139.29435 c 0,7.45833 -6.0469,13.5 -13.5052,13.5 -7.4584,0 -13.5,-6.04167 -13.5,-13.5 0,-7.45834 6.0416,-13.50522 13.5,-13.50522 7.4583,0 13.5052,6.04688 13.5052,13.50522"
         id="star01"
         style="stroke-width:1.33333"
         inkscape:label="star01" />
      <path
         fill-rule="nonzero"
         fill="#ffffff"
         fill-opacity="1"
         d="m 1659.0948,-168.97338 c 0,7.4582 -6.0469,13.5 -13.5052,13.5 -7.4584,0 -13.5,-6.0418 -13.5,-13.5 0,-7.4584 6.0416,-13.5052 13.5,-13.5052 7.4583,0 13.5052,6.0468 13.5052,13.5052"
         id="star02"
         style="stroke-width:1.33333"
         inkscape:label="star02" />
      <path
         fill-rule="nonzero"
         fill="#ffffff"
         fill-opacity="1"
         d="m 1430.5769,-398.14057 c 0,21.03126 -17.0521,38.08333 -38.0834,38.08333 -21.0312,0 -38.0833,-17.05207 -38.0833,-38.08333 0,-21.03126 17.0521,-38.08334 38.0833,-38.08334 21.0313,0 38.0834,17.05208 38.0834,38.08334"
         id="star03"
         style="stroke-width:1.33333"
         inkscape:label="star03" />
      <path
         fill-rule="nonzero"
         fill="#ffffff"
         fill-opacity="1"
         d="m 1193.8215,480.89709 c 0,11.026 -8.9427,19.9635 -19.9635,19.9635 -11.0261,0 -19.9636,-8.9375 -19.9636,-19.9635 0,-11.026 8.9375,-19.9636 19.9636,-19.9636 11.0208,0 19.9635,8.9376 19.9635,19.9636"
         id="star04"
         style="stroke-width:1.33333"
         inkscape:label="star04" />
      <path
         fill-rule="nonzero"
         fill="#ffffff"
         fill-opacity="1"
         d="m 1178.2272,58.778242 c 0,7.45833 -6.0468,13.50521 -13.4999,13.50521 -7.4582,0 -13.5052,-6.04688 -13.5052,-13.50521 0,-7.45312 6.047,-13.5 13.5052,-13.5 7.4531,0 13.4999,6.04688 13.4999,13.5"
         id="star05"
         style="stroke-width:1.33333"
         inkscape:label="star05" />
      <path
         fill-rule="nonzero"
         fill="#ffffff"
         fill-opacity="1"
         d="m 1095.2029,54.429303 c 0,11.02082 -8.9376,19.96354 -19.9636,19.96354 -11.026,0 -19.9634,-8.94272 -19.9634,-19.96354 0,-11.02604 8.9374,-19.96875 19.9634,-19.96875 11.026,0 19.9636,8.94271 19.9636,19.96875"
         id="star06"
         style="stroke-width:1.33333"
         inkscape:label="star06" />
      <path
         fill-rule="nonzero"
         fill="#ffffff"
         fill-opacity="1"
         d="m 1001.6732,-20.675179 c 0,11.0260402 -8.94272,19.96354022 -19.96352,19.96354022 -11.0261,0 -19.9688,-8.93750002 -19.9688,-19.96354022 0,-11.02604 8.9427,-19.96354 19.9688,-19.96354 11.0208,0 19.96352,8.9375 19.96352,19.96354"
         id="star07"
         style="stroke-width:1.33333"
         inkscape:label="star07" />
      <path
         fill-rule="nonzero"
         fill="#ffffff"
         fill-opacity="1"
         d="m 1037.5058,-80.701209 c 0,6.9323 -5.6145,12.5522 -12.5468,12.5522 -6.9271,0 -12.5468,-5.6199 -12.5468,-12.5522 0,-6.927 5.6197,-12.5469 12.5468,-12.5469 6.9323,0 12.5468,5.6199 12.5468,12.5469"
         id="star08"
         style="stroke-width:1.33333"
         inkscape:label="star08" />
      <path
         fill-rule="nonzero"
         fill="#ffffff"
         fill-opacity="1"
         d="m 813.81367,-192.02904 c 0,11.02084 -8.9427,19.96356 -19.9636,19.96356 -11.026,0 -19.9687,-8.94272 -19.9687,-19.96356 0,-11.02604 8.9427,-19.96875 19.9687,-19.96875 11.0209,0 19.9636,8.94271 19.9636,19.96875"
         id="star09"
         style="stroke-width:1.33333"
         inkscape:label="star09" />
      <path
         fill-rule="nonzero"
         fill="#ffffff"
         fill-opacity="1"
         d="m 604.0727,-254.83801 c 0,11.02604 -8.9427,19.96353 -19.9688,19.96353 -11.0208,0 -19.9635,-8.93749 -19.9635,-19.96353 0,-11.02604 8.9427,-19.96355 19.9635,-19.96355 11.0261,0 19.9688,8.93751 19.9688,19.96355"
         id="star10"
         style="stroke-width:1.33333"
         inkscape:label="star10" />
      <g
         id="conflicting"
         inkscape:label="conflicting">
        <path
           fill-rule="nonzero"
           fill="#ffffff"
           fill-opacity="1"
           d="m 636.65647,108.13234 c 0,6.93229 -5.6198,12.54688 -12.5521,12.54688 -6.9271,0 -12.5469,-5.61459 -12.5469,-12.54688 0,-6.93229 5.6198,-12.546858 12.5469,-12.546858 6.9323,0 12.5521,5.614558 12.5521,12.546858"
           id="star11"
           style="stroke-width:1.33333"
           inkscape:label="star11" />
      </g>
      <path
         fill-rule="nonzero"
         fill="#ffffff"
         fill-opacity="1"
         d="m 309.22551,-73.147235 c 0,6.93229 -5.6198,12.54688 -12.5521,12.54688 -6.9271,0 -12.5468,-5.61459 -12.5468,-12.54688 0,-6.9323 5.6197,-12.54688 12.5468,-12.54688 6.9323,0 12.5521,5.61458 12.5521,12.54688"
         id="star12"
         style="stroke-width:1.33333"
         inkscape:label="star12" />
    </g>
  </g>
  <g
     inkscape:label="foreground"
     inkscape:groupmode="layer"
     id="layer1">
    <g
       id="g20388"
       inkscape:label="logo">
      <path
         fill-rule="nonzero"
         fill="#ec008c"
         fill-opacity="1"
         d="M 287.69777,300.00173 H 112.29978 C 105.50575,300.00173 100,294.49355 100,287.69954 V 112.30218 C 100,105.50818 105.50575,100 112.29978,100 H 287.69777 C 294.4918,100 300,105.50818 300,112.30218 v 175.39736 c 0,6.79401 -5.5082,12.30219 -12.30223,12.30219"
         id="path4737"
         style="stroke-width:0.626986" />
      <path
         fill-rule="nonzero"
         fill="#151821"
         fill-opacity="1"
         d="m 190.68332,272.46815 c 0,5.93189 -4.80774,10.73716 -10.7372,10.73716 -5.92946,0 -10.7372,-4.80527 -10.7372,-10.73716 0,-5.92944 4.80774,-10.73471 10.7372,-10.73471 5.92946,0 10.7372,4.80527 10.7372,10.73471"
         id="path4739"
         style="stroke-width:0.626986" />
      <path
         fill-rule="nonzero"
         fill="#84a9b9"
         fill-opacity="1"
         d="m 187.29855,272.46815 c 0,4.06072 -3.29169,7.35486 -7.35243,7.35486 -4.06074,0 -7.35243,-3.29414 -7.35243,-7.35486 0,-4.06072 3.29169,-7.35241 7.35243,-7.35241 4.06074,0 7.35243,3.29169 7.35243,7.35241"
         id="path4741"
         style="stroke-width:0.626986" />
      <path
         fill-rule="nonzero"
         fill="#151821"
         fill-opacity="1"
         d="m 212.88513,272.46815 c 0,5.93189 -4.80774,10.73716 -10.7372,10.73716 -5.92946,0 -10.7372,-4.80527 -10.7372,-10.73716 0,-5.92944 4.80774,-10.73471 10.7372,-10.73471 5.92946,0 10.7372,4.80527 10.7372,10.73471"
         id="path4743"
         style="stroke-width:0.626986" />
      <path
         fill-rule="nonzero"
         fill="#84a9b9"
         fill-opacity="1"
         d="m 209.50036,272.46815 c 0,4.06072 -3.29169,7.35486 -7.35243,7.35486 -4.06075,0 -7.35244,-3.29414 -7.35244,-7.35486 0,-4.06072 3.29169,-7.35241 7.35244,-7.35241 4.06074,0 7.35243,3.29169 7.35243,7.35241"
         id="path4745"
         style="stroke-width:0.626986" />
      <path
         fill-rule="nonzero"
         fill="#151821"
         fill-opacity="1"
         d="m 252.56674,272.46815 c 0,5.93189 -4.80774,10.73716 -10.7372,10.73716 -5.92947,0 -10.7372,-4.80527 -10.7372,-10.73716 0,-5.92944 4.80773,-10.73471 10.7372,-10.73471 5.92946,0 10.7372,4.80527 10.7372,10.73471"
         id="path4747"
         style="stroke-width:0.626986" />
      <path
         fill-rule="nonzero"
         fill="#84a9b9"
         fill-opacity="1"
         d="m 249.18197,272.46815 c 0,4.06072 -3.29169,7.35486 -7.35243,7.35486 -4.06074,0 -7.35244,-3.29414 -7.35244,-7.35486 0,-4.06072 3.2917,-7.35241 7.35244,-7.35241 4.06074,0 7.35243,3.29169 7.35243,7.35241"
         id="path4749"
         style="stroke-width:0.626986" />
      <path
         fill-rule="nonzero"
         fill="#151821"
         fill-opacity="1"
         d="m 183.54886,272.46815 c 0,1.99117 -1.61401,3.60273 -3.60274,3.60273 -1.98873,0 -3.60274,-1.61156 -3.60274,-3.60273 v -7.35241 h 7.20548 z m 0,0"
         id="path4751"
         style="stroke-width:0.626986" />
      <path
         fill-rule="nonzero"
         fill="#151821"
         fill-opacity="1"
         d="m 205.75067,272.46815 c 0,1.99117 -1.61401,3.60273 -3.60274,3.60273 -1.98873,0 -3.60275,-1.61156 -3.60275,-3.60273 v -7.35241 h 7.20549 z m 0,0"
         id="path4753"
         style="stroke-width:0.626986" />
      <path
         fill-rule="nonzero"
         fill="#151821"
         fill-opacity="1"
         d="m 245.43228,272.46815 c 0,1.99117 -1.61402,3.60273 -3.60274,3.60273 -1.98874,0 -3.60274,-1.61156 -3.60274,-3.60273 v -7.35241 h 7.20548 z m 0,0"
         id="path4755"
         style="stroke-width:0.626986" />
      <path
         fill-rule="nonzero"
         fill="#fff200"
         fill-opacity="1"
         d="m 292.36591,240.25911 c -2.84595,-0.16165 -9.03258,-1.41318 -10.50698,-2.15037 -0.33064,-0.1641 -1.26378,-0.61475 -1.60912,-0.9111 -2.39039,-2.0475 -5.49351,-6.18905 -13.80112,-12.06706 -8.59173,-6.0764 -24.06564,-15.44692 -53.61744,-12.65732 -8.07005,0.7617 -15.83395,2.08669 -22.86064,3.60273 l -0.64169,-0.71515 c -1.94709,-2.30467 -10.92334,-12.19932 -24.42811,-15.66245 -17.20549,-4.41096 -40.43595,-2.88268 -47.69532,-1.82218 0,0 0.002,-0.002 0.002,-0.002 -0.18123,0.0269 -0.35023,0.0539 -0.50943,0.0784 -0.0343,0.005 -0.0637,0.01 -0.098,0.0171 -0.19594,0.0318 -0.37963,0.0637 -0.54617,0.0931 -0.0122,0.002 -0.0269,0.005 -0.0392,0.007 -0.16655,0.0318 -0.31105,0.0637 -0.44086,0.0931 -0.0245,0.005 -0.0514,0.01 -0.0735,0.0171 -0.12001,0.0269 -0.22287,0.0539 -0.3037,0.0808 -0.0171,0.005 -0.0269,0.01 -0.0416,0.0147 -0.0784,0.0269 -0.14205,0.0514 -0.17879,0.0759 -1.29072,0.83517 -1.25398,4.70976 -1.25398,6.74012 0,2.03281 0.33308,5.53758 1.54788,6.76461 0.52412,0.52902 21.90546,-1.65809 32.31937,4.21747 0.46534,0.26207 0.8964,0.52413 1.32991,0.78374 5.90006,3.61008 8.00146,6.92625 8.74846,8.78518 -0.867,0.69066 -2.67206,3.56599 -2.67206,15.57427 0,6.42663 0.26941,10.69798 0.61965,13.54636 -1.6287,0.42616 -3.39211,0.84987 -5.31227,1.25888 -10.59025,2.25813 -27.46264,2.96595 -34.52853,3.17167 -1.58462,0.0416 -3.28435,0.0759 -3.28435,0.0759 -0.96743,0.21553 -1.53319,3.32352 -1.45237,6.42907 0.0808,3.108 0.72496,4.28605 1.2099,4.60934 0.10776,0.0686 1.23683,0.289 3.13985,0.57556 0.002,0 0.005,0 0.005,0 6.77688,1.0213 23.36028,2.90961 38.69949,2.07934 15.69435,-0.85231 21.84423,-2.16997 25.76537,-3.36271 1.56992,-0.48003 2.97575,-1.02865 4.22239,-1.64339 1.31765,0.29145 2.6843,0.5878 4.10727,0.88415 28.47171,5.94658 53.07126,4.07297 68.14107,-4.23461 14.31056,-7.89124 20.72006,-16.85765 24.11952,-20.16158 0.52902,-0.51677 0.98946,-0.8768 1.39113,-1.04335 1.43768,-0.5878 7.68063,-1.65074 10.53393,-2.02791 0.1347,-0.0196 0.12736,-1.10703 -0.007,-1.11437"
         id="path4757"
         style="stroke-width:0.626986" />
      <path
         fill-rule="nonzero"
         fill="#84a9b9"
         fill-opacity="1"
         d="m 222.54225,211.96873 c 0,0 0.48004,10.59022 7.81288,15.16527 4.53588,2.82879 12.17732,4.53587 20.31105,1.30541 7.0169,-2.78716 9.51506,-7.35731 9.51506,-7.35731 0,0 -9.33872,-5.67473 -18.9542,-7.70999 -8.09454,-1.71442 -18.68479,-1.40338 -18.68479,-1.40338"
         id="path4759"
         style="stroke-width:0.626986" />
      <path
         fill-rule="nonzero"
         fill="#151821"
         fill-opacity="1"
         d="m 242.12834,211.42012 c 10.92824,2.16507 16.02498,8.48638 16.02498,8.48638 0,0 -2.91208,4.47953 -10.51678,6.96299 -5.78986,1.89076 -13.39456,0.89395 -18.00147,-3.49252 -3.92603,-3.73743 -4.88611,-11.43028 -4.88611,-11.43028 0,0 5.97599,-2.78716 17.37938,-0.52657"
         id="path4761"
         style="stroke-width:0.626986" />
      <path
         fill-rule="nonzero"
         fill="#2f404c"
         fill-opacity="1"
         d="m 228.14352,212.88717 c 0,0 6.92383,-1.57726 14.60201,0.38942 7.67818,1.96913 12.89983,6.88462 12.89983,6.88462 0,0 -2.83615,3.22556 -7.41367,2.19446 -4.54078,-1.02131 -5.78006,-5.12367 -11.87852,-7.56549 -4.91305,-1.96669 -8.20965,-1.90301 -8.20965,-1.90301"
         id="path4763"
         style="stroke-width:0.626986" />
      <path
         fill-rule="nonzero"
         fill="#84a9b9"
         fill-opacity="1"
         d="m 185.43963,234.45213 c 0.20083,3.90152 -3.59785,7.26913 -8.48641,7.52139 -4.88856,0.25227 -9.01543,-2.70388 -9.21627,-6.60541 -0.20327,-3.90152 3.59786,-7.26669 8.48642,-7.51895 4.88856,-0.25472 9.01542,2.70388 9.21626,6.60297"
         id="path4765"
         style="stroke-width:0.626986" />
      <path
         fill-rule="nonzero"
         fill="#151821"
         fill-opacity="1"
         d="m 183.22068,234.56723 c 0.15184,2.93656 -2.7088,5.469 -6.38502,5.66004 -3.67866,0.18859 -6.78423,-2.03526 -6.93608,-4.97182 -0.15184,-2.93411 2.70635,-5.46655 6.38502,-5.65758 3.67866,-0.19104 6.78423,2.03526 6.93608,4.96936"
         id="path4767"
         style="stroke-width:0.626986" />
      <path
         fill-rule="nonzero"
         fill="#2f404c"
         fill-opacity="1"
         d="m 172.19201,232.77689 c 0,0 2.45653,-2.70144 5.8315,-1.91281 4.33015,1.01397 3.99951,4.00685 3.99951,4.00685 0,0 -1.43032,-1.64584 -4.7514,-2.3561 -2.68186,-0.57311 -5.07961,0.26206 -5.07961,0.26206"
         id="path4769"
         style="stroke-width:0.626986" />
      <path
         fill-rule="nonzero"
         fill="#84a9b9"
         fill-opacity="1"
         d="m 205.55963,233.41367 c 0.20328,3.90153 -3.59539,7.26669 -8.48395,7.51896 -4.89101,0.25471 -9.01543,-2.70389 -9.21871,-6.60541 -0.20083,-3.89909 3.59784,-7.2667 8.48885,-7.51896 4.88612,-0.25226 9.01298,2.70388 9.21381,6.60541"
         id="path4771"
         style="stroke-width:0.626986" />
      <path
         fill-rule="nonzero"
         fill="#151821"
         fill-opacity="1"
         d="m 203.34068,233.52878 c 0.15185,2.93411 -2.70635,5.46655 -6.38501,5.65759 -3.67866,0.19104 -6.78178,-2.03526 -6.93363,-4.96936 -0.15184,-2.93656 2.70634,-5.46901 6.38501,-5.66004 3.67867,-0.18859 6.78178,2.03526 6.93363,4.97181"
         id="path4773"
         style="stroke-width:0.626986" />
      <path
         fill-rule="nonzero"
         fill="#2f404c"
         fill-opacity="1"
         d="m 192.31447,231.736 c 0,0 2.45653,-2.70144 5.83149,-1.91036 4.33016,1.0115 3.99952,4.00439 3.99952,4.00439 0,0 -1.43032,-1.64584 -4.7514,-2.3561 -2.68186,-0.57311 -5.07961,0.26207 -5.07961,0.26207"
         id="path4775"
         style="stroke-width:0.626986" />
      <path
         fill-rule="nonzero"
         fill="#84a9b9"
         fill-opacity="1"
         d="m 225.6821,232.37278 c 0.20083,3.90153 -3.59785,7.26913 -8.48641,7.5214 -4.88857,0.25227 -9.01543,-2.70633 -9.21626,-6.60541 -0.20083,-3.90153 3.59784,-7.2667 8.4864,-7.52141 4.88857,-0.25226 9.01543,2.70634 9.21627,6.60542"
         id="path4777"
         style="stroke-width:0.626986" />
      <path
         fill-rule="nonzero"
         fill="#151821"
         fill-opacity="1"
         d="m 223.46314,232.48788 c 0.15185,2.93656 -2.70634,5.46901 -6.38501,5.66004 -3.67867,0.18859 -6.78423,-2.03526 -6.93608,-4.97182 -0.15185,-2.93411 2.70879,-5.46655 6.38746,-5.65758 3.67622,-0.19103 6.78178,2.03526 6.93363,4.96936"
         id="path4779"
         style="stroke-width:0.626986" />
      <path
         fill-rule="nonzero"
         fill="#2f404c"
         fill-opacity="1"
         d="m 212.43693,230.69754 c 0,0 2.45653,-2.70143 5.82905,-1.9128 4.33015,1.01396 3.99951,4.00684 3.99951,4.00684 0,0 -1.43032,-1.64584 -4.75141,-2.3561 -2.6794,-0.57311 -5.07715,0.26206 -5.07715,0.26206"
         id="path4781"
         style="stroke-width:0.626986" />
      <path
         fill-rule="nonzero"
         fill="#fff200"
         fill-opacity="1"
         d="m 116.14254,168.74333 c -1.07029,0 -1.91525,-0.84252 -1.91525,-1.91526 v -49.77939 c 0,-1.07274 0.84496,-1.91525 1.91525,-1.91525 h 8.04311 c 1.07029,0 1.91281,0.84251 1.91281,1.91525 v 49.77939 c 0,1.07274 -0.84252,1.91526 -1.91281,1.91526 z m 0,0"
         id="path4783"
         style="stroke-width:0.626986" />
      <path
         fill-rule="nonzero"
         fill="#fff200"
         fill-opacity="1"
         d="m 132.60838,148.98341 c -1.07275,0 -1.91526,-0.84251 -1.91526,-1.91525 v -10.33795 c 0,-1.07274 0.84251,-1.91525 1.91526,-1.91525 h 8.80725 c 1.07274,0 1.91525,0.84251 1.91525,1.91525 v 10.33795 c 0,1.07274 -0.84251,1.91525 -1.91525,1.91525 z m 0,0"
         id="path4785"
         style="stroke-width:0.626986" />
      <path
         fill-rule="nonzero"
         fill="#fff200"
         fill-opacity="1"
         d="m 153.59294,168.74333 c -3.13984,0 -5.74332,-2.60348 -5.74332,-5.74331 v -42.12329 c 0,-3.13984 2.60348,-5.7433 5.74332,-5.7433 h 21.2148 c 3.13985,0 5.74332,2.60346 5.74332,5.7433 v 6.66419 c 0,1.14866 -0.68821,2.21895 -1.76095,2.6794 l -8.34681,3.44598 c -0.84252,0.38207 -1.76341,-0.23022 -1.76341,-1.14867 v -6.35559 c 0,-0.23022 -0.15185,-0.38452 -0.38207,-0.38452 h -8.19496 c -0.23021,0 -0.38206,0.1543 -0.38206,0.38452 v 31.55266 c 0,0.23023 0.15185,0.38208 0.38206,0.38208 h 9.41955 c 0.23023,0 0.38452,-0.15185 0.38452,-0.38208 v -7.88877 c 0,-0.23023 -0.15429,-0.38207 -0.38452,-0.38207 h -5.13103 c -0.91844,0 -1.53074,-0.91844 -1.22459,-1.76096 l 2.988,-7.12218 c 0.38207,-1.07274 1.45236,-1.76341 2.60347,-1.76341 h 10.72251 c 1.07029,0 1.91281,0.84252 1.91281,1.91525 v 22.28746 c 0,3.13983 -2.60347,5.74331 -5.74332,5.74331 z m 0,0"
         id="path4787"
         style="stroke-width:0.626986" />
      <path
         fill-rule="nonzero"
         fill="#fff200"
         fill-opacity="1"
         d="m 187.29121,148.98341 c -1.07274,0 -1.91526,-0.84251 -1.91526,-1.91525 v -10.33795 c 0,-1.07274 0.84252,-1.91525 1.91526,-1.91525 h 8.80725 c 1.07274,0 1.91525,0.84251 1.91525,1.91525 v 10.33795 c 0,1.07274 -0.84251,1.91525 -1.91525,1.91525 z m 0,0"
         id="path4789"
         style="stroke-width:0.626986" />
      <path
         fill-rule="nonzero"
         fill="#fff200"
         fill-opacity="1"
         d="m 204.52363,168.74333 c -1.07274,0 -1.91526,-0.84252 -1.91526,-1.91526 v -49.77939 c 0,-1.07274 0.84252,-1.91525 1.91526,-1.91525 h 26.1156 c 1.07275,0 1.91526,0.84251 1.91526,1.91525 v 6.81604 c 0,1.07028 -0.84251,1.9128 -1.91526,1.9128 h -15.77761 c -0.22777,0 -0.38207,0.1543 -0.38207,0.38452 v 10.41388 c 0,0.23022 0.1543,0.38451 0.38207,0.38451 h 11.02865 c 1.07274,0 1.91526,0.84252 1.91526,1.91281 v 6.0519 c 0,1.07273 -0.84252,1.91525 -1.91526,1.91525 h -11.02865 c -0.22777,0 -0.38207,0.15185 -0.38207,0.38207 v 10.49224 c 0,0.23023 0.1543,0.38208 0.38207,0.38208 h 15.77761 c 1.07275,0 1.91526,0.84251 1.91526,1.91525 v 6.81604 c 0,1.07274 -0.84251,1.91526 -1.91526,1.91526 z m 0,0"
         id="path4791"
         style="stroke-width:0.626986" />
      <path
         fill-rule="nonzero"
         fill="#fff200"
         fill-opacity="1"
         d="m 237.37937,148.98341 c -1.07273,0 -1.91525,-0.84251 -1.91525,-1.91525 v -10.33795 c 0,-1.07274 0.84252,-1.91525 1.91525,-1.91525 h 8.80726 c 1.07274,0 1.91526,0.84251 1.91526,1.91525 v 10.33795 c 0,1.07274 -0.84252,1.91525 -1.91526,1.91525 z m 0,0"
         id="path4793"
         style="stroke-width:0.626986" />
      <path
         fill-rule="nonzero"
         fill="#fff200"
         fill-opacity="1"
         d="m 264.94979,125.77752 c -0.23023,0 -0.38208,0.1543 -0.38208,0.38452 v 11.87113 c 0,0.22777 0.15185,0.38207 0.38208,0.38207 h 10.26207 c 0.23021,0 0.38451,-0.1543 0.38451,-0.38207 v -11.87113 c 0,-0.23022 -0.1543,-0.38452 -0.38451,-0.38452 z m -10.34044,42.96581 c -1.07029,0 -1.91281,-0.84252 -1.91281,-1.91526 v -49.77939 c 0,-1.07274 0.84252,-1.91525 1.91281,-1.91525 h 26.73035 c 3.13985,0 5.74333,2.60346 5.74333,5.7433 v 22.4393 c 0,3.13984 -2.60348,5.7433 -5.74333,5.7433 h -1.37888 c -0.15431,0 -0.30616,0.15431 -0.23023,0.3086 l 9.57384,17.69036 c 0.46045,0.76659 -0.15185,1.68504 -0.99681,1.68504 h -8.57703 c -1.14867,0 -2.29733,-0.68823 -2.8337,-1.68504 l -9.57384,-17.69036 c -0.0759,-0.15429 -0.30616,-0.3086 -0.53393,-0.3086 h -1.83933 c -0.23023,0 -0.38208,0.15431 -0.38208,0.38453 v 17.38421 c 0,1.07274 -0.84251,1.91526 -1.91525,1.91526 z m 0,0"
         id="path4795"
         style="stroke-width:0.626986" />
      <path
         fill-rule="nonzero"
         fill="#fff200"
         fill-opacity="1"
         d="m 211.86872,217.42304 v -29.45618 c 0,-2.54469 0.72495,-5.66738 4.49914,-6.84543 2.79452,-0.87191 8.3811,-0.7519 8.3811,-0.7519 v 9.08398 c 0,0 -4.13666,-0.36248 -5.55474,1.09723 -0.88415,0.91109 -0.81313,3.12024 -0.81313,3.12024 l 0.0637,22.58626 z m 0,0"
         id="path4797"
         style="stroke-width:0.626986" />
    </g>
    <g
       id="g22032"
       inkscape:label="fairydust"
       transform="translate(-3301.9769,507.44474)">
      <path
         fill-rule="nonzero"
         fill="#fff200"
         fill-opacity="1"
         d="m 744.99609,418.33203 c 0,0 -81.79687,184.11719 -537.05468,317.47266 -289.199222,84.71093 -322.82422,282.84761 -269.605472,434.25391 45.683593,129.9609 173.097652,251.7578 407.289062,270.6094 434.01562,34.9375 876.8867,-261.0274 876.8867,-261.0274 0,0 -528.15233,188.4063 -772.32811,30.5313 -142.875,-92.375 -131.76953,-281.03518 37.97266,-401.91018 C 762.49219,612.91016 744.99609,418.33203 744.99609,418.33203"
         id="path4429"
         transform="matrix(1.3333333,0,0,1.3333333,3592.1926,-459.87664)" />
      <path
         fill-rule="nonzero"
         fill="#00a870"
         fill-opacity="1"
         d="m 4726.6978,-0.89228191 c 0,0 16.8021,49.79166991 0.9948,109.09375191 -20.8073,78.04688 -78.1563,174.48437 -82.6302,177.89583 -4.5052,3.4375 -14.9688,-1.85417 -20.4948,-4.5625 -5.5209,-2.70312 -14.474,-8.54167 -15.7136,-14.46354 -0.5312,-2.55729 42.3698,-75.0625 44.3959,-119.61979 2.0156,-44.22396 -9.0938,-57.979162 -9.0938,-57.979162 z m 0,0"
         id="path4471"
         style="stroke-width:1.33333" />
      <path
         fill-rule="nonzero"
         fill="#00a870"
         fill-opacity="1"
         d="m 4437.4634,171.1598 c -2.5938,5.28647 -13.1615,1.36459 -21.7396,-2.83853 -8.9687,-4.39584 -10.5989,-10.10938 -10.6198,-12.53647 -0.016,-2.42708 34.8646,-99.927082 81.1406,-157.3593719 39.5834,-49.1302001 61.5678,-58.5520801 61.5678,-58.5520801 l -8.6355,97.70833 c 0,0 -36.2083,25.48438 -56.8333,55.96355 -21.9062,32.375002 -44.8802,77.614572 -44.8802,77.614572"
         id="path4473"
         style="stroke-width:1.33333" />
      <path
         fill-rule="nonzero"
         fill="#fff200"
         fill-opacity="1"
         d="m 4651.5988,81.321268 -7.4479,8.15104 c 0,0 11.1146,13.755202 9.099,57.984372 -2.0261,44.55729 -44.9271,117.05729 -44.3959,119.61458 1.2396,5.92187 10.1927,11.76042 15.7188,14.46354 5.5208,2.70833 15.9844,8 20.4896,4.5625 0.6614,-0.5 2.4739,-3.03125 5.151,-7.23437 0,0 -10.224,1.06249 -20.5729,-4.42709 -10.349,-5.49479 -12.3281,-8.33334 -10.8386,-12.22916 1.4896,-3.89584 34.8698,-65.70312 40.849,-102.625 5.3906,-33.29166 -0.349,-57.63021 -4.5208,-69.703122 0,0 25.9062,-27.77084 41.4322,-46.4375 17.724,-21.3073 31.2605,-40.3697899 31.2605,-40.3697899 l -1.125,-3.96355001 z m 0,0"
         id="path4475"
         style="stroke-width:1.33333" />
      <path
         fill-rule="nonzero"
         fill="#fff200"
         fill-opacity="1"
         d="m 4407.979,147.04001 c -1.8802,5.20312 -2.875,8.33334 -2.875,8.74479 0.021,2.42709 1.6511,8.14063 10.6198,12.53647 8.5781,4.20312 19.1458,8.125 21.7396,2.83853 0,0 22.974,-45.23957 44.8802,-77.614572 20.625,-30.47917 56.8333,-55.95833 56.8333,-55.95833 l 0.9323,-10.5 c 0,0 -36.1823,20.51041 -60.7656,56.3177 -24.9792,36.385422 -43.9635,78.802082 -45.474,80.166672 -1.5052,1.36457 -6.5885,0.59896 -12.0104,-2.09896 -12.1302,-6.03647 -13.8802,-14.4323 -13.8802,-14.4323"
         id="path4477"
         style="stroke-width:1.33333" />
      <path
         fill-rule="nonzero"
         fill="#bdd3dc"
         fill-opacity="1"
         d="m 4784.1249,-349.77768 c 2.5937,-0.92709 4.5572,-1.86979 5.7656,-2.94792 4.3281,-3.84375 18.9844,-25.59896 24.9218,-34.52604 0.2813,-0.42708 0.9323,-0.0781 0.7396,0.39063 -4.1302,9.79166 -13.9218,33.6927 -13.8698,39.83333 0.011,1.375 -0.016,5.24479 0.4063,6.88541 -5.724,-4.26562 -11.6667,-7.1302 -17.9635,-9.63541"
         id="path4479"
         style="stroke-width:1.33333" />
      <path
         fill-rule="nonzero"
         fill="#00a870"
         fill-opacity="1"
         d="m 4674.0832,-303.56414 c 49.8854,-34.96875 93.401,-40.25521 110.0417,-46.21354 6.2968,2.50521 12.2395,5.36979 17.9635,9.63541 2.9375,11.35938 14.6927,29.9948 20.7396,67.45312 6.25,38.72396 12.2396,105.91147 -45.5781,200.260418 -57.375,93.625 -133.0938,161.90104 -133.0938,161.90104 0,0 -5.1302,10.46353 -58,-15.43751 -60.8489,-29.8177 -60.6406,-38.71353 -60.6406,-38.71353 0,0 2.5364,-38.9843699 22.6146,-117.71876 26.7916,-105.067698 73.4166,-184.348938 125.9531,-221.166648"
         id="path4481"
         style="stroke-width:1.33333" />
      <path
         fill-rule="nonzero"
         fill="#fff200"
         fill-opacity="1"
         d="m 4526.9426,22.076468 c -1.1407,8.83855 -1.4323,13.2448 -1.4323,13.2448 0,0 -0.2031,8.89583 60.6458,38.71353 52.8698,25.90104 58,15.43751 58,15.43751 0,0 3.2656,-2.94271 8.9531,-8.45313 0,0 -5.4375,6.64584 -24.5208,0.89584 -19.0833,-5.75 -55.4062,-21.60418 -78.5729,-35.97918 -23.1667,-14.36978 -23.0729,-23.85937 -23.0729,-23.85937"
         id="path4483"
         style="stroke-width:1.33333" />
      <path
         fill-rule="nonzero"
         fill="#fff200"
         fill-opacity="1"
         d="m 4789.078,-344.71518 c 0,0 -21.1823,10.83333 -31.9896,21.96354 -10.8021,11.125 -20.2344,24.8177 -20.2344,24.8177 l 15.6406,6.21355 c 0,0 4.8698,-10.33333 14.7032,-25.27084 9.3333,-14.17708 21.8802,-27.72395 21.8802,-27.72395"
         id="path4485"
         style="stroke-width:1.33333" />
      <path
         fill-rule="nonzero"
         fill="#fff200"
         fill-opacity="1"
         d="m 4687.104,-183.62143 c 0,0 -17.125,27.51561 -29.1458,49.8229 -20.5938,38.208338 -36.6615,73.640628 -36.6615,73.640628 0,0 9.4427,-39.18749 25.3282,-80.270818 10.1979,-26.3698 24.5416,-51.00522 24.5416,-51.00522 z m 0,0"
         id="path4487"
         style="stroke-width:1.33333" />
      <path
         fill-rule="nonzero"
         fill="#fff200"
         fill-opacity="1"
         d="m 4588.8801,60.128558 c 0,0 34.5156,-29.17188 45.75,-51.6979199 14.901,-29.8645801 15.5,-58.8229101 -5.8855,-73.6875001 -20.5364,-14.27604 -42.1822,-0.83853 -51.1927,10.42709 -23.0364,28.8125 -39.3073,66.03124 -39.3073,66.03124 z m 0,0"
         id="path4489"
         style="stroke-width:1.33333" />
      <path
         fill-rule="nonzero"
         fill="#00a870"
         fill-opacity="1"
         d="m 4460.354,256.83689 c -2.5625,3.57812 -13.0989,1.23438 -22.3646,-3.70313 -9.2604,-4.94271 -11.5677,-9.28645 -11.5833,-11.72396 -0.011,-2.43749 38.0313,-100.6302 77.7604,-171.020822 34.6354,-61.3593799 50.0209,-85.96355 60.6615,-100.67188 19.0729,-26.35937 38.6823,-39.23959 56.9166,-28.92187 23.1146,13.08334 16.6615,56.7656101 -1.9166,81.91145 -13.3438,18.0573 -30.7344,34.01042 -69.6667,89.161462 -35.8229,50.74999 -89.8073,144.96875 -89.8073,144.96875"
         id="path4491"
         style="stroke-width:1.33333" />
      <path
         fill-rule="nonzero"
         fill="#fff200"
         fill-opacity="1"
         d="m 4430.5363,229.80564 c -2.6614,6.94271 -4.1302,11.125 -4.1302,11.60416 0.016,2.43751 2.3229,6.77604 11.5885,11.71876 9.2605,4.94271 19.7969,7.28645 22.3594,3.70833 0,0 2.1927,-3.82813 5.9844,-10.34896 0,0 -8.776,5.98438 -23.7656,-1.59376 -14.4011,-7.28124 -12.0365,-15.08853 -12.0365,-15.08853"
         id="path4493"
         style="stroke-width:1.33333" />
      <path
         fill-rule="nonzero"
         fill="#151821"
         fill-opacity="1"
         d="m 4734.6457,-167.13186 c -8.2292,0 -16.474,-1.18229 -24.5156,-3.5052 -48.4011,-13.9948 -65.3698,-36.95833 -71.0729,-53.76042 -3.9948,-11.76562 -2.9219,-24.07812 3.1041,-35.60938 8.599,-16.43229 26.9948,-30.73957 46.875,-36.4427 8.7083,-2.5 16.901,-3.71354 25.0469,-3.71354 18.6094,0 36.8281,6.63542 54.1458,19.72395 16.849,12.72917 26.724,29.05209 28.5521,47.19792 1.3854,13.72396 -1.9219,28.56771 -9.0729,40.71875 -9.2031,15.66146 -29.5417,25.39062 -53.0625,25.39062 z m 0,0"
         id="path4495"
         style="stroke-width:1.33333" />
      <path
         fill-rule="nonzero"
         fill="#bdd3dc"
         fill-opacity="1"
         d="m 4714.0832,-303.41831 c -8.4531,0 -16.9375,1.25521 -25.9427,3.83855 -20.6979,5.9427 -39.875,20.8802 -48.8594,38.06249 -6.4531,12.33855 -7.5937,25.53645 -3.3073,38.16667 5.9584,17.53125 23.5,41.45833 73.25,55.83854 8.3385,2.41146 16.8854,3.6302 25.4219,3.6302 24.6719,0 46.0781,-10.33853 55.8698,-26.98957 7.4896,-12.73959 10.9531,-28.30209 9.5052,-42.69792 -1.9271,-19.06771 -12.2396,-36.17188 -29.8281,-49.46875 -17.8959,-13.52084 -36.7761,-20.38021 -56.1094,-20.38021 m 0,6.50521 c 15.4844,0 33.1354,4.67187 52.1875,19.06771 36.5052,27.58853 30.0156,64.32812 18.6354,83.67708 -8.8385,15.03125 -28.4062,23.78125 -50.2604,23.78125 -7.7084,0 -15.7031,-1.08854 -23.6146,-3.375 -40.9479,-11.83854 -61.9271,-31.17188 -68.8958,-51.68229 -10.9427,-32.21355 20.7916,-60.125 47.7968,-67.88021 7.2657,-2.08334 15.3594,-3.58854 24.1511,-3.58854"
         id="path4497"
         style="stroke-width:1.33333" />
      <path
         fill-rule="nonzero"
         fill="#2f404c"
         fill-opacity="1"
         d="m 4772.4478,-256.38706 c -8.1042,-10.8125 -21.9896,-24.91146 -49.3542,-29.07813 -27.3646,-4.16667 -48.2656,6.69271 -60.1719,18.89584 -15.4114,15.79167 -10.5937,31.97916 -10.5937,31.97916 0,0 17.2916,-21.27604 63.0833,-19.57812 43.2031,1.60416 66.1094,26.41667 66.1094,26.41667 0,0 1.4219,-14.63542 -9.0729,-28.63542"
         id="path4499"
         style="stroke-width:1.33333" />
      <path
         fill-rule="nonzero"
         fill="#ffffff"
         fill-opacity="1"
         d="m 4540.1092,228.10251 c 0,0 -45.2604,152.86458 -288.9427,331.44271 -201.0052,147.30212 -267.7656,179.44272 -296.526,339.90622 -28.7605,160.46356 70.3593,296.84366 234.2708,355.43226 277.4271,99.1666 710.7552,-25.3334 710.7552,-25.3334 0,0 -532.6875,229.474 -839.3958,78.0104 -252.7865,-124.8385 -268.0573,-330.45816 -191.3959,-483.27596 53.2448,-106.1458 189.6146,-196.3437 323.7709,-274.73432 304.1458,-177.71353 347.4635,-321.44791 347.4635,-321.44791"
         id="path4501"
         style="stroke-width:1.33333" />
      <path
         fill-rule="nonzero"
         fill="#ffffff"
         fill-opacity="1"
         d="m 3631.6509,1061.566 c 0,0 45.2969,115.9583 150.3854,202.927 131.4635,108.7969 230.1094,144.948 230.1094,144.948 0,0 -134.5417,-32.0625 -235.0365,-100.6927 -156.3281,-106.7657 -145.4583,-247.1823 -145.4583,-247.1823"
         id="path4503"
         style="stroke-width:1.33333" />
    </g>
  </g>
  <g
     inkscape:groupmode="layer"
     id="layer3"
     inkscape:label="text"
     style="display:inline">
    <rect
       style="fill:none;fill-opacity:1;stroke:none;stroke-width:1.88976;paint-order:stroke fill markers"
       id="rect15305"
       width="750"
       height="250"
       x="100"
       y="500" />
    <rect
       style="fill:none;fill-opacity:1;stroke:none;stroke-width:1.88976;paint-order:stroke fill markers"
       id="rect15307"
       width="750"
       height="100"
       x="100"
       y="750" />
    <text
       xml:space="preserve"
       id="title"
       style="font-weight:bold;font-size:72px;line-height:1.25;font-family:'Noto Sans';-inkscape-font-specification:'Noto Sans Bold';letter-spacing:0px;word-spacing:0px;white-space:pre;shape-inside:url(#rect6380-4);display:inline;fill:#fff200;fill-opacity:1"
       transform="translate(-116.16827,-24.677732)"
       inkscape:label="title"><tspan
         x="213.07227"
         y="579.39773"
         id="tspan27538">$title</tspan></text>
    <text
       xml:space="preserve"
       id="persons"
       style="font-weight:bold;font-size:48px;line-height:1.25;font-family:'Noto Sans';-inkscape-font-specification:'Noto Sans Bold';letter-spacing:0px;word-spacing:0px;white-space:pre;shape-inside:url(#rect6436-7);display:inline;fill:#ffffff;fill-opacity:1"
       transform="translate(-110.44681,-37.007634)"
       inkscape:label="persons"><tspan
         x="208.38281"
         y="823.43963"
         id="tspan27540">$persons</tspan></text>
  </g>
</svg>
