<?xml version="1.0" encoding="UTF-8" standalone="no"?>
<!-- Created with Inkscape (http://www.inkscape.org/) -->

<svg
   width="1920"
   height="1080"
   viewBox="0 0 1920 1080"
   version="1.1"
   id="svg5"
   inkscape:version="1.2.2 (b0a8486541, 2022-12-01)"
   sodipodi:docname="outro.svg"
   xml:space="preserve"
   xmlns:inkscape="http://www.inkscape.org/namespaces/inkscape"
   xmlns:sodipodi="http://sodipodi.sourceforge.net/DTD/sodipodi-0.dtd"
   xmlns="http://www.w3.org/2000/svg"
   xmlns:svg="http://www.w3.org/2000/svg"><sodipodi:namedview
     id="namedview7"
     pagecolor="#505050"
     bordercolor="#eeeeee"
     borderopacity="1"
     inkscape:showpageshadow="0"
     inkscape:pageopacity="0"
     inkscape:pagecheckerboard="0"
     inkscape:deskcolor="#505050"
     inkscape:document-units="mm"
     showgrid="false"
     inkscape:zoom="0.31352745"
     inkscape:cx="897.84802"
     inkscape:cy="421.01577"
     inkscape:window-width="1362"
     inkscape:window-height="721"
     inkscape:window-x="0"
     inkscape:window-y="22"
     inkscape:window-maximized="1"
     inkscape:current-layer="g13514" /><defs
     id="defs2"><rect
       x="116.87956"
       y="443.35153"
       width="553.79813"
       height="149.96553"
       id="rect13524" /><rect
       x="208.38227"
       y="779.76588"
       width="752.06454"
       height="107.24175"
       id="rect6436" /><rect
       x="213.07217"
       y="513.88606"
       width="753.0961"
       height="260.79167"
       id="rect6380" /></defs><g
     inkscape:groupmode="layer"
     id="layer2"
     inkscape:label="background"><path
       id="rect3321"
       style="fill:#151821;stroke-width:1.88976;paint-order:stroke fill markers"
       d="M 0,0 H 1920 V 1080 H 0 Z"
       inkscape:label="background" /><g
       id="g13514"
       transform="translate(-66.508745,481.56922)"
       inkscape:label="stars"><path
         fill-rule="nonzero"
         fill="#ffffff"
         fill-opacity="1"
         d="m 1676.1248,474.81439 c 0,14.91147 -12.0937,27.00522 -27.0052,27.00522 -14.9167,0 -27.0052,-12.09375 -27.0052,-27.00522 0,-14.91666 12.0885,-27.00519 27.0052,-27.00519 14.9115,0 27.0052,12.08853 27.0052,27.00519"
         id="path4433"
         style="stroke-width:1.33333" /><path
         fill-rule="nonzero"
         fill="#ffffff"
         fill-opacity="1"
         d="m 1430.5769,-398.14057 c 0,21.03126 -17.0521,38.08333 -38.0834,38.08333 -21.0312,0 -38.0833,-17.05207 -38.0833,-38.08333 0,-21.03126 17.0521,-38.08334 38.0833,-38.08334 21.0313,0 38.0834,17.05208 38.0834,38.08334"
         id="path4435"
         style="stroke-width:1.33333" /><path
         fill-rule="nonzero"
         fill="#ffffff"
         fill-opacity="1"
         d="m 1841.2603,-139.29435 c 0,7.45833 -6.0469,13.5 -13.5052,13.5 -7.4584,0 -13.5,-6.04167 -13.5,-13.5 0,-7.45834 6.0416,-13.50522 13.5,-13.50522 7.4583,0 13.5052,6.04688 13.5052,13.50522"
         id="path4439"
         style="stroke-width:1.33333" /><path
         fill-rule="nonzero"
         fill="#ffffff"
         fill-opacity="1"
         d="m 604.0727,-254.83801 c 0,11.02604 -8.9427,19.96353 -19.9688,19.96353 -11.0208,0 -19.9635,-8.93749 -19.9635,-19.96353 0,-11.02604 8.9427,-19.96355 19.9635,-19.96355 11.0261,0 19.9688,8.93751 19.9688,19.96355"
         id="path4443"
         style="stroke-width:1.33333" /><path
         fill-rule="nonzero"
         fill="#ffffff"
         fill-opacity="1"
         d="m 309.22551,-73.147235 c 0,6.93229 -5.6198,12.54688 -12.5521,12.54688 -6.9271,0 -12.5468,-5.61459 -12.5468,-12.54688 0,-6.9323 5.6197,-12.54688 12.5468,-12.54688 6.9323,0 12.5521,5.61458 12.5521,12.54688"
         id="path4457"
         style="stroke-width:1.33333" /><path
         fill-rule="nonzero"
         fill="#ffffff"
         fill-opacity="1"
         d="m 1193.8215,480.89709 c 0,11.026 -8.9427,19.9635 -19.9635,19.9635 -11.0261,0 -19.9636,-8.9375 -19.9636,-19.9635 0,-11.026 8.9375,-19.9636 19.9636,-19.9636 11.0208,0 19.9635,8.9376 19.9635,19.9636"
         id="path4449"
         style="stroke-width:1.33333" /><path
         fill-rule="nonzero"
         fill="#ffffff"
         fill-opacity="1"
         d="m 1659.0948,-168.97338 c 0,7.4582 -6.0469,13.5 -13.5052,13.5 -7.4584,0 -13.5,-6.0418 -13.5,-13.5 0,-7.4584 6.0416,-13.5052 13.5,-13.5052 7.4583,0 13.5052,6.0468 13.5052,13.5052"
         id="path4453"
         style="stroke-width:1.33333" /><path
         fill-rule="nonzero"
         fill="#ffffff"
         fill-opacity="1"
         d="m 1178.2272,58.778242 c 0,7.45833 -6.0468,13.50521 -13.4999,13.50521 -7.4582,0 -13.5052,-6.04688 -13.5052,-13.50521 0,-7.45312 6.047,-13.5 13.5052,-13.5 7.4531,0 13.4999,6.04688 13.4999,13.5"
         id="path4441"
         style="display:inline;stroke-width:1.33333" /><path
         fill-rule="nonzero"
         fill="#ffffff"
         fill-opacity="1"
         d="m 1095.2029,54.429303 c 0,11.02082 -8.9376,19.96354 -19.9636,19.96354 -11.026,0 -19.9634,-8.94272 -19.9634,-19.96354 0,-11.02604 8.9374,-19.96875 19.9634,-19.96875 11.026,0 19.9636,8.94271 19.9636,19.96875"
         id="path4445"
         style="display:inline;stroke-width:1.33333" /><path
         fill-rule="nonzero"
         fill="#ffffff"
         fill-opacity="1"
         d="m 1001.6732,-20.675179 c 0,11.0260402 -8.94272,19.96354022 -19.96352,19.96354022 -11.0261,0 -19.9688,-8.93750002 -19.9688,-19.96354022 0,-11.02604 8.9427,-19.96354 19.9688,-19.96354 11.0208,0 19.96352,8.9375 19.96352,19.96354"
         id="path4447"
         style="display:inline;stroke-width:1.33333" /><path
         fill-rule="nonzero"
         fill="#ffffff"
         fill-opacity="1"
         d="m 813.81367,-192.02904 c 0,11.02084 -8.9427,19.96356 -19.9636,19.96356 -11.026,0 -19.9687,-8.94272 -19.9687,-19.96356 0,-11.02604 8.9427,-19.96875 19.9687,-19.96875 11.0209,0 19.9636,8.94271 19.9636,19.96875"
         id="path4451"
         style="display:inline;stroke-width:1.33333" /><path
         fill-rule="nonzero"
         fill="#ffffff"
         fill-opacity="1"
         d="m 636.65647,108.13234 c 0,6.93229 -5.6198,12.54688 -12.5521,12.54688 -6.9271,0 -12.5469,-5.61459 -12.5469,-12.54688 0,-6.93229 5.6198,-12.546858 12.5469,-12.546858 6.9323,0 12.5521,5.614558 12.5521,12.546858"
         id="path4469"
         style="display:inline;stroke-width:1.33333" /><path
         fill-rule="nonzero"
         fill="#ffffff"
         fill-opacity="1"
         d="m 1037.5058,-80.701209 c 0,6.9323 -5.6145,12.5522 -12.5468,12.5522 -6.9271,0 -12.5468,-5.6199 -12.5468,-12.5522 0,-6.927 5.6197,-12.5469 12.5468,-12.5469 6.9323,0 12.5468,5.6199 12.5468,12.5469"
         id="path4461"
         style="display:inline;stroke-width:1.33333" /></g></g><g
     inkscape:label="foreground"
     inkscape:groupmode="layer"
     id="layer1"><g
       id="g4201"
       transform="translate(802.22716,173.17492)"
       inkscape:label="logo"><path
         class="st0"
         d="m -516.05975,126.89506 h -172.33541 c -7.62172,0 -13.832,-6.21029 -13.832,-13.90257 V -59.342923 c 0,-7.621713 6.21028,-13.831998 13.832,-13.831998 h 172.33541 c 7.62171,0 13.83199,6.210285 13.83199,13.831998 V 112.99249 c 0.0706,7.69228 -6.13971,13.90257 -13.83199,13.90257 z"
         id="path957"
         style="fill:#e6007e;stroke-width:0.705714" /><g
         id="g977"
         transform="matrix(0.7057142,0,0,0.7057142,-702.22716,-73.174921)">
	<g
   id="g961">
		<circle
   cx="113.3"
   cy="244.39999"
   r="15.2"
   id="circle959" />
	</g>
	<circle
   class="st1"
   cx="113.3"
   cy="244.39999"
   r="10.4"
   id="circle963"
   style="fill:#93b2c2" />
	<g
   id="g967">
		<circle
   cx="144.8"
   cy="244.39999"
   r="15.2"
   id="circle965" />
	</g>
	<circle
   class="st1"
   cx="144.8"
   cy="244.39999"
   r="10.4"
   id="circle969"
   style="fill:#93b2c2" />
	<g
   id="g973">
		<circle
   cx="201"
   cy="244.39999"
   r="15.2"
   id="circle971" />
	</g>
	<circle
   class="st1"
   cx="201"
   cy="244.39999"
   r="10.4"
   id="circle975"
   style="fill:#93b2c2" />
</g><path
         d="m -618.6706,99.30163 c 0,1.976 -1.62314,3.59914 -3.59914,3.59914 -1.976,0 -3.59914,-1.62314 -3.59914,-3.59914 v -7.339427 h 7.19828 z"
         id="path979"
         style="stroke-width:0.705714" /><path
         d="m -596.4406,99.30163 c 0,1.976 -1.62314,3.59914 -3.59914,3.59914 -1.976,0 -3.59915,-1.62314 -3.59915,-3.59914 v -7.339427 h 7.19829 z"
         id="path981"
         style="stroke-width:0.705714" /><path
         d="m -556.77946,99.30163 c 0,1.976 -1.62315,3.59914 -3.59915,3.59914 -1.976,0 -3.59914,-1.62314 -3.59914,-3.59914 v -7.339427 h 7.19829 z"
         id="path983"
         style="stroke-width:0.705714" /><path
         class="st2"
         d="m -509.84947,67.121063 c -2.82286,-0.141143 -9.03314,-1.411429 -10.51514,-2.117143 -0.35286,-0.141143 -1.27029,-0.635143 -1.62314,-0.917428 -2.39943,-2.046571 -5.50457,-6.210285 -13.832,-12.067713 -8.60971,-6.069143 -24.06486,-15.455142 -53.63428,-12.632285 -8.04514,0.776286 -15.808,2.117143 -22.86514,3.599142 l -0.63514,-0.705714 c -1.976,-2.328857 -10.93857,-12.208855 -24.41771,-15.666855 -17.21943,-4.446 -40.43743,-2.893428 -47.70628,-1.834857 0,0 0,0 0,0 -0.21172,0 -0.35286,0.07057 -0.494,0.07057 0,0 -0.0706,0 -0.0706,0 -0.21171,0 -0.35285,0.07057 -0.56457,0.07057 0,0 0,0 -0.0706,0 -0.14114,0 -0.28228,0.07057 -0.42343,0.07057 0,0 -0.0706,0 -0.0706,0 -0.14114,0 -0.21171,0.07057 -0.28228,0.07057 0,0 0,0 -0.0706,0 -0.0706,0 -0.14114,0.07057 -0.21171,0.07057 -1.27029,0.846857 -1.27029,4.728285 -1.27029,6.774856 0,2.046572 0.35286,5.504571 1.55258,6.774857 0.494,0.564571 21.87714,-1.623143 32.32171,4.234285 0.494,0.282286 0.91742,0.494 1.34085,0.776286 5.928,3.599142 7.97457,6.915999 8.75086,8.821428 -0.84686,0.705714 -2.68172,3.599142 -2.68172,15.596284 0,6.421999 0.28229,10.726856 0.63515,13.549712 -1.62315,0.423429 -3.38743,0.846857 -5.29286,1.270286 -10.58571,2.258285 -27.45228,2.964 -34.50942,3.175714 -1.55257,0.07057 -3.31686,0.07057 -3.31686,0.07057 -0.988,0.211714 -1.55257,3.316857 -1.482,6.421999 0.0706,3.105143 0.70571,4.304857 1.19971,4.587143 0.14115,0.07057 1.27029,0.282285 3.17572,0.564571 0,0 0,0 0,0 v 0 c 6.77485,0.988 23.35914,2.893429 38.67314,2.046571 15.66685,-0.846857 21.87714,-2.187714 25.75856,-3.387428 1.55258,-0.494 2.964,-1.058571 4.23429,-1.623143 1.34086,0.282286 2.68171,0.564572 4.09314,0.917429 28.51086,5.928 53.06971,4.093142 68.17199,-4.234285 14.326,-7.903999 20.748,-16.86657 24.13543,-20.183426 0.56457,-0.494 0.988,-0.846857 1.41143,-1.058572 1.41143,-0.564571 7.69228,-1.623142 10.51514,-2.046571 0.21171,0 0.21171,-1.058571 0.0706,-1.058571 z"
         id="path985"
         style="fill:#ffed00;stroke-width:0.705714" /><path
         class="st1"
         d="m -579.6446,38.821923 c 0,0 0.494,10.585713 7.83342,15.172856 4.51658,2.822856 12.20886,4.516571 20.32457,1.270285 6.98657,-2.822857 9.52714,-7.339428 9.52714,-7.339428 0,0 -9.31542,-5.645714 -18.98371,-7.692285 -8.11571,-1.693714 -18.70142,-1.411428 -18.70142,-1.411428 z"
         id="path987"
         style="fill:#93b2c2;stroke-width:0.705714" /><g
         id="g991"
         transform="matrix(0.7057142,0,0,0.7057142,-702.22716,-73.174921)">
	<path
   d="m 201.4,157.9 c 15.5,3.1 22.7,12 22.7,12 0,0 -4.1,6.4 -14.9,9.9 -8.2,2.7 -19,1.3 -25.5,-4.9 -5.6,-5.3 -6.9,-16.2 -6.9,-16.2 0,0 8.5,-4 24.6,-0.8 z"
   id="path989" />
</g><path
         class="st3"
         d="m -574.06946,39.739351 c 0,0 6.916,-1.552571 14.60828,0.423429 7.69229,1.975999 12.91457,6.915999 12.91457,6.915999 0,0 -2.82285,3.246286 -7.41,2.187715 -4.51657,-0.988001 -5.78685,-5.151715 -11.856,-7.551143 -4.93999,-2.046571 -8.25685,-1.976 -8.25685,-1.976 z"
         id="path993"
         style="fill:#354b54;stroke-width:0.705714" /><g
         id="g1003"
         transform="matrix(0.7057142,0,0,0.7057142,-702.22716,-73.174921)">
	
		<ellipse
   transform="matrix(0.9987,-0.05160845,0.05160845,0.9987,-9.7234,5.8569)"
   class="st1"
   cx="108.6"
   cy="191.2"
   rx="12.6"
   ry="10"
   id="ellipse995"
   style="fill:#93b2c2" />
	<g
   id="g999">
		<ellipse
   transform="matrix(0.9987,-0.05160845,0.05160845,0.9987,-9.7236,5.8549)"
   cx="108.5"
   cy="191.2"
   rx="9.5"
   ry="7.5"
   id="ellipse997" />
	</g>
	<path
   class="st3"
   d="m 102.3,188.2 c 0,0 3.5,-3.8 8.3,-2.7 6.1,1.4 5.7,5.7 5.7,5.7 0,0 -2,-2.3 -6.7,-3.3 -3.9,-0.9 -7.3,0.3 -7.3,0.3 z"
   id="path1001"
   style="fill:#354b54" />
</g><g
         id="g1013"
         transform="matrix(0.7057142,0,0,0.7057142,-702.22716,-73.174921)">
	
		<ellipse
   transform="matrix(0.9987,-0.05160845,0.05160845,0.9987,-9.6094,7.3268)"
   class="st1"
   cx="137.10001"
   cy="189.7"
   rx="12.6"
   ry="10"
   id="ellipse1005"
   style="fill:#93b2c2" />
	<g
   id="g1009">
		<ellipse
   transform="matrix(0.9987,-0.05160845,0.05160845,0.9987,-9.6095,7.3248)"
   cx="137"
   cy="189.7"
   rx="9.5"
   ry="7.5"
   id="ellipse1007" />
	</g>
	<path
   class="st3"
   d="m 130.8,186.7 c 0,0 3.5,-3.8 8.3,-2.7 6.1,1.4 5.7,5.7 5.7,5.7 0,0 -2,-2.3 -6.7,-3.3 -3.9,-0.9 -7.3,0.3 -7.3,0.3 z"
   id="path1011"
   style="fill:#354b54" />
</g><g
         id="g1023"
         transform="matrix(0.7057142,0,0,0.7057142,-702.22716,-73.174921)">
	
		<ellipse
   transform="matrix(0.9987,-0.05160845,0.05160845,0.9987,-9.4953,8.7966)"
   class="st1"
   cx="165.60001"
   cy="188.3"
   rx="12.6"
   ry="10"
   id="ellipse1015"
   style="fill:#93b2c2" />
	<g
   id="g1019">
		<ellipse
   transform="matrix(0.9987,-0.05160845,0.05160845,0.9987,-9.4955,8.7946)"
   cx="165.5"
   cy="188.3"
   rx="9.5"
   ry="7.5"
   id="ellipse1017" />
	</g>
	<path
   class="st3"
   d="m 159.4,185.2 c 0,0 3.5,-3.8 8.3,-2.7 6.1,1.4 5.7,5.7 5.7,5.7 0,0 -2,-2.3 -6.7,-3.3 -3.9,-0.8 -7.3,0.3 -7.3,0.3 z"
   id="path1021"
   style="fill:#354b54" />
</g><path
         class="st2"
         d="m -590.30089,44.255922 c 0,0 0,-26.887711 0,-29.428282 0,-2.540571 0.70572,-5.6457138 4.51657,-6.8454279 2.82286,-0.8468571 8.398,-0.7762857 8.398,-0.7762857 V 16.30964 c 0,0 -4.16371,-0.352857 -5.57514,1.129142 -0.91743,0.917429 -0.84686,3.105143 -0.84686,3.105143 l 0.0706,22.582854 z"
         id="path1025"
         style="fill:#ffed00;stroke-width:0.705714" /><g
         id="g1041"
         transform="matrix(0.7057142,0,0,0.7057142,-702.22716,-73.174921)">
	<path
   class="st2"
   d="m 33.6,20.2 c 3.2,0 5,2.4 5,5.6 v 72.5 c 0,3.2 -1.8,5.6 -5,5.6 H 27 c -3.2,0 -5,-2.4 -5,-5.6 V 25.7 c 0,-3.2 1.8,-5.6 5,-5.6 h 6.6 z"
   id="path1027"
   style="fill:#ffed00" />
	<path
   class="st2"
   d="m 58.4,53.6 c 3.2,0 5,1.3 5,4.5 v 7.7 c 0,3.2 -1.8,4.5 -5,4.5 h -6.6 c -3.2,0 -5,-1.3 -5,-4.5 v -7.7 c 0,-3.2 1.8,-4.5 5,-4.5 z"
   id="path1029"
   style="fill:#ffed00" />
	<path
   class="st2"
   d="m 99.7,63.1 h 15.4 c 3.2,0 4.5,2.1 4.5,5.3 v 19.7 c 0,10.7 -5.5,15.7 -16.2,15.7 H 87.9 C 77.2,103.8 71,98.8 71,88.1 V 35.9 C 71,25.2 77.2,20.2 87.9,20.2 h 14.8 c 10.7,0 16.9,5 16.9,15.7 v 12.7 c 0,3.2 -1.3,5 -4.5,5 h -7.8 c -3.2,0 -4.6,-1.8 -4.6,-5 V 37 c 0,-3.2 -1.6,-6 -4.8,-6 H 92.7 C 89.5,31 88,33.8 88,37 v 50 c 0,3.2 1.5,6 4.7,6 h 6 c 3.2,0 4.8,-2.8 4.8,-6 v -9.6 c 0,-3.2 -0.5,-4.7 -3.7,-4.7 -4.3,0 -6.6,0 -6.6,-4.8 -0.1,-4.8 2.2,-4.8 6.5,-4.8 z"
   id="path1031"
   style="fill:#ffed00" />
	<path
   class="st2"
   d="m 138.9,53.6 c 3.2,0 5,1.3 5,4.5 v 7.7 c 0,3.2 -1.8,4.5 -5,4.5 h -6.6 c -3.2,0 -5,-1.3 -5,-4.5 v -7.7 c 0,-3.2 1.8,-4.5 5,-4.5 z"
   id="path1033"
   style="fill:#ffed00" />
	<path
   class="st2"
   d="m 183.1,20.2 c 3.2,0 4.8,0.9 4.8,4.1 v 2.6 c 0,3.2 -1.6,4.2 -4.8,4.2 h -9.7 c -3.2,0 -4.4,1.4 -4.4,4.6 v 16.4 c 0,3.2 1.6,4.7 4.8,4.7 h 5.9 c 3.2,0 4.1,0.9 4.1,4.1 v 2.6 c 0,3.2 -0.9,4.2 -4.1,4.2 h -5.9 c -3.2,0 -4.8,1.4 -4.8,4.6 v 16.3 c 0,3.2 1.2,4.7 4.4,4.7 h 9.7 c 3.2,0 4.8,0.9 4.8,4.1 v 2.7 c 0,3.2 -1.6,4.1 -4.8,4.1 h -25.5 c -3.2,0 -5.6,-2.4 -5.6,-5.6 V 25.7 c 0,-3.2 2.4,-5.6 5.6,-5.6 h 25.5 z"
   id="path1035"
   style="fill:#ffed00" />
	<path
   class="st2"
   d="m 203.9,53.6 c 3.2,0 5,1.3 5,4.5 v 7.7 c 0,3.2 -1.8,4.5 -5,4.5 h -6.6 c -3.2,0 -5,-1.3 -5,-4.5 v -7.7 c 0,-3.2 1.8,-4.5 5,-4.5 z"
   id="path1037"
   style="fill:#ffed00" />
	<path
   class="st2"
   d="m 234,98.3 c 0,3.2 -2,5.6 -5.2,5.6 h -6.6 c -3.2,0 -5,-2.4 -5,-5.6 V 25.7 c 0,-3.2 1.3,-5.6 4.5,-5.6 h 27.5 c 10.7,0 16.5,7.4 16.5,18.1 v 10.9 c 0,6.4 -3.2,13.5 -10.5,16.6 -0.4,0.2 -0.6,0.5 -0.6,0.9 0,0.6 0.3,1.3 0.6,1.9 l 11.9,29.7 c 0.3,0.8 0.5,1.5 0.5,2.2 0,2.1 -1.4,3.4 -3.4,3.4 h -6.6 c -4.3,0 -5.8,-2.2 -7.2,-5.6 L 238,68.2 c -0.4,-1 -1.3,-1.5 -2.1,-1.5 -0.9,0 -1.6,0.6 -1.6,1.7 z m 14.6,-50.2 v -8.8 c 0,-5.3 -2.9,-8.3 -8.2,-8.3 h -1.9 c -3.2,0 -4.5,2.5 -4.5,5.7 v 14.1 c 0,3.2 1.6,5.8 4.8,5.8 6,-0.1 9.8,-1.8 9.8,-8.5 z"
   id="path1039"
   style="fill:#ffed00" />
</g></g><g
       id="fairydust"
       inkscape:label="fairydust"
       transform="translate(-3301.9769,507.44474)"><path
         fill-rule="nonzero"
         fill="#fff200"
         fill-opacity="1"
         d="m 744.99609,418.33203 c 0,0 -81.79687,184.11719 -537.05468,317.47266 -289.199222,84.71093 -322.82422,282.84761 -269.605472,434.25391 45.683593,129.9609 173.097652,251.7578 407.289062,270.6094 434.01562,34.9375 876.8867,-261.0274 876.8867,-261.0274 0,0 -528.15233,188.4063 -772.32811,30.5313 -142.875,-92.375 -131.76953,-281.03518 37.97266,-401.91018 C 762.49219,612.91016 744.99609,418.33203 744.99609,418.33203"
         id="path4429"
         transform="matrix(1.3333333,0,0,1.3333333,3592.1926,-459.87664)" /><path
         fill-rule="nonzero"
         fill="#00a870"
         fill-opacity="1"
         d="m 4726.6978,-0.89228191 c 0,0 16.8021,49.79166991 0.9948,109.09375191 -20.8073,78.04688 -78.1563,174.48437 -82.6302,177.89583 -4.5052,3.4375 -14.9688,-1.85417 -20.4948,-4.5625 -5.5209,-2.70312 -14.474,-8.54167 -15.7136,-14.46354 -0.5312,-2.55729 42.3698,-75.0625 44.3959,-119.61979 2.0156,-44.22396 -9.0938,-57.979162 -9.0938,-57.979162 z m 0,0"
         id="path4471"
         style="stroke-width:1.33333" /><path
         fill-rule="nonzero"
         fill="#00a870"
         fill-opacity="1"
         d="m 4437.4634,171.1598 c -2.5938,5.28647 -13.1615,1.36459 -21.7396,-2.83853 -8.9687,-4.39584 -10.5989,-10.10938 -10.6198,-12.53647 -0.016,-2.42708 34.8646,-99.927082 81.1406,-157.3593719 39.5834,-49.1302001 61.5678,-58.5520801 61.5678,-58.5520801 l -8.6355,97.70833 c 0,0 -36.2083,25.48438 -56.8333,55.96355 -21.9062,32.375002 -44.8802,77.614572 -44.8802,77.614572"
         id="path4473"
         style="stroke-width:1.33333" /><path
         fill-rule="nonzero"
         fill="#fff200"
         fill-opacity="1"
         d="m 4651.5988,81.321268 -7.4479,8.15104 c 0,0 11.1146,13.755202 9.099,57.984372 -2.0261,44.55729 -44.9271,117.05729 -44.3959,119.61458 1.2396,5.92187 10.1927,11.76042 15.7188,14.46354 5.5208,2.70833 15.9844,8 20.4896,4.5625 0.6614,-0.5 2.4739,-3.03125 5.151,-7.23437 0,0 -10.224,1.06249 -20.5729,-4.42709 -10.349,-5.49479 -12.3281,-8.33334 -10.8386,-12.22916 1.4896,-3.89584 34.8698,-65.70312 40.849,-102.625 5.3906,-33.29166 -0.349,-57.63021 -4.5208,-69.703122 0,0 25.9062,-27.77084 41.4322,-46.4375 17.724,-21.3073 31.2605,-40.3697899 31.2605,-40.3697899 l -1.125,-3.96355001 z m 0,0"
         id="path4475"
         style="stroke-width:1.33333" /><path
         fill-rule="nonzero"
         fill="#fff200"
         fill-opacity="1"
         d="m 4407.979,147.04001 c -1.8802,5.20312 -2.875,8.33334 -2.875,8.74479 0.021,2.42709 1.6511,8.14063 10.6198,12.53647 8.5781,4.20312 19.1458,8.125 21.7396,2.83853 0,0 22.974,-45.23957 44.8802,-77.614572 20.625,-30.47917 56.8333,-55.95833 56.8333,-55.95833 l 0.9323,-10.5 c 0,0 -36.1823,20.51041 -60.7656,56.3177 -24.9792,36.385422 -43.9635,78.802082 -45.474,80.166672 -1.5052,1.36457 -6.5885,0.59896 -12.0104,-2.09896 -12.1302,-6.03647 -13.8802,-14.4323 -13.8802,-14.4323"
         id="path4477"
         style="stroke-width:1.33333" /><path
         fill-rule="nonzero"
         fill="#bdd3dc"
         fill-opacity="1"
         d="m 4784.1249,-349.77768 c 2.5937,-0.92709 4.5572,-1.86979 5.7656,-2.94792 4.3281,-3.84375 18.9844,-25.59896 24.9218,-34.52604 0.2813,-0.42708 0.9323,-0.0781 0.7396,0.39063 -4.1302,9.79166 -13.9218,33.6927 -13.8698,39.83333 0.011,1.375 -0.016,5.24479 0.4063,6.88541 -5.724,-4.26562 -11.6667,-7.1302 -17.9635,-9.63541"
         id="path4479"
         style="stroke-width:1.33333" /><path
         fill-rule="nonzero"
         fill="#00a870"
         fill-opacity="1"
         d="m 4674.0832,-303.56414 c 49.8854,-34.96875 93.401,-40.25521 110.0417,-46.21354 6.2968,2.50521 12.2395,5.36979 17.9635,9.63541 2.9375,11.35938 14.6927,29.9948 20.7396,67.45312 6.25,38.72396 12.2396,105.91147 -45.5781,200.260418 -57.375,93.625 -133.0938,161.90104 -133.0938,161.90104 0,0 -5.1302,10.46353 -58,-15.43751 -60.8489,-29.8177 -60.6406,-38.71353 -60.6406,-38.71353 0,0 2.5364,-38.9843699 22.6146,-117.71876 26.7916,-105.067698 73.4166,-184.348938 125.9531,-221.166648"
         id="path4481"
         style="stroke-width:1.33333" /><path
         fill-rule="nonzero"
         fill="#fff200"
         fill-opacity="1"
         d="m 4526.9426,22.076468 c -1.1407,8.83855 -1.4323,13.2448 -1.4323,13.2448 0,0 -0.2031,8.89583 60.6458,38.71353 52.8698,25.90104 58,15.43751 58,15.43751 0,0 3.2656,-2.94271 8.9531,-8.45313 0,0 -5.4375,6.64584 -24.5208,0.89584 -19.0833,-5.75 -55.4062,-21.60418 -78.5729,-35.97918 -23.1667,-14.36978 -23.0729,-23.85937 -23.0729,-23.85937"
         id="path4483"
         style="stroke-width:1.33333" /><path
         fill-rule="nonzero"
         fill="#fff200"
         fill-opacity="1"
         d="m 4789.078,-344.71518 c 0,0 -21.1823,10.83333 -31.9896,21.96354 -10.8021,11.125 -20.2344,24.8177 -20.2344,24.8177 l 15.6406,6.21355 c 0,0 4.8698,-10.33333 14.7032,-25.27084 9.3333,-14.17708 21.8802,-27.72395 21.8802,-27.72395"
         id="path4485"
         style="stroke-width:1.33333" /><path
         fill-rule="nonzero"
         fill="#fff200"
         fill-opacity="1"
         d="m 4687.104,-183.62143 c 0,0 -17.125,27.51561 -29.1458,49.8229 -20.5938,38.208338 -36.6615,73.640628 -36.6615,73.640628 0,0 9.4427,-39.18749 25.3282,-80.270818 10.1979,-26.3698 24.5416,-51.00522 24.5416,-51.00522 z m 0,0"
         id="path4487"
         style="stroke-width:1.33333" /><path
         fill-rule="nonzero"
         fill="#fff200"
         fill-opacity="1"
         d="m 4588.8801,60.128558 c 0,0 34.5156,-29.17188 45.75,-51.6979199 14.901,-29.8645801 15.5,-58.8229101 -5.8855,-73.6875001 -20.5364,-14.27604 -42.1822,-0.83853 -51.1927,10.42709 -23.0364,28.8125 -39.3073,66.03124 -39.3073,66.03124 z m 0,0"
         id="path4489"
         style="stroke-width:1.33333" /><path
         fill-rule="nonzero"
         fill="#00a870"
         fill-opacity="1"
         d="m 4460.354,256.83689 c -2.5625,3.57812 -13.0989,1.23438 -22.3646,-3.70313 -9.2604,-4.94271 -11.5677,-9.28645 -11.5833,-11.72396 -0.011,-2.43749 38.0313,-100.6302 77.7604,-171.020822 34.6354,-61.3593799 50.0209,-85.96355 60.6615,-100.67188 19.0729,-26.35937 38.6823,-39.23959 56.9166,-28.92187 23.1146,13.08334 16.6615,56.7656101 -1.9166,81.91145 -13.3438,18.0573 -30.7344,34.01042 -69.6667,89.161462 -35.8229,50.74999 -89.8073,144.96875 -89.8073,144.96875"
         id="path4491"
         style="stroke-width:1.33333" /><path
         fill-rule="nonzero"
         fill="#fff200"
         fill-opacity="1"
         d="m 4430.5363,229.80564 c -2.6614,6.94271 -4.1302,11.125 -4.1302,11.60416 0.016,2.43751 2.3229,6.77604 11.5885,11.71876 9.2605,4.94271 19.7969,7.28645 22.3594,3.70833 0,0 2.1927,-3.82813 5.9844,-10.34896 0,0 -8.776,5.98438 -23.7656,-1.59376 -14.4011,-7.28124 -12.0365,-15.08853 -12.0365,-15.08853"
         id="path4493"
         style="stroke-width:1.33333" /><path
         fill-rule="nonzero"
         fill="#151821"
         fill-opacity="1"
         d="m 4734.6457,-167.13186 c -8.2292,0 -16.474,-1.18229 -24.5156,-3.5052 -48.4011,-13.9948 -65.3698,-36.95833 -71.0729,-53.76042 -3.9948,-11.76562 -2.9219,-24.07812 3.1041,-35.60938 8.599,-16.43229 26.9948,-30.73957 46.875,-36.4427 8.7083,-2.5 16.901,-3.71354 25.0469,-3.71354 18.6094,0 36.8281,6.63542 54.1458,19.72395 16.849,12.72917 26.724,29.05209 28.5521,47.19792 1.3854,13.72396 -1.9219,28.56771 -9.0729,40.71875 -9.2031,15.66146 -29.5417,25.39062 -53.0625,25.39062 z m 0,0"
         id="path4495"
         style="stroke-width:1.33333" /><path
         fill-rule="nonzero"
         fill="#bdd3dc"
         fill-opacity="1"
         d="m 4714.0832,-303.41831 c -8.4531,0 -16.9375,1.25521 -25.9427,3.83855 -20.6979,5.9427 -39.875,20.8802 -48.8594,38.06249 -6.4531,12.33855 -7.5937,25.53645 -3.3073,38.16667 5.9584,17.53125 23.5,41.45833 73.25,55.83854 8.3385,2.41146 16.8854,3.6302 25.4219,3.6302 24.6719,0 46.0781,-10.33853 55.8698,-26.98957 7.4896,-12.73959 10.9531,-28.30209 9.5052,-42.69792 -1.9271,-19.06771 -12.2396,-36.17188 -29.8281,-49.46875 -17.8959,-13.52084 -36.7761,-20.38021 -56.1094,-20.38021 m 0,6.50521 c 15.4844,0 33.1354,4.67187 52.1875,19.06771 36.5052,27.58853 30.0156,64.32812 18.6354,83.67708 -8.8385,15.03125 -28.4062,23.78125 -50.2604,23.78125 -7.7084,0 -15.7031,-1.08854 -23.6146,-3.375 -40.9479,-11.83854 -61.9271,-31.17188 -68.8958,-51.68229 -10.9427,-32.21355 20.7916,-60.125 47.7968,-67.88021 7.2657,-2.08334 15.3594,-3.58854 24.1511,-3.58854"
         id="path4497"
         style="stroke-width:1.33333" /><path
         fill-rule="nonzero"
         fill="#2f404c"
         fill-opacity="1"
         d="m 4772.4478,-256.38706 c -8.1042,-10.8125 -21.9896,-24.91146 -49.3542,-29.07813 -27.3646,-4.16667 -48.2656,6.69271 -60.1719,18.89584 -15.4114,15.79167 -10.5937,31.97916 -10.5937,31.97916 0,0 17.2916,-21.27604 63.0833,-19.57812 43.2031,1.60416 66.1094,26.41667 66.1094,26.41667 0,0 1.4219,-14.63542 -9.0729,-28.63542"
         id="path4499"
         style="stroke-width:1.33333" /><path
         fill-rule="nonzero"
         fill="#ffffff"
         fill-opacity="1"
         d="m 4540.1092,228.10251 c 0,0 -45.2604,152.86458 -288.9427,331.44271 -201.0052,147.30212 -267.7656,179.44272 -296.526,339.90622 -28.7605,160.46356 70.3593,296.84366 234.2708,355.43226 277.4271,99.1666 710.7552,-25.3334 710.7552,-25.3334 0,0 -532.6875,229.474 -839.3958,78.0104 -252.7865,-124.8385 -268.0573,-330.45816 -191.3959,-483.27596 53.2448,-106.1458 189.6146,-196.3437 323.7709,-274.73432 304.1458,-177.71353 347.4635,-321.44791 347.4635,-321.44791"
         id="path4501"
         style="stroke-width:1.33333" /><path
         fill-rule="nonzero"
         fill="#ffffff"
         fill-opacity="1"
         d="m 3631.6509,1061.566 c 0,0 45.2969,115.9583 150.3854,202.927 131.4635,108.7969 230.1094,144.948 230.1094,144.948 0,0 -134.5417,-32.0625 -235.0365,-100.6927 -156.3281,-106.7657 -145.4583,-247.1823 -145.4583,-247.1823"
         id="path4503"
         style="stroke-width:1.33333" /></g><g
       id="license"
       inkscape:label="license"><g
         id="g25794"
         transform="translate(174.5,867.5)"
         inkscape:label="by">
	
	<g
   id="g25792">
		<path
   d="m 37.443,-3.5 c 8.988,0 16.57,3.085 22.742,9.257 6.208,6.21 9.315,13.791 9.315,22.743 0,8.991 -3.049,16.476 -9.145,22.456 C 53.879,57.319 46.242,60.5 37.443,60.5 28.794,60.5 21.29,57.356 14.929,51.07 8.644,44.784 5.5,37.262 5.5,28.5 5.5,19.739 8.644,12.158 14.929,5.758 21.101,-0.415 28.604,-3.5 37.443,-3.5 Z m 0.114,5.772 c -7.276,0 -13.428,2.553 -18.457,7.657 -5.22,5.334 -7.829,11.525 -7.829,18.572 0,7.086 2.59,13.22 7.77,18.398 5.181,5.182 11.352,7.771 18.514,7.771 7.123,0 13.334,-2.607 18.629,-7.828 5.029,-4.838 7.543,-10.952 7.543,-18.343 0,-7.276 -2.553,-13.465 -7.656,-18.571 C 50.967,4.824 44.795,2.272 37.557,2.272 Z m 8.572,18.285 V 33.642 H 42.473 V 49.184 H 32.529 V 33.643 H 28.873 V 20.557 c 0,-0.572 0.2,-1.057 0.599,-1.457 0.401,-0.399 0.887,-0.6 1.457,-0.6 h 13.144 c 0.533,0 1.01,0.2 1.428,0.6 0.417,0.4 0.628,0.886 0.628,1.457 z M 33.042,12.329 c 0,-3.008 1.485,-4.514 4.458,-4.514 2.973,0 4.457,1.504 4.457,4.514 0,2.971 -1.486,4.457 -4.457,4.457 -2.971,0 -4.458,-1.486 -4.458,-4.457 z"
   id="path25790"
   style="fill:#ffffff;fill-opacity:1;stroke:none" />
	</g>
</g><g
         id="g25809"
         transform="matrix(1.0000156,0,0,1.0000156,94.499914,867.50005)"
         inkscape:label="cc">
	
	<path
   d="m 37.441,-3.5 c 8.951,0 16.572,3.125 22.857,9.372 3.008,3.009 5.295,6.448 6.857,10.314 1.561,3.867 2.344,7.971 2.344,12.314 0,4.381 -0.773,8.486 -2.314,12.313 -1.543,3.828 -3.82,7.21 -6.828,10.143 -3.123,3.085 -6.666,5.448 -10.629,7.086 -3.961,1.638 -8.057,2.457 -12.285,2.457 -4.228,0 -8.276,-0.808 -12.143,-2.429 C 21.434,56.452 17.967,54.109 14.9,51.043 11.833,47.977 9.5,44.519 7.9,40.671 6.3,36.823 5.5,32.767 5.5,28.5 5.5,24.271 6.309,20.205 7.928,16.3 9.547,12.395 11.9,8.9 14.985,5.814 21.08,-0.394 28.565,-3.5 37.441,-3.5 Z m 0.116,5.772 c -7.314,0 -13.467,2.553 -18.458,7.657 -2.515,2.553 -4.448,5.419 -5.8,8.6 -1.354,3.181 -2.029,6.505 -2.029,9.972 0,3.429 0.675,6.734 2.029,9.913 1.353,3.183 3.285,6.021 5.8,8.516 2.514,2.496 5.351,4.399 8.515,5.715 3.161,1.314 6.476,1.971 9.943,1.971 3.428,0 6.75,-0.665 9.973,-1.999 3.219,-1.335 6.121,-3.257 8.713,-5.771 4.99,-4.876 7.484,-10.99 7.484,-18.344 0,-3.543 -0.648,-6.895 -1.943,-10.057 C 60.491,15.283 58.604,12.465 56.13,9.987 50.984,4.844 44.795,2.272 37.557,2.272 Z m -0.401,20.915 -4.287,2.229 c -0.458,-0.951 -1.019,-1.619 -1.685,-2 -0.667,-0.38 -1.286,-0.571 -1.858,-0.571 -2.856,0 -4.286,1.885 -4.286,5.657 0,1.714 0.362,3.084 1.085,4.113 0.724,1.029 1.791,1.544 3.201,1.544 1.867,0 3.181,-0.915 3.944,-2.743 l 3.942,2 c -0.838,1.563 -2,2.791 -3.486,3.686 -1.484,0.896 -3.123,1.343 -4.914,1.343 -2.857,0 -5.163,-0.875 -6.915,-2.629 -1.752,-1.752 -2.628,-4.19 -2.628,-7.313 0,-3.048 0.886,-5.466 2.657,-7.257 1.771,-1.79 4.009,-2.686 6.715,-2.686 3.963,-0.002 6.8,1.541 8.515,4.627 z m 18.457,0 -4.229,2.229 c -0.457,-0.951 -1.02,-1.619 -1.686,-2 -0.668,-0.38 -1.307,-0.571 -1.914,-0.571 -2.857,0 -4.287,1.885 -4.287,5.657 0,1.714 0.363,3.084 1.086,4.113 0.723,1.029 1.789,1.544 3.201,1.544 1.865,0 3.18,-0.915 3.941,-2.743 l 4,2 c -0.875,1.563 -2.057,2.791 -3.541,3.686 -1.486,0.896 -3.105,1.343 -4.857,1.343 -2.896,0 -5.209,-0.875 -6.941,-2.629 -1.736,-1.752 -2.602,-4.19 -2.602,-7.313 0,-3.048 0.885,-5.466 2.658,-7.257 1.77,-1.79 4.008,-2.686 6.713,-2.686 3.962,-0.002 6.783,1.541 8.458,4.627 z"
   id="path25807"
   style="fill:#ffffff;fill-opacity:1;stroke:none" />
</g><text
         xml:space="preserve"
         style="font-weight:bold;font-size:16px;line-height:1.25;font-family:'Noto Sans';-inkscape-font-specification:'Noto Sans Bold';letter-spacing:0px;word-spacing:0px"
         x="99.839996"
         y="956.15997"
         id="text25827"
         inkscape:label="license_text"><tspan
           sodipodi:role="line"
           id="tspan25825"
           x="99.839996"
           y="956.15997"
           style="font-style:normal;font-variant:normal;font-weight:normal;font-stretch:normal;font-size:16px;font-family:'Noto Sans';-inkscape-font-specification:'Noto Sans';fill:#ffffff;fill-opacity:1;stroke:none;stroke-opacity:1"
           inkscape:label="tspan25825">This work is licensed under a Creative Commons Attribution 4.0 International License.</tspan><tspan
           sodipodi:role="line"
           x="99.839996"
           y="976.15997"
           style="font-style:normal;font-variant:normal;font-weight:normal;font-stretch:normal;font-size:16px;font-family:'Noto Sans';-inkscape-font-specification:'Noto Sans';fill:#ffffff;fill-opacity:1;stroke:none;stroke-opacity:1"
           id="tspan831">http://creativecommons.org/licenses/by/4.0/</tspan></text></g></g></svg>
