<?xml version="1.0" encoding="UTF-8" standalone="no"?>
<!-- Created with Inkscape (http://www.inkscape.org/) -->

<svg
   width="1920"
   height="1080"
   viewBox="0 0 1920 1080"
   version="1.1"
   id="svg5"
   inkscape:version="1.2.1 (9c6d41e410, 2022-07-14, custom)"
   sodipodi:docname="outro.svg"
   xml:space="preserve"
   xmlns:inkscape="http://www.inkscape.org/namespaces/inkscape"
   xmlns:sodipodi="http://sodipodi.sourceforge.net/DTD/sodipodi-0.dtd"
   xmlns="http://www.w3.org/2000/svg"
   xmlns:svg="http://www.w3.org/2000/svg"><sodipodi:namedview
     id="namedview7"
     pagecolor="#505050"
     bordercolor="#eeeeee"
     borderopacity="1"
     inkscape:showpageshadow="0"
     inkscape:pageopacity="0"
     inkscape:pagecheckerboard="0"
     inkscape:deskcolor="#505050"
     inkscape:document-units="mm"
     showgrid="false"
     inkscape:zoom="0.54552781"
     inkscape:cx="593.00368"
     inkscape:cy="436.27473"
     inkscape:window-width="1362"
     inkscape:window-height="721"
     inkscape:window-x="0"
     inkscape:window-y="22"
     inkscape:window-maximized="1"
     inkscape:current-layer="layer2" /><defs
     id="defs2"><rect
       x="116.87956"
       y="443.35153"
       width="553.79813"
       height="149.96553"
       id="rect13524" /><rect
       x="208.38227"
       y="779.76588"
       width="752.06454"
       height="107.24175"
       id="rect6436" /><rect
       x="213.07217"
       y="513.88606"
       width="753.0961"
       height="260.79167"
       id="rect6380" /></defs><g
     inkscape:groupmode="layer"
     id="layer2"
     inkscape:label="background"><path
       id="rect3321"
       style="fill:#151821;stroke-width:1.88976;paint-order:stroke fill markers"
       d="M 0,0 H 1920 V 1080 H 0 Z"
       inkscape:label="background" /><g
       id="g13514"
       transform="translate(-66.508745,481.56922)"
       inkscape:label="stars"><path
         fill-rule="nonzero"
         fill="#ffffff"
         fill-opacity="1"
         d="m 1676.1248,474.81439 c 0,14.91147 -12.0937,27.00522 -27.0052,27.00522 -14.9167,0 -27.0052,-12.09375 -27.0052,-27.00522 0,-14.91666 12.0885,-27.00519 27.0052,-27.00519 14.9115,0 27.0052,12.08853 27.0052,27.00519"
         id="path4433"
         style="stroke-width:1.33333" /><path
         fill-rule="nonzero"
         fill="#ffffff"
         fill-opacity="1"
         d="m 1430.5769,-398.14057 c 0,21.03126 -17.0521,38.08333 -38.0834,38.08333 -21.0312,0 -38.0833,-17.05207 -38.0833,-38.08333 0,-21.03126 17.0521,-38.08334 38.0833,-38.08334 21.0313,0 38.0834,17.05208 38.0834,38.08334"
         id="path4435"
         style="stroke-width:1.33333" /><path
         fill-rule="nonzero"
         fill="#ffffff"
         fill-opacity="1"
         d="m 1841.2603,-139.29435 c 0,7.45833 -6.0469,13.5 -13.5052,13.5 -7.4584,0 -13.5,-6.04167 -13.5,-13.5 0,-7.45834 6.0416,-13.50522 13.5,-13.50522 7.4583,0 13.5052,6.04688 13.5052,13.50522"
         id="path4439"
         style="stroke-width:1.33333" /><path
         fill-rule="nonzero"
         fill="#ffffff"
         fill-opacity="1"
         d="m 604.0727,-254.83801 c 0,11.02604 -8.9427,19.96353 -19.9688,19.96353 -11.0208,0 -19.9635,-8.93749 -19.9635,-19.96353 0,-11.02604 8.9427,-19.96355 19.9635,-19.96355 11.0261,0 19.9688,8.93751 19.9688,19.96355"
         id="path4443"
         style="stroke-width:1.33333" /><path
         fill-rule="nonzero"
         fill="#ffffff"
         fill-opacity="1"
         d="m 309.22551,-73.147235 c 0,6.93229 -5.6198,12.54688 -12.5521,12.54688 -6.9271,0 -12.5468,-5.61459 -12.5468,-12.54688 0,-6.9323 5.6197,-12.54688 12.5468,-12.54688 6.9323,0 12.5521,5.61458 12.5521,12.54688"
         id="path4457"
         style="stroke-width:1.33333" /><path
         fill-rule="nonzero"
         fill="#ffffff"
         fill-opacity="1"
         d="m 1193.8215,480.89709 c 0,11.026 -8.9427,19.9635 -19.9635,19.9635 -11.0261,0 -19.9636,-8.9375 -19.9636,-19.9635 0,-11.026 8.9375,-19.9636 19.9636,-19.9636 11.0208,0 19.9635,8.9376 19.9635,19.9636"
         id="path4449"
         style="stroke-width:1.33333" /><path
         fill-rule="nonzero"
         fill="#ffffff"
         fill-opacity="1"
         d="m 1659.0948,-168.97338 c 0,7.4582 -6.0469,13.5 -13.5052,13.5 -7.4584,0 -13.5,-6.0418 -13.5,-13.5 0,-7.4584 6.0416,-13.5052 13.5,-13.5052 7.4583,0 13.5052,6.0468 13.5052,13.5052"
         id="path4453"
         style="stroke-width:1.33333" /><g
         id="conflicting"
         inkscape:label="conflicting"
         style="display:inline"><path
           fill-rule="nonzero"
           fill="#ffffff"
           fill-opacity="1"
           d="m 1178.2272,58.778242 c 0,7.45833 -6.0468,13.50521 -13.4999,13.50521 -7.4582,0 -13.5052,-6.04688 -13.5052,-13.50521 0,-7.45312 6.047,-13.5 13.5052,-13.5 7.4531,0 13.4999,6.04688 13.4999,13.5"
           id="path4441"
           style="stroke-width:1.33333" /><path
           fill-rule="nonzero"
           fill="#ffffff"
           fill-opacity="1"
           d="m 1095.2029,54.429303 c 0,11.02082 -8.9376,19.96354 -19.9636,19.96354 -11.026,0 -19.9634,-8.94272 -19.9634,-19.96354 0,-11.02604 8.9374,-19.96875 19.9634,-19.96875 11.026,0 19.9636,8.94271 19.9636,19.96875"
           id="path4445"
           style="stroke-width:1.33333" /><path
           fill-rule="nonzero"
           fill="#ffffff"
           fill-opacity="1"
           d="m 1001.6732,-20.675179 c 0,11.0260402 -8.94272,19.96354022 -19.96352,19.96354022 -11.0261,0 -19.9688,-8.93750002 -19.9688,-19.96354022 0,-11.02604 8.9427,-19.96354 19.9688,-19.96354 11.0208,0 19.96352,8.9375 19.96352,19.96354"
           id="path4447"
           style="stroke-width:1.33333" /><path
           fill-rule="nonzero"
           fill="#ffffff"
           fill-opacity="1"
           d="m 813.81367,-192.02904 c 0,11.02084 -8.9427,19.96356 -19.9636,19.96356 -11.026,0 -19.9687,-8.94272 -19.9687,-19.96356 0,-11.02604 8.9427,-19.96875 19.9687,-19.96875 11.0209,0 19.9636,8.94271 19.9636,19.96875"
           id="path4451"
           style="stroke-width:1.33333" /><path
           fill-rule="nonzero"
           fill="#ffffff"
           fill-opacity="1"
           d="m 636.65647,108.13234 c 0,6.93229 -5.6198,12.54688 -12.5521,12.54688 -6.9271,0 -12.5469,-5.61459 -12.5469,-12.54688 0,-6.93229 5.6198,-12.546858 12.5469,-12.546858 6.9323,0 12.5521,5.614558 12.5521,12.546858"
           id="path4469"
           style="stroke-width:1.33333" /><path
           fill-rule="nonzero"
           fill="#ffffff"
           fill-opacity="1"
           d="m 1037.5058,-80.701209 c 0,6.9323 -5.6145,12.5522 -12.5468,12.5522 -6.9271,0 -12.5468,-5.6199 -12.5468,-12.5522 0,-6.927 5.6197,-12.5469 12.5468,-12.5469 6.9323,0 12.5468,5.6199 12.5468,12.5469"
           id="path4461"
           style="stroke-width:1.33333" /></g></g></g><g
     inkscape:label="foreground"
     inkscape:groupmode="layer"
     id="layer1"><g
       id="g20388"
       inkscape:label="logo"><path
         fill-rule="nonzero"
         fill="#ec008c"
         fill-opacity="1"
         d="M 287.69777,300.00173 H 112.29978 C 105.50575,300.00173 100,294.49355 100,287.69954 V 112.30218 C 100,105.50818 105.50575,100 112.29978,100 H 287.69777 C 294.4918,100 300,105.50818 300,112.30218 v 175.39736 c 0,6.79401 -5.5082,12.30219 -12.30223,12.30219"
         id="path4737"
         style="stroke-width:0.626986" /><path
         fill-rule="nonzero"
         fill="#151821"
         fill-opacity="1"
         d="m 190.68332,272.46815 c 0,5.93189 -4.80774,10.73716 -10.7372,10.73716 -5.92946,0 -10.7372,-4.80527 -10.7372,-10.73716 0,-5.92944 4.80774,-10.73471 10.7372,-10.73471 5.92946,0 10.7372,4.80527 10.7372,10.73471"
         id="path4739"
         style="stroke-width:0.626986" /><path
         fill-rule="nonzero"
         fill="#84a9b9"
         fill-opacity="1"
         d="m 187.29855,272.46815 c 0,4.06072 -3.29169,7.35486 -7.35243,7.35486 -4.06074,0 -7.35243,-3.29414 -7.35243,-7.35486 0,-4.06072 3.29169,-7.35241 7.35243,-7.35241 4.06074,0 7.35243,3.29169 7.35243,7.35241"
         id="path4741"
         style="stroke-width:0.626986" /><path
         fill-rule="nonzero"
         fill="#151821"
         fill-opacity="1"
         d="m 212.88513,272.46815 c 0,5.93189 -4.80774,10.73716 -10.7372,10.73716 -5.92946,0 -10.7372,-4.80527 -10.7372,-10.73716 0,-5.92944 4.80774,-10.73471 10.7372,-10.73471 5.92946,0 10.7372,4.80527 10.7372,10.73471"
         id="path4743"
         style="stroke-width:0.626986" /><path
         fill-rule="nonzero"
         fill="#84a9b9"
         fill-opacity="1"
         d="m 209.50036,272.46815 c 0,4.06072 -3.29169,7.35486 -7.35243,7.35486 -4.06075,0 -7.35244,-3.29414 -7.35244,-7.35486 0,-4.06072 3.29169,-7.35241 7.35244,-7.35241 4.06074,0 7.35243,3.29169 7.35243,7.35241"
         id="path4745"
         style="stroke-width:0.626986" /><path
         fill-rule="nonzero"
         fill="#151821"
         fill-opacity="1"
         d="m 252.56674,272.46815 c 0,5.93189 -4.80774,10.73716 -10.7372,10.73716 -5.92947,0 -10.7372,-4.80527 -10.7372,-10.73716 0,-5.92944 4.80773,-10.73471 10.7372,-10.73471 5.92946,0 10.7372,4.80527 10.7372,10.73471"
         id="path4747"
         style="stroke-width:0.626986" /><path
         fill-rule="nonzero"
         fill="#84a9b9"
         fill-opacity="1"
         d="m 249.18197,272.46815 c 0,4.06072 -3.29169,7.35486 -7.35243,7.35486 -4.06074,0 -7.35244,-3.29414 -7.35244,-7.35486 0,-4.06072 3.2917,-7.35241 7.35244,-7.35241 4.06074,0 7.35243,3.29169 7.35243,7.35241"
         id="path4749"
         style="stroke-width:0.626986" /><path
         fill-rule="nonzero"
         fill="#151821"
         fill-opacity="1"
         d="m 183.54886,272.46815 c 0,1.99117 -1.61401,3.60273 -3.60274,3.60273 -1.98873,0 -3.60274,-1.61156 -3.60274,-3.60273 v -7.35241 h 7.20548 z m 0,0"
         id="path4751"
         style="stroke-width:0.626986" /><path
         fill-rule="nonzero"
         fill="#151821"
         fill-opacity="1"
         d="m 205.75067,272.46815 c 0,1.99117 -1.61401,3.60273 -3.60274,3.60273 -1.98873,0 -3.60275,-1.61156 -3.60275,-3.60273 v -7.35241 h 7.20549 z m 0,0"
         id="path4753"
         style="stroke-width:0.626986" /><path
         fill-rule="nonzero"
         fill="#151821"
         fill-opacity="1"
         d="m 245.43228,272.46815 c 0,1.99117 -1.61402,3.60273 -3.60274,3.60273 -1.98874,0 -3.60274,-1.61156 -3.60274,-3.60273 v -7.35241 h 7.20548 z m 0,0"
         id="path4755"
         style="stroke-width:0.626986" /><path
         fill-rule="nonzero"
         fill="#fff200"
         fill-opacity="1"
         d="m 292.36591,240.25911 c -2.84595,-0.16165 -9.03258,-1.41318 -10.50698,-2.15037 -0.33064,-0.1641 -1.26378,-0.61475 -1.60912,-0.9111 -2.39039,-2.0475 -5.49351,-6.18905 -13.80112,-12.06706 -8.59173,-6.0764 -24.06564,-15.44692 -53.61744,-12.65732 -8.07005,0.7617 -15.83395,2.08669 -22.86064,3.60273 l -0.64169,-0.71515 c -1.94709,-2.30467 -10.92334,-12.19932 -24.42811,-15.66245 -17.20549,-4.41096 -40.43595,-2.88268 -47.69532,-1.82218 0,0 0.002,-0.002 0.002,-0.002 -0.18123,0.0269 -0.35023,0.0539 -0.50943,0.0784 -0.0343,0.005 -0.0637,0.01 -0.098,0.0171 -0.19594,0.0318 -0.37963,0.0637 -0.54617,0.0931 -0.0122,0.002 -0.0269,0.005 -0.0392,0.007 -0.16655,0.0318 -0.31105,0.0637 -0.44086,0.0931 -0.0245,0.005 -0.0514,0.01 -0.0735,0.0171 -0.12001,0.0269 -0.22287,0.0539 -0.3037,0.0808 -0.0171,0.005 -0.0269,0.01 -0.0416,0.0147 -0.0784,0.0269 -0.14205,0.0514 -0.17879,0.0759 -1.29072,0.83517 -1.25398,4.70976 -1.25398,6.74012 0,2.03281 0.33308,5.53758 1.54788,6.76461 0.52412,0.52902 21.90546,-1.65809 32.31937,4.21747 0.46534,0.26207 0.8964,0.52413 1.32991,0.78374 5.90006,3.61008 8.00146,6.92625 8.74846,8.78518 -0.867,0.69066 -2.67206,3.56599 -2.67206,15.57427 0,6.42663 0.26941,10.69798 0.61965,13.54636 -1.6287,0.42616 -3.39211,0.84987 -5.31227,1.25888 -10.59025,2.25813 -27.46264,2.96595 -34.52853,3.17167 -1.58462,0.0416 -3.28435,0.0759 -3.28435,0.0759 -0.96743,0.21553 -1.53319,3.32352 -1.45237,6.42907 0.0808,3.108 0.72496,4.28605 1.2099,4.60934 0.10776,0.0686 1.23683,0.289 3.13985,0.57556 0.002,0 0.005,0 0.005,0 6.77688,1.0213 23.36028,2.90961 38.69949,2.07934 15.69435,-0.85231 21.84423,-2.16997 25.76537,-3.36271 1.56992,-0.48003 2.97575,-1.02865 4.22239,-1.64339 1.31765,0.29145 2.6843,0.5878 4.10727,0.88415 28.47171,5.94658 53.07126,4.07297 68.14107,-4.23461 14.31056,-7.89124 20.72006,-16.85765 24.11952,-20.16158 0.52902,-0.51677 0.98946,-0.8768 1.39113,-1.04335 1.43768,-0.5878 7.68063,-1.65074 10.53393,-2.02791 0.1347,-0.0196 0.12736,-1.10703 -0.007,-1.11437"
         id="path4757"
         style="stroke-width:0.626986" /><path
         fill-rule="nonzero"
         fill="#84a9b9"
         fill-opacity="1"
         d="m 222.54225,211.96873 c 0,0 0.48004,10.59022 7.81288,15.16527 4.53588,2.82879 12.17732,4.53587 20.31105,1.30541 7.0169,-2.78716 9.51506,-7.35731 9.51506,-7.35731 0,0 -9.33872,-5.67473 -18.9542,-7.70999 -8.09454,-1.71442 -18.68479,-1.40338 -18.68479,-1.40338"
         id="path4759"
         style="stroke-width:0.626986" /><path
         fill-rule="nonzero"
         fill="#151821"
         fill-opacity="1"
         d="m 242.12834,211.42012 c 10.92824,2.16507 16.02498,8.48638 16.02498,8.48638 0,0 -2.91208,4.47953 -10.51678,6.96299 -5.78986,1.89076 -13.39456,0.89395 -18.00147,-3.49252 -3.92603,-3.73743 -4.88611,-11.43028 -4.88611,-11.43028 0,0 5.97599,-2.78716 17.37938,-0.52657"
         id="path4761"
         style="stroke-width:0.626986" /><path
         fill-rule="nonzero"
         fill="#2f404c"
         fill-opacity="1"
         d="m 228.14352,212.88717 c 0,0 6.92383,-1.57726 14.60201,0.38942 7.67818,1.96913 12.89983,6.88462 12.89983,6.88462 0,0 -2.83615,3.22556 -7.41367,2.19446 -4.54078,-1.02131 -5.78006,-5.12367 -11.87852,-7.56549 -4.91305,-1.96669 -8.20965,-1.90301 -8.20965,-1.90301"
         id="path4763"
         style="stroke-width:0.626986" /><path
         fill-rule="nonzero"
         fill="#84a9b9"
         fill-opacity="1"
         d="m 185.43963,234.45213 c 0.20083,3.90152 -3.59785,7.26913 -8.48641,7.52139 -4.88856,0.25227 -9.01543,-2.70388 -9.21627,-6.60541 -0.20327,-3.90152 3.59786,-7.26669 8.48642,-7.51895 4.88856,-0.25472 9.01542,2.70388 9.21626,6.60297"
         id="path4765"
         style="stroke-width:0.626986" /><path
         fill-rule="nonzero"
         fill="#151821"
         fill-opacity="1"
         d="m 183.22068,234.56723 c 0.15184,2.93656 -2.7088,5.469 -6.38502,5.66004 -3.67866,0.18859 -6.78423,-2.03526 -6.93608,-4.97182 -0.15184,-2.93411 2.70635,-5.46655 6.38502,-5.65758 3.67866,-0.19104 6.78423,2.03526 6.93608,4.96936"
         id="path4767"
         style="stroke-width:0.626986" /><path
         fill-rule="nonzero"
         fill="#2f404c"
         fill-opacity="1"
         d="m 172.19201,232.77689 c 0,0 2.45653,-2.70144 5.8315,-1.91281 4.33015,1.01397 3.99951,4.00685 3.99951,4.00685 0,0 -1.43032,-1.64584 -4.7514,-2.3561 -2.68186,-0.57311 -5.07961,0.26206 -5.07961,0.26206"
         id="path4769"
         style="stroke-width:0.626986" /><path
         fill-rule="nonzero"
         fill="#84a9b9"
         fill-opacity="1"
         d="m 205.55963,233.41367 c 0.20328,3.90153 -3.59539,7.26669 -8.48395,7.51896 -4.89101,0.25471 -9.01543,-2.70389 -9.21871,-6.60541 -0.20083,-3.89909 3.59784,-7.2667 8.48885,-7.51896 4.88612,-0.25226 9.01298,2.70388 9.21381,6.60541"
         id="path4771"
         style="stroke-width:0.626986" /><path
         fill-rule="nonzero"
         fill="#151821"
         fill-opacity="1"
         d="m 203.34068,233.52878 c 0.15185,2.93411 -2.70635,5.46655 -6.38501,5.65759 -3.67866,0.19104 -6.78178,-2.03526 -6.93363,-4.96936 -0.15184,-2.93656 2.70634,-5.46901 6.38501,-5.66004 3.67867,-0.18859 6.78178,2.03526 6.93363,4.97181"
         id="path4773"
         style="stroke-width:0.626986" /><path
         fill-rule="nonzero"
         fill="#2f404c"
         fill-opacity="1"
         d="m 192.31447,231.736 c 0,0 2.45653,-2.70144 5.83149,-1.91036 4.33016,1.0115 3.99952,4.00439 3.99952,4.00439 0,0 -1.43032,-1.64584 -4.7514,-2.3561 -2.68186,-0.57311 -5.07961,0.26207 -5.07961,0.26207"
         id="path4775"
         style="stroke-width:0.626986" /><path
         fill-rule="nonzero"
         fill="#84a9b9"
         fill-opacity="1"
         d="m 225.6821,232.37278 c 0.20083,3.90153 -3.59785,7.26913 -8.48641,7.5214 -4.88857,0.25227 -9.01543,-2.70633 -9.21626,-6.60541 -0.20083,-3.90153 3.59784,-7.2667 8.4864,-7.52141 4.88857,-0.25226 9.01543,2.70634 9.21627,6.60542"
         id="path4777"
         style="stroke-width:0.626986" /><path
         fill-rule="nonzero"
         fill="#151821"
         fill-opacity="1"
         d="m 223.46314,232.48788 c 0.15185,2.93656 -2.70634,5.46901 -6.38501,5.66004 -3.67867,0.18859 -6.78423,-2.03526 -6.93608,-4.97182 -0.15185,-2.93411 2.70879,-5.46655 6.38746,-5.65758 3.67622,-0.19103 6.78178,2.03526 6.93363,4.96936"
         id="path4779"
         style="stroke-width:0.626986" /><path
         fill-rule="nonzero"
         fill="#2f404c"
         fill-opacity="1"
         d="m 212.43693,230.69754 c 0,0 2.45653,-2.70143 5.82905,-1.9128 4.33015,1.01396 3.99951,4.00684 3.99951,4.00684 0,0 -1.43032,-1.64584 -4.75141,-2.3561 -2.6794,-0.57311 -5.07715,0.26206 -5.07715,0.26206"
         id="path4781"
         style="stroke-width:0.626986" /><path
         fill-rule="nonzero"
         fill="#fff200"
         fill-opacity="1"
         d="m 116.14254,168.74333 c -1.07029,0 -1.91525,-0.84252 -1.91525,-1.91526 v -49.77939 c 0,-1.07274 0.84496,-1.91525 1.91525,-1.91525 h 8.04311 c 1.07029,0 1.91281,0.84251 1.91281,1.91525 v 49.77939 c 0,1.07274 -0.84252,1.91526 -1.91281,1.91526 z m 0,0"
         id="path4783"
         style="stroke-width:0.626986" /><path
         fill-rule="nonzero"
         fill="#fff200"
         fill-opacity="1"
         d="m 132.60838,148.98341 c -1.07275,0 -1.91526,-0.84251 -1.91526,-1.91525 v -10.33795 c 0,-1.07274 0.84251,-1.91525 1.91526,-1.91525 h 8.80725 c 1.07274,0 1.91525,0.84251 1.91525,1.91525 v 10.33795 c 0,1.07274 -0.84251,1.91525 -1.91525,1.91525 z m 0,0"
         id="path4785"
         style="stroke-width:0.626986" /><path
         fill-rule="nonzero"
         fill="#fff200"
         fill-opacity="1"
         d="m 153.59294,168.74333 c -3.13984,0 -5.74332,-2.60348 -5.74332,-5.74331 v -42.12329 c 0,-3.13984 2.60348,-5.7433 5.74332,-5.7433 h 21.2148 c 3.13985,0 5.74332,2.60346 5.74332,5.7433 v 6.66419 c 0,1.14866 -0.68821,2.21895 -1.76095,2.6794 l -8.34681,3.44598 c -0.84252,0.38207 -1.76341,-0.23022 -1.76341,-1.14867 v -6.35559 c 0,-0.23022 -0.15185,-0.38452 -0.38207,-0.38452 h -8.19496 c -0.23021,0 -0.38206,0.1543 -0.38206,0.38452 v 31.55266 c 0,0.23023 0.15185,0.38208 0.38206,0.38208 h 9.41955 c 0.23023,0 0.38452,-0.15185 0.38452,-0.38208 v -7.88877 c 0,-0.23023 -0.15429,-0.38207 -0.38452,-0.38207 h -5.13103 c -0.91844,0 -1.53074,-0.91844 -1.22459,-1.76096 l 2.988,-7.12218 c 0.38207,-1.07274 1.45236,-1.76341 2.60347,-1.76341 h 10.72251 c 1.07029,0 1.91281,0.84252 1.91281,1.91525 v 22.28746 c 0,3.13983 -2.60347,5.74331 -5.74332,5.74331 z m 0,0"
         id="path4787"
         style="stroke-width:0.626986" /><path
         fill-rule="nonzero"
         fill="#fff200"
         fill-opacity="1"
         d="m 187.29121,148.98341 c -1.07274,0 -1.91526,-0.84251 -1.91526,-1.91525 v -10.33795 c 0,-1.07274 0.84252,-1.91525 1.91526,-1.91525 h 8.80725 c 1.07274,0 1.91525,0.84251 1.91525,1.91525 v 10.33795 c 0,1.07274 -0.84251,1.91525 -1.91525,1.91525 z m 0,0"
         id="path4789"
         style="stroke-width:0.626986" /><path
         fill-rule="nonzero"
         fill="#fff200"
         fill-opacity="1"
         d="m 204.52363,168.74333 c -1.07274,0 -1.91526,-0.84252 -1.91526,-1.91526 v -49.77939 c 0,-1.07274 0.84252,-1.91525 1.91526,-1.91525 h 26.1156 c 1.07275,0 1.91526,0.84251 1.91526,1.91525 v 6.81604 c 0,1.07028 -0.84251,1.9128 -1.91526,1.9128 h -15.77761 c -0.22777,0 -0.38207,0.1543 -0.38207,0.38452 v 10.41388 c 0,0.23022 0.1543,0.38451 0.38207,0.38451 h 11.02865 c 1.07274,0 1.91526,0.84252 1.91526,1.91281 v 6.0519 c 0,1.07273 -0.84252,1.91525 -1.91526,1.91525 h -11.02865 c -0.22777,0 -0.38207,0.15185 -0.38207,0.38207 v 10.49224 c 0,0.23023 0.1543,0.38208 0.38207,0.38208 h 15.77761 c 1.07275,0 1.91526,0.84251 1.91526,1.91525 v 6.81604 c 0,1.07274 -0.84251,1.91526 -1.91526,1.91526 z m 0,0"
         id="path4791"
         style="stroke-width:0.626986" /><path
         fill-rule="nonzero"
         fill="#fff200"
         fill-opacity="1"
         d="m 237.37937,148.98341 c -1.07273,0 -1.91525,-0.84251 -1.91525,-1.91525 v -10.33795 c 0,-1.07274 0.84252,-1.91525 1.91525,-1.91525 h 8.80726 c 1.07274,0 1.91526,0.84251 1.91526,1.91525 v 10.33795 c 0,1.07274 -0.84252,1.91525 -1.91526,1.91525 z m 0,0"
         id="path4793"
         style="stroke-width:0.626986" /><path
         fill-rule="nonzero"
         fill="#fff200"
         fill-opacity="1"
         d="m 264.94979,125.77752 c -0.23023,0 -0.38208,0.1543 -0.38208,0.38452 v 11.87113 c 0,0.22777 0.15185,0.38207 0.38208,0.38207 h 10.26207 c 0.23021,0 0.38451,-0.1543 0.38451,-0.38207 v -11.87113 c 0,-0.23022 -0.1543,-0.38452 -0.38451,-0.38452 z m -10.34044,42.96581 c -1.07029,0 -1.91281,-0.84252 -1.91281,-1.91526 v -49.77939 c 0,-1.07274 0.84252,-1.91525 1.91281,-1.91525 h 26.73035 c 3.13985,0 5.74333,2.60346 5.74333,5.7433 v 22.4393 c 0,3.13984 -2.60348,5.7433 -5.74333,5.7433 h -1.37888 c -0.15431,0 -0.30616,0.15431 -0.23023,0.3086 l 9.57384,17.69036 c 0.46045,0.76659 -0.15185,1.68504 -0.99681,1.68504 h -8.57703 c -1.14867,0 -2.29733,-0.68823 -2.8337,-1.68504 l -9.57384,-17.69036 c -0.0759,-0.15429 -0.30616,-0.3086 -0.53393,-0.3086 h -1.83933 c -0.23023,0 -0.38208,0.15431 -0.38208,0.38453 v 17.38421 c 0,1.07274 -0.84251,1.91526 -1.91525,1.91526 z m 0,0"
         id="path4795"
         style="stroke-width:0.626986" /><path
         fill-rule="nonzero"
         fill="#fff200"
         fill-opacity="1"
         d="m 211.86872,217.42304 v -29.45618 c 0,-2.54469 0.72495,-5.66738 4.49914,-6.84543 2.79452,-0.87191 8.3811,-0.7519 8.3811,-0.7519 v 9.08398 c 0,0 -4.13666,-0.36248 -5.55474,1.09723 -0.88415,0.91109 -0.81313,3.12024 -0.81313,3.12024 l 0.0637,22.58626 z m 0,0"
         id="path4797"
         style="stroke-width:0.626986" /></g><g
       id="fairydust"
       inkscape:label="fairydust"
       transform="translate(-3301.9769,507.44474)"><path
         fill-rule="nonzero"
         fill="#fff200"
         fill-opacity="1"
         d="m 744.99609,418.33203 c 0,0 -81.79687,184.11719 -537.05468,317.47266 -289.199222,84.71093 -322.82422,282.84761 -269.605472,434.25391 45.683593,129.9609 173.097652,251.7578 407.289062,270.6094 434.01562,34.9375 876.8867,-261.0274 876.8867,-261.0274 0,0 -528.15233,188.4063 -772.32811,30.5313 -142.875,-92.375 -131.76953,-281.03518 37.97266,-401.91018 C 762.49219,612.91016 744.99609,418.33203 744.99609,418.33203"
         id="path4429"
         transform="matrix(1.3333333,0,0,1.3333333,3592.1926,-459.87664)" /><path
         fill-rule="nonzero"
         fill="#00a870"
         fill-opacity="1"
         d="m 4726.6978,-0.89228191 c 0,0 16.8021,49.79166991 0.9948,109.09375191 -20.8073,78.04688 -78.1563,174.48437 -82.6302,177.89583 -4.5052,3.4375 -14.9688,-1.85417 -20.4948,-4.5625 -5.5209,-2.70312 -14.474,-8.54167 -15.7136,-14.46354 -0.5312,-2.55729 42.3698,-75.0625 44.3959,-119.61979 2.0156,-44.22396 -9.0938,-57.979162 -9.0938,-57.979162 z m 0,0"
         id="path4471"
         style="stroke-width:1.33333" /><path
         fill-rule="nonzero"
         fill="#00a870"
         fill-opacity="1"
         d="m 4437.4634,171.1598 c -2.5938,5.28647 -13.1615,1.36459 -21.7396,-2.83853 -8.9687,-4.39584 -10.5989,-10.10938 -10.6198,-12.53647 -0.016,-2.42708 34.8646,-99.927082 81.1406,-157.3593719 39.5834,-49.1302001 61.5678,-58.5520801 61.5678,-58.5520801 l -8.6355,97.70833 c 0,0 -36.2083,25.48438 -56.8333,55.96355 -21.9062,32.375002 -44.8802,77.614572 -44.8802,77.614572"
         id="path4473"
         style="stroke-width:1.33333" /><path
         fill-rule="nonzero"
         fill="#fff200"
         fill-opacity="1"
         d="m 4651.5988,81.321268 -7.4479,8.15104 c 0,0 11.1146,13.755202 9.099,57.984372 -2.0261,44.55729 -44.9271,117.05729 -44.3959,119.61458 1.2396,5.92187 10.1927,11.76042 15.7188,14.46354 5.5208,2.70833 15.9844,8 20.4896,4.5625 0.6614,-0.5 2.4739,-3.03125 5.151,-7.23437 0,0 -10.224,1.06249 -20.5729,-4.42709 -10.349,-5.49479 -12.3281,-8.33334 -10.8386,-12.22916 1.4896,-3.89584 34.8698,-65.70312 40.849,-102.625 5.3906,-33.29166 -0.349,-57.63021 -4.5208,-69.703122 0,0 25.9062,-27.77084 41.4322,-46.4375 17.724,-21.3073 31.2605,-40.3697899 31.2605,-40.3697899 l -1.125,-3.96355001 z m 0,0"
         id="path4475"
         style="stroke-width:1.33333" /><path
         fill-rule="nonzero"
         fill="#fff200"
         fill-opacity="1"
         d="m 4407.979,147.04001 c -1.8802,5.20312 -2.875,8.33334 -2.875,8.74479 0.021,2.42709 1.6511,8.14063 10.6198,12.53647 8.5781,4.20312 19.1458,8.125 21.7396,2.83853 0,0 22.974,-45.23957 44.8802,-77.614572 20.625,-30.47917 56.8333,-55.95833 56.8333,-55.95833 l 0.9323,-10.5 c 0,0 -36.1823,20.51041 -60.7656,56.3177 -24.9792,36.385422 -43.9635,78.802082 -45.474,80.166672 -1.5052,1.36457 -6.5885,0.59896 -12.0104,-2.09896 -12.1302,-6.03647 -13.8802,-14.4323 -13.8802,-14.4323"
         id="path4477"
         style="stroke-width:1.33333" /><path
         fill-rule="nonzero"
         fill="#bdd3dc"
         fill-opacity="1"
         d="m 4784.1249,-349.77768 c 2.5937,-0.92709 4.5572,-1.86979 5.7656,-2.94792 4.3281,-3.84375 18.9844,-25.59896 24.9218,-34.52604 0.2813,-0.42708 0.9323,-0.0781 0.7396,0.39063 -4.1302,9.79166 -13.9218,33.6927 -13.8698,39.83333 0.011,1.375 -0.016,5.24479 0.4063,6.88541 -5.724,-4.26562 -11.6667,-7.1302 -17.9635,-9.63541"
         id="path4479"
         style="stroke-width:1.33333" /><path
         fill-rule="nonzero"
         fill="#00a870"
         fill-opacity="1"
         d="m 4674.0832,-303.56414 c 49.8854,-34.96875 93.401,-40.25521 110.0417,-46.21354 6.2968,2.50521 12.2395,5.36979 17.9635,9.63541 2.9375,11.35938 14.6927,29.9948 20.7396,67.45312 6.25,38.72396 12.2396,105.91147 -45.5781,200.260418 -57.375,93.625 -133.0938,161.90104 -133.0938,161.90104 0,0 -5.1302,10.46353 -58,-15.43751 -60.8489,-29.8177 -60.6406,-38.71353 -60.6406,-38.71353 0,0 2.5364,-38.9843699 22.6146,-117.71876 26.7916,-105.067698 73.4166,-184.348938 125.9531,-221.166648"
         id="path4481"
         style="stroke-width:1.33333" /><path
         fill-rule="nonzero"
         fill="#fff200"
         fill-opacity="1"
         d="m 4526.9426,22.076468 c -1.1407,8.83855 -1.4323,13.2448 -1.4323,13.2448 0,0 -0.2031,8.89583 60.6458,38.71353 52.8698,25.90104 58,15.43751 58,15.43751 0,0 3.2656,-2.94271 8.9531,-8.45313 0,0 -5.4375,6.64584 -24.5208,0.89584 -19.0833,-5.75 -55.4062,-21.60418 -78.5729,-35.97918 -23.1667,-14.36978 -23.0729,-23.85937 -23.0729,-23.85937"
         id="path4483"
         style="stroke-width:1.33333" /><path
         fill-rule="nonzero"
         fill="#fff200"
         fill-opacity="1"
         d="m 4789.078,-344.71518 c 0,0 -21.1823,10.83333 -31.9896,21.96354 -10.8021,11.125 -20.2344,24.8177 -20.2344,24.8177 l 15.6406,6.21355 c 0,0 4.8698,-10.33333 14.7032,-25.27084 9.3333,-14.17708 21.8802,-27.72395 21.8802,-27.72395"
         id="path4485"
         style="stroke-width:1.33333" /><path
         fill-rule="nonzero"
         fill="#fff200"
         fill-opacity="1"
         d="m 4687.104,-183.62143 c 0,0 -17.125,27.51561 -29.1458,49.8229 -20.5938,38.208338 -36.6615,73.640628 -36.6615,73.640628 0,0 9.4427,-39.18749 25.3282,-80.270818 10.1979,-26.3698 24.5416,-51.00522 24.5416,-51.00522 z m 0,0"
         id="path4487"
         style="stroke-width:1.33333" /><path
         fill-rule="nonzero"
         fill="#fff200"
         fill-opacity="1"
         d="m 4588.8801,60.128558 c 0,0 34.5156,-29.17188 45.75,-51.6979199 14.901,-29.8645801 15.5,-58.8229101 -5.8855,-73.6875001 -20.5364,-14.27604 -42.1822,-0.83853 -51.1927,10.42709 -23.0364,28.8125 -39.3073,66.03124 -39.3073,66.03124 z m 0,0"
         id="path4489"
         style="stroke-width:1.33333" /><path
         fill-rule="nonzero"
         fill="#00a870"
         fill-opacity="1"
         d="m 4460.354,256.83689 c -2.5625,3.57812 -13.0989,1.23438 -22.3646,-3.70313 -9.2604,-4.94271 -11.5677,-9.28645 -11.5833,-11.72396 -0.011,-2.43749 38.0313,-100.6302 77.7604,-171.020822 34.6354,-61.3593799 50.0209,-85.96355 60.6615,-100.67188 19.0729,-26.35937 38.6823,-39.23959 56.9166,-28.92187 23.1146,13.08334 16.6615,56.7656101 -1.9166,81.91145 -13.3438,18.0573 -30.7344,34.01042 -69.6667,89.161462 -35.8229,50.74999 -89.8073,144.96875 -89.8073,144.96875"
         id="path4491"
         style="stroke-width:1.33333" /><path
         fill-rule="nonzero"
         fill="#fff200"
         fill-opacity="1"
         d="m 4430.5363,229.80564 c -2.6614,6.94271 -4.1302,11.125 -4.1302,11.60416 0.016,2.43751 2.3229,6.77604 11.5885,11.71876 9.2605,4.94271 19.7969,7.28645 22.3594,3.70833 0,0 2.1927,-3.82813 5.9844,-10.34896 0,0 -8.776,5.98438 -23.7656,-1.59376 -14.4011,-7.28124 -12.0365,-15.08853 -12.0365,-15.08853"
         id="path4493"
         style="stroke-width:1.33333" /><path
         fill-rule="nonzero"
         fill="#151821"
         fill-opacity="1"
         d="m 4734.6457,-167.13186 c -8.2292,0 -16.474,-1.18229 -24.5156,-3.5052 -48.4011,-13.9948 -65.3698,-36.95833 -71.0729,-53.76042 -3.9948,-11.76562 -2.9219,-24.07812 3.1041,-35.60938 8.599,-16.43229 26.9948,-30.73957 46.875,-36.4427 8.7083,-2.5 16.901,-3.71354 25.0469,-3.71354 18.6094,0 36.8281,6.63542 54.1458,19.72395 16.849,12.72917 26.724,29.05209 28.5521,47.19792 1.3854,13.72396 -1.9219,28.56771 -9.0729,40.71875 -9.2031,15.66146 -29.5417,25.39062 -53.0625,25.39062 z m 0,0"
         id="path4495"
         style="stroke-width:1.33333" /><path
         fill-rule="nonzero"
         fill="#bdd3dc"
         fill-opacity="1"
         d="m 4714.0832,-303.41831 c -8.4531,0 -16.9375,1.25521 -25.9427,3.83855 -20.6979,5.9427 -39.875,20.8802 -48.8594,38.06249 -6.4531,12.33855 -7.5937,25.53645 -3.3073,38.16667 5.9584,17.53125 23.5,41.45833 73.25,55.83854 8.3385,2.41146 16.8854,3.6302 25.4219,3.6302 24.6719,0 46.0781,-10.33853 55.8698,-26.98957 7.4896,-12.73959 10.9531,-28.30209 9.5052,-42.69792 -1.9271,-19.06771 -12.2396,-36.17188 -29.8281,-49.46875 -17.8959,-13.52084 -36.7761,-20.38021 -56.1094,-20.38021 m 0,6.50521 c 15.4844,0 33.1354,4.67187 52.1875,19.06771 36.5052,27.58853 30.0156,64.32812 18.6354,83.67708 -8.8385,15.03125 -28.4062,23.78125 -50.2604,23.78125 -7.7084,0 -15.7031,-1.08854 -23.6146,-3.375 -40.9479,-11.83854 -61.9271,-31.17188 -68.8958,-51.68229 -10.9427,-32.21355 20.7916,-60.125 47.7968,-67.88021 7.2657,-2.08334 15.3594,-3.58854 24.1511,-3.58854"
         id="path4497"
         style="stroke-width:1.33333" /><path
         fill-rule="nonzero"
         fill="#2f404c"
         fill-opacity="1"
         d="m 4772.4478,-256.38706 c -8.1042,-10.8125 -21.9896,-24.91146 -49.3542,-29.07813 -27.3646,-4.16667 -48.2656,6.69271 -60.1719,18.89584 -15.4114,15.79167 -10.5937,31.97916 -10.5937,31.97916 0,0 17.2916,-21.27604 63.0833,-19.57812 43.2031,1.60416 66.1094,26.41667 66.1094,26.41667 0,0 1.4219,-14.63542 -9.0729,-28.63542"
         id="path4499"
         style="stroke-width:1.33333" /><path
         fill-rule="nonzero"
         fill="#ffffff"
         fill-opacity="1"
         d="m 4540.1092,228.10251 c 0,0 -45.2604,152.86458 -288.9427,331.44271 -201.0052,147.30212 -267.7656,179.44272 -296.526,339.90622 -28.7605,160.46356 70.3593,296.84366 234.2708,355.43226 277.4271,99.1666 710.7552,-25.3334 710.7552,-25.3334 0,0 -532.6875,229.474 -839.3958,78.0104 -252.7865,-124.8385 -268.0573,-330.45816 -191.3959,-483.27596 53.2448,-106.1458 189.6146,-196.3437 323.7709,-274.73432 304.1458,-177.71353 347.4635,-321.44791 347.4635,-321.44791"
         id="path4501"
         style="stroke-width:1.33333" /><path
         fill-rule="nonzero"
         fill="#ffffff"
         fill-opacity="1"
         d="m 3631.6509,1061.566 c 0,0 45.2969,115.9583 150.3854,202.927 131.4635,108.7969 230.1094,144.948 230.1094,144.948 0,0 -134.5417,-32.0625 -235.0365,-100.6927 -156.3281,-106.7657 -145.4583,-247.1823 -145.4583,-247.1823"
         id="path4503"
         style="stroke-width:1.33333" /></g><g
       id="event"
       inkscape:label="event"
       style="display:inline"><path
         fill-rule="nonzero"
         fill="#fff200"
         fill-opacity="1"
         d="m 661.2344,402.25779 c -2.1719,0 -3.8802,-1.70312 -3.8802,-3.8802 V 297.49218 c 0,-2.17188 1.7083,-3.88021 3.8802,-3.88021 h 16.2968 c 2.1719,0 3.8803,1.70833 3.8803,3.88021 v 100.88541 c 0,2.17708 -1.7084,3.8802 -3.8803,3.8802 z m 0,0"
         id="path4505"
         style="stroke-width:1.33333" /><path
         fill-rule="nonzero"
         fill="#ec008c"
         fill-opacity="1"
         d="m 756.8385,402.25779 c -2.3229,0 -4.5,-1.39582 -5.4323,-3.5677 l -25.4531,-59.13541 c -0.1562,-0.3073 -0.3125,-0.15626 -0.3125,0 v 58.82291 c 0,2.17708 -1.7031,3.8802 -3.8802,3.8802 h -16.2917 c -2.177,0 -3.8802,-1.70312 -3.8802,-3.8802 V 297.49218 c 0,-2.17188 1.7032,-3.88021 3.8802,-3.88021 h 16.6042 c 2.3281,0 4.5,1.39583 5.4323,3.57292 l 25.4583,59.28645 c 0.1511,0.31251 0.3073,0.15626 0.3073,0 v -58.97916 c 0,-2.17188 1.7084,-3.88021 3.8802,-3.88021 h 16.2969 c 2.1719,0 3.8802,1.70833 3.8802,3.88021 v 100.88541 c 0,2.17708 -1.7083,3.8802 -3.8802,3.8802 z m 0,0"
         id="path4507"
         style="stroke-width:1.33333" /><path
         fill-rule="nonzero"
         fill="#ec008c"
         fill-opacity="1"
         d="m 795.4844,315.19009 c -2.1719,0 -3.8802,-1.70833 -3.8802,-3.8802 v -13.81771 c 0,-2.17188 1.7083,-3.88021 3.8802,-3.88021 h 62.7031 c 2.1719,0 3.8802,1.70833 3.8802,3.88021 v 13.81771 c 0,2.17187 -1.7083,3.8802 -3.8802,3.8802 h -18.4688 c -0.4687,0 -0.776,0.30729 -0.776,0.77084 v 82.41666 c 0,2.17187 -1.7083,3.8802 -3.8802,3.8802 h -16.2969 c -2.1719,0 -3.8802,-1.70833 -3.8802,-3.8802 v -82.41666 c 0,-0.46355 -0.3125,-0.77084 -0.776,-0.77084 z m 0,0"
         id="path4509"
         style="stroke-width:1.33333" /><path
         fill-rule="nonzero"
         fill="#ec008c"
         fill-opacity="1"
         d="m 880.2239,402.25779 c -2.1718,0 -3.8802,-1.70312 -3.8802,-3.8802 V 297.49218 c 0,-2.17188 1.7084,-3.88021 3.8802,-3.88021 h 52.9271 c 2.1719,0 3.8802,1.70833 3.8802,3.88021 v 13.8125 c 0,2.17708 -1.7083,3.88021 -3.8802,3.88021 h -31.9739 c -0.4636,0 -0.7761,0.31249 -0.7761,0.77604 v 21.10937 c 0,0.46875 0.3125,0.77604 0.7761,0.77604 h 22.3489 c 2.1719,0 3.8802,1.70834 3.8802,3.88022 v 12.26041 c 0,2.17708 -1.7083,3.88021 -3.8802,3.88021 h -22.3489 c -0.4636,0 -0.7761,0.3125 -0.7761,0.78124 v 21.26043 c 0,0.46875 0.3125,0.77604 0.7761,0.77604 h 31.9739 c 2.1719,0 3.8802,1.70833 3.8802,3.8802 v 13.8125 c 0,2.17708 -1.7083,3.8802 -3.8802,3.8802 z m 0,0"
         id="path4511"
         style="stroke-width:1.33333" /><path
         fill-rule="nonzero"
         fill="#ec008c"
         fill-opacity="1"
         d="m 978.6198,315.19009 c -0.4636,0 -0.7709,0.30729 -0.7709,0.77084 v 24.05729 c 0,0.46875 0.3073,0.78124 0.7709,0.78124 h 20.8021 c 0.4635,0 0.776,-0.31249 0.776,-0.78124 v -24.05729 c 0,-0.46355 -0.3125,-0.77084 -0.776,-0.77084 z m -20.9479,87.0677 c -2.1771,0 -3.8802,-1.70833 -3.8802,-3.8802 V 297.49218 c 0,-2.17188 1.7031,-3.88021 3.8802,-3.88021 h 54.1666 c 6.3594,0 11.6407,5.27604 11.6407,11.64063 v 45.47916 c 0,6.36458 -5.2813,11.64062 -11.6407,11.64062 h -2.7968 c -0.3073,0 -0.6198,0.3073 -0.4636,0.6198 l 19.4011,35.85416 c 0.9323,1.55208 -0.3125,3.41145 -2.0157,3.41145 h -17.3854 c -2.3281,0 -4.6562,-1.39582 -5.7448,-3.41145 l -19.401,-35.85416 c -0.1511,-0.3125 -0.6198,-0.6198 -1.0834,-0.6198 h -3.7291 c -0.4636,0 -0.7709,0.3073 -0.7709,0.77604 v 35.22917 c 0,2.17187 -1.7083,3.8802 -3.8802,3.8802 z m 0,0"
         id="path4513"
         style="stroke-width:1.33333" /><path
         fill-rule="nonzero"
         fill="#fff200"
         fill-opacity="1"
         d="m 512.3958,530.2995 c -6.3645,0 -11.6406,-5.27614 -11.6406,-11.64067 v -85.36457 c 0,-6.36459 5.2761,-11.64063 11.6406,-11.64063 h 42.9948 c 6.3646,0 11.6407,5.27604 11.6407,11.64063 v 13.5052 c 0,2.32813 -1.3959,4.5 -3.573,5.43229 l -16.9166,6.98437 c -1.7084,0.77606 -3.5677,-0.46353 -3.5677,-2.32812 v -12.88021 c 0,-0.46875 -0.3125,-0.77604 -0.7761,-0.77604 h -16.6094 c -0.4687,0 -0.776,0.30729 -0.776,0.77604 v 63.94272 c 0,0.46875 0.3073,0.77604 0.776,0.77604 h 19.0886 c 0.4687,0 0.776,-0.30729 0.776,-0.77604 v -15.98439 c 0,-0.46353 -0.3073,-0.77604 -0.776,-0.77604 h -10.3958 c -1.8646,0 -3.1042,-1.86457 -2.4844,-3.5729 l 6.0521,-14.4323 c 0.776,-2.17188 2.9531,-3.5677 5.276,-3.5677 h 21.7292 c 2.1771,0 3.8854,1.70312 3.8854,3.8802 v 45.16145 c 0,6.36453 -5.2813,11.64067 -11.6459,11.64067 z m 0,0"
         id="path4515"
         style="stroke-width:1.33333" /><path
         fill-rule="nonzero"
         fill="#ec008c"
         fill-opacity="1"
         d="m 620.4167,450.83592 c 0,-0.15625 -0.3125,-0.15625 -0.3125,0 l -7.2917,39.26563 c -0.1563,0.46875 0.3073,0.77604 0.6198,0.77604 h 13.8125 c 0.4687,0 0.776,-0.30729 0.6198,-0.77604 z m 10.401,-29.18229 c 2.1719,0 4.1875,1.55208 4.8073,3.72916 l 24.526,101.19271 c 0.4636,1.86453 -0.9323,3.724 -2.9479,3.724 h -17.8489 c -2.1771,0 -4.1927,-1.55214 -4.6615,-3.88027 l -3.099,-16.2968 c -0.1562,-0.4636 -0.4687,-0.77088 -0.9322,-0.77088 h -20.7969 c -0.4688,0 -0.7813,0.30728 -0.9323,0.77088 l -2.9479,16.2968 c -0.4688,2.17707 -2.4844,3.88027 -4.6563,3.88027 h -17.8489 c -2.0209,0 -3.4167,-1.85947 -2.9532,-3.724 l 24.5261,-101.19271 c 0.6198,-2.17708 2.6354,-3.72916 4.8125,-3.72916 z m 0,0"
         id="path4517"
         style="stroke-width:1.33333" /><path
         fill-rule="nonzero"
         fill="#ec008c"
         fill-opacity="1"
         d="m 677.0625,530.2995 c -2.1719,0 -3.8802,-1.7032 -3.8802,-3.88027 V 425.53385 c 0,-2.17188 1.7083,-3.88022 3.8802,-3.88022 h 16.2969 c 2.1718,0 3.8802,1.70834 3.8802,3.88022 v 82.41666 c 0,0.46875 0.3125,0.77604 0.776,0.77604 h 31.974 c 2.1719,0 3.8802,1.70828 3.8802,3.88015 v 13.81253 c 0,2.17707 -1.7083,3.88027 -3.8802,3.88027 z m 0,0"
         id="path4519"
         style="stroke-width:1.33333" /><path
         fill-rule="nonzero"
         fill="#ec008c"
         fill-opacity="1"
         d="m 780.1198,450.83592 c 0,-0.15625 -0.3125,-0.15625 -0.3125,0 l -7.2969,39.26563 c -0.151,0.46875 0.3125,0.77604 0.625,0.77604 h 13.8125 c 0.4688,0 0.7761,-0.30729 0.6198,-0.77604 z m 10.3958,-29.18229 c 2.1771,0 4.1927,1.55208 4.8125,3.72916 L 819.849,526.5755 c 0.4687,1.86453 -0.9271,3.724 -2.948,3.724 h -17.8489 c -2.1719,0 -4.1875,-1.55214 -4.6563,-3.88027 l -3.1041,-16.2968 c -0.1511,-0.4636 -0.4636,-0.77088 -0.9271,-0.77088 h -20.8021 c -0.4635,0 -0.776,0.30728 -0.9271,0.77088 l -2.9531,16.2968 c -0.4636,2.17707 -2.4792,3.88027 -4.6511,3.88027 h -17.8541 c -2.0156,0 -3.4115,-1.85947 -2.9479,-3.724 l 24.526,-101.19271 c 0.6198,-2.17708 2.6354,-3.72916 4.8073,-3.72916 z m 0,0"
         id="path4521"
         style="stroke-width:1.33333" /><path
         fill-rule="nonzero"
         fill="#ec008c"
         fill-opacity="1"
         d="m 888.6094,530.2995 c -2.3282,0 -4.6563,-1.39587 -5.7448,-3.41147 L 862.375,487.30988 c -0.151,-0.3125 -0.6198,-0.6198 -1.0833,-0.6198 h -3.573 c -0.4635,0 -0.776,0.3073 -0.776,0.77604 v 38.95311 c 0,2.17707 -1.7031,3.88027 -3.875,3.88027 h -16.3021 c -2.1719,0 -3.8802,-1.7032 -3.8802,-3.88027 V 425.53385 c 0,-2.17188 1.7083,-3.88022 3.8802,-3.88022 h 16.3021 c 2.1719,0 3.875,1.70834 3.875,3.88022 v 38.80207 c 0,0.46875 0.3125,0.78126 0.776,0.78126 h 3.2605 c 0.4687,0 0.9323,-0.31251 1.0885,-0.625 l 19.8646,-39.42188 c 1.0885,-2.02084 3.2604,-3.41667 5.5885,-3.41667 h 18.4688 c 1.8646,0 2.9531,1.86459 2.1719,3.41667 l -25.1407,49.97916 c -0.1562,0.30729 -0.1562,0.92709 0,1.23958 l 26.5417,50.59899 c 0.9271,1.552 -0.3125,3.41147 -2.0208,3.41147 z m 0,0"
         id="path4523"
         style="stroke-width:1.33333" /><path
         fill-rule="nonzero"
         fill="#ec008c"
         fill-opacity="1"
         d="m 919.8021,443.23175 c -2.1771,0 -3.8802,-1.70833 -3.8802,-3.8802 v -13.8125 c 0,-2.17708 1.7031,-3.8802 3.8802,-3.8802 h 62.7031 c 2.1719,0 3.8802,1.70312 3.8802,3.8802 v 13.8125 c 0,2.17187 -1.7083,3.8802 -3.8802,3.8802 h -18.4687 c -0.4688,0 -0.7761,0.30729 -0.7761,0.77084 v 82.41664 c 0,2.17707 -1.7083,3.88027 -3.8802,3.88027 h -16.2969 c -2.1771,0 -3.8802,-1.7032 -3.8802,-3.88027 v -82.41664 c 0,-0.46355 -0.3125,-0.77084 -0.776,-0.77084 z m 0,0"
         id="path4525"
         style="stroke-width:1.33333" /><path
         fill-rule="nonzero"
         fill="#ec008c"
         fill-opacity="1"
         d="m 1004.5417,530.2995 c -2.1719,0 -3.8802,-1.7032 -3.8802,-3.88027 V 425.53385 c 0,-2.17188 1.7083,-3.88022 3.8802,-3.88022 h 16.2968 c 2.1719,0 3.8802,1.70834 3.8802,3.88022 v 100.88538 c 0,2.17707 -1.7083,3.88027 -3.8802,3.88027 z m 0,0"
         id="path4527"
         style="stroke-width:1.33333" /><path
         fill-rule="nonzero"
         fill="#ec008c"
         fill-opacity="1"
         d="m 1047.9948,480.78904 c -2.1719,-0.46353 -3.724,-2.63541 -3.724,-4.81249 v -42.68229 c 0,-6.35937 5.2761,-11.63541 11.6407,-11.63541 h 40.6666 c 6.3646,0 11.6406,5.27604 11.6406,11.63541 v 11.95312 c 0,2.32813 -1.3958,4.5 -3.5729,5.43229 l -16.9166,6.98437 c -1.7084,0.77604 -3.5677,-0.46353 -3.5677,-2.32812 v -11.33333 c 0,-0.46355 -0.3126,-0.77084 -0.7761,-0.77084 h -14.2812 c -0.4636,0 -0.7761,0.30729 -0.7761,0.77084 v 17.84896 c 0,0.46875 0.3125,0.77604 0.7761,0.93229 l 36.0104,8.54167 c 2.1719,0.46353 3.7239,2.63541 3.7239,4.80728 v 42.52604 c 0,6.36453 -5.276,11.64067 -11.6406,11.64067 h -41.5937 c -6.3646,0 -11.6459,-5.27614 -11.6459,-11.64067 v -11.94791 c 0,-2.32813 1.4011,-4.5 3.5729,-5.43229 l 16.9167,-6.98437 c 1.7083,-0.77604 3.5677,0.46353 3.5677,2.32812 v 11.32813 c 0,0.46875 0.3125,0.77604 0.7813,0.77604 h 15.2083 c 0.4635,0 0.776,-0.30729 0.776,-0.77604 v -17.53647 c 0,-0.46874 -0.3125,-0.78125 -0.776,-0.93229 z m 0,0"
         id="path4529"
         style="stroke-width:1.33333" /><path
         fill-rule="nonzero"
         fill="#ec008c"
         fill-opacity="1"
         d="m 1139.5677,530.2995 c -6.3646,0 -11.6406,-5.27614 -11.6406,-11.64067 v -85.36457 c 0,-6.36459 5.276,-11.64063 11.6406,-11.64063 h 43.7656 c 6.3646,0 11.6406,5.27604 11.6406,11.64063 v 18.16145 c 0,2.32813 -1.3958,4.5 -3.5677,5.43229 l -16.9166,6.98438 c -1.7084,0.77604 -3.573,-0.46354 -3.573,-2.32812 v -17.53647 c 0,-0.46875 -0.3072,-0.77604 -0.776,-0.77604 h -17.3854 c -0.4636,0 -0.7708,0.30729 -0.7708,0.77604 v 63.94272 c 0,0.46875 0.3072,0.77604 0.7708,0.77604 h 17.3854 c 0.4688,0 0.776,-0.30729 0.776,-0.77604 v -17.53647 c 0,-1.86458 1.8646,-3.10416 3.573,-2.32812 l 16.9166,6.98438 c 2.1719,0.93229 3.5677,3.10416 3.5677,5.43229 v 18.15624 c 0,6.36453 -5.276,11.64067 -11.6406,11.64067 z m 0,0"
         id="path4531"
         style="stroke-width:1.33333" /><path
         fill-rule="nonzero"
         fill="#ec008c"
         fill-opacity="1"
         d="m 1264.8177,530.2995 c -2.1719,0 -3.8802,-1.7032 -3.8802,-3.88027 v -39.57811 c 0,-0.46353 -0.3125,-0.77604 -0.7761,-0.77604 h -22.8177 c -0.4635,0 -0.776,0.31251 -0.776,0.77604 v 39.57811 c 0,2.17707 -1.7083,3.88027 -3.8802,3.88027 h -16.2969 c -2.1719,0 -3.8802,-1.7032 -3.8802,-3.88027 V 425.53385 c 0,-2.17188 1.7083,-3.88022 3.8802,-3.88022 h 16.2969 c 2.1719,0 3.8802,1.70834 3.8802,3.88022 v 38.18227 c 0,0.46876 0.3125,0.77606 0.776,0.77606 h 22.8177 c 0.4636,0 0.7761,-0.3073 0.7761,-0.77606 v -38.18227 c 0,-2.17188 1.7083,-3.88022 3.8802,-3.88022 h 16.2969 c 2.1718,0 3.8802,1.70834 3.8802,3.88022 v 100.88538 c 0,2.17707 -1.7084,3.88027 -3.8802,3.88027 z m 0,0"
         id="path4533"
         style="stroke-width:1.33333" /><path
         fill-rule="nonzero"
         fill="#ec008c"
         fill-opacity="1"
         d="m 1309.0416,530.2995 c -2.1718,0 -3.8801,-1.7032 -3.8801,-3.88027 V 425.53385 c 0,-2.17188 1.7083,-3.88022 3.8801,-3.88022 h 52.9271 c 2.1719,0 3.8803,1.70834 3.8803,3.88022 v 13.8177 c 0,2.17187 -1.7084,3.8802 -3.8803,3.8802 h -31.9739 c -0.4636,0 -0.7761,0.30729 -0.7761,0.77604 v 21.10939 c 0,0.46353 0.3125,0.77082 0.7761,0.77082 h 22.3542 c 2.1718,0 3.8801,1.70834 3.8801,3.88022 v 12.26041 c 0,2.17708 -1.7083,3.88021 -3.8801,3.88021 h -22.3542 c -0.4636,0 -0.7761,0.3125 -0.7761,0.78124 v 21.26043 c 0,0.46875 0.3125,0.77604 0.7761,0.77604 h 31.9739 c 2.1719,0 3.8803,1.70828 3.8803,3.88015 v 13.81253 c 0,2.17707 -1.7084,3.88027 -3.8803,3.88027 z m 0,0"
         id="path4535"
         style="stroke-width:1.33333" /><path
         fill-rule="nonzero"
         fill="#fff200"
         fill-opacity="1"
         d="m 583.0104,658.34629 c -2.1719,0 -3.8802,-1.70826 -3.8802,-3.88013 V 553.5807 c 0,-2.17187 1.7083,-3.88014 3.8802,-3.88014 h 52.9271 c 2.1719,0 3.8802,1.70827 3.8802,3.88014 v 13.81253 c 0,2.17188 -1.7083,3.88013 -3.8802,3.88013 h -31.974 c -0.4635,0 -0.776,0.31255 -0.776,0.77615 v 21.10933 c 0,0.4636 0.3125,0.776 0.776,0.776 h 22.3542 c 2.1719,0 3.875,1.70839 3.875,3.88026 v 12.2604 c 0,2.17187 -1.7031,3.88027 -3.875,3.88027 h -22.3542 c -0.4635,0 -0.776,0.30719 -0.776,0.77599 v 21.2604 c 0,0.4688 0.3125,0.7812 0.776,0.7812 h 31.974 c 2.1719,0 3.8802,1.70321 3.8802,3.88027 v 13.81254 c 0,2.17187 -1.7083,3.88013 -3.8802,3.88013 z m 0,0"
         id="path4537"
         style="stroke-width:1.33333" /><path
         fill-rule="nonzero"
         fill="#ec008c"
         fill-opacity="1"
         d="m 681.4115,571.27336 c -0.4688,0 -0.7761,0.31254 -0.7761,0.77614 v 24.05719 c 0,0.4636 0.3073,0.77614 0.7761,0.77614 h 20.7968 c 0.4688,0 0.7761,-0.31254 0.7761,-0.77614 V 572.0495 c 0,-0.4636 -0.3073,-0.77614 -0.7761,-0.77614 z m -20.9532,87.07293 c -2.1718,0 -3.8802,-1.70826 -3.8802,-3.88013 V 553.5807 c 0,-2.17187 1.7084,-3.88014 3.8802,-3.88014 h 54.1667 c 6.3646,0 11.6406,5.276 11.6406,11.64054 v 45.47399 c 0,6.36454 -5.276,11.64067 -11.6406,11.64067 h -2.7917 c -0.3125,0 -0.6198,0.3124 -0.4687,0.61973 l 19.401,35.85414 c 0.9323,1.55213 -0.3073,3.41666 -2.0156,3.41666 h -17.3854 c -2.3281,0 -4.6563,-1.39573 -5.7396,-3.41666 l -19.401,-35.85414 c -0.1563,-0.30733 -0.6198,-0.61973 -1.0886,-0.61973 h -3.7239 c -0.4688,0 -0.7761,0.3124 -0.7761,0.776 v 35.2344 c 0,2.17187 -1.7083,3.88013 -3.8802,3.88013 z m 0,0"
         id="path4539"
         style="stroke-width:1.33333" /><path
         fill-rule="nonzero"
         fill="#ec008c"
         fill-opacity="1"
         d="m 750.6302,658.34629 c -2.1719,0 -3.8802,-1.70826 -3.8802,-3.88013 V 553.5807 c 0,-2.17187 1.7083,-3.88014 3.8802,-3.88014 h 54.4792 c 2.1718,0 3.8802,1.70827 3.8802,3.88014 v 13.81253 c 0,2.17188 -1.7084,3.88013 -3.8802,3.88013 h -33.5261 c -0.4635,0 -0.776,0.31255 -0.776,0.77615 v 21.42186 c 0,0.46347 0.3125,0.7708 0.776,0.7708 h 23.7448 c 2.1771,0 3.8854,1.7084 3.8854,3.88027 v 12.2604 c 0,2.17706 -1.7083,3.88013 -3.8854,3.88013 h -23.7448 c -0.4635,0 -0.776,0.31253 -0.776,0.78133 v 39.42187 c 0,2.17187 -1.7083,3.88013 -3.8802,3.88013 z m 0,0"
         id="path4541"
         style="stroke-width:1.33333" /><path
         fill-rule="nonzero"
         fill="#ec008c"
         fill-opacity="1"
         d="m 848.5677,578.87763 c 0,-0.15627 -0.3125,-0.15627 -0.3125,0 l -7.2969,39.2656 c -0.151,0.4688 0.3125,0.7812 0.625,0.7812 h 13.8125 c 0.4636,0 0.7761,-0.3124 0.6198,-0.7812 z m 10.3958,-29.17707 c 2.1719,0 4.1927,1.552 4.8125,3.72388 l 24.5209,101.19799 c 0.4687,1.85933 -0.9271,3.72386 -2.948,3.72386 H 867.5 c -2.1719,0 -4.1875,-1.552 -4.6563,-3.88013 l -3.1041,-16.29693 c -0.1511,-0.46867 -0.4636,-0.776 -0.9323,-0.776 h -20.7969 c -0.4635,0 -0.776,0.30733 -0.9323,0.776 l -2.9479,16.29693 c -0.4635,2.17187 -2.4792,3.88013 -4.6562,3.88013 h -17.849 c -2.0156,0 -3.4115,-1.86453 -2.9479,-3.72386 l 24.5208,-101.19799 c 0.625,-2.17188 2.6406,-3.72388 4.8125,-3.72388 z m 0,0"
         id="path4543"
         style="stroke-width:1.33333" /><path
         fill-rule="nonzero"
         fill="#ec008c"
         fill-opacity="1"
         d="m 953.6406,658.34629 c -2.1719,0 -3.8802,-1.70826 -3.8802,-3.88013 v -39.57813 c 0,-0.4688 -0.3125,-0.776 -0.776,-0.776 h -22.8177 c -0.4636,0 -0.7761,0.3072 -0.7761,0.776 v 39.57813 c 0,2.17187 -1.7031,3.88013 -3.8802,3.88013 h -16.2969 c -2.1718,0 -3.8802,-1.70826 -3.8802,-3.88013 V 553.5807 c 0,-2.17187 1.7084,-3.88014 3.8802,-3.88014 h 16.2969 c 2.1771,0 3.8802,1.70827 3.8802,3.88014 v 38.18226 c 0,0.46361 0.3125,0.77613 0.7761,0.77613 h 22.8177 c 0.4635,0 0.776,-0.31253 0.776,-0.77613 V 553.5807 c 0,-2.17187 1.7083,-3.88014 3.8802,-3.88014 h 16.2969 c 2.1719,0 3.8802,1.70827 3.8802,3.88014 v 100.88546 c 0,2.17187 -1.7083,3.88013 -3.8802,3.88013 z m 0,0"
         id="path4545"
         style="stroke-width:1.33333" /><path
         fill-rule="nonzero"
         fill="#ec008c"
         fill-opacity="1"
         d="m 1018.8177,571.27336 c -0.4635,0 -0.7708,0.31254 -0.7708,0.77614 v 24.05719 c 0,0.4636 0.3073,0.77614 0.7708,0.77614 h 20.8021 c 0.4635,0 0.776,-0.31254 0.776,-0.77614 V 572.0495 c 0,-0.4636 -0.3125,-0.77614 -0.776,-0.77614 z m -20.9479,87.07293 c -2.1771,0 -3.8802,-1.70826 -3.8802,-3.88013 V 553.5807 c 0,-2.17187 1.7031,-3.88014 3.8802,-3.88014 h 54.1667 c 6.3645,0 11.6406,5.276 11.6406,11.64054 v 45.47399 c 0,6.36454 -5.2761,11.64067 -11.6406,11.64067 h -2.7969 c -0.3073,0 -0.6198,0.3124 -0.4636,0.61973 l 19.4011,35.85414 c 0.9323,1.55213 -0.3125,3.41666 -2.0156,3.41666 h -17.3855 c -2.3281,0 -4.6562,-1.39573 -5.7448,-3.41666 l -19.401,-35.85414 c -0.151,-0.30733 -0.6198,-0.61973 -1.0833,-0.61973 h -3.7292 c -0.4635,0 -0.7708,0.3124 -0.7708,0.776 v 35.2344 c 0,2.17187 -1.7084,3.88013 -3.8802,3.88013 z m 0,0"
         id="path4547"
         style="stroke-width:1.33333" /><path
         fill-rule="nonzero"
         fill="#ec008c"
         fill-opacity="1"
         d="m 1095.8021,658.34629 c -6.3646,0 -11.6406,-5.276 -11.6406,-11.64053 V 553.5807 c 0,-2.17187 1.7031,-3.88014 3.8802,-3.88014 h 16.2968 c 2.1719,0 3.8802,1.70827 3.8802,3.88014 v 82.41146 c 0,0.4688 0.3073,0.7812 0.7761,0.7812 h 18.625 c 0.4635,0 0.776,-0.3124 0.776,-0.7812 V 553.5807 c 0,-2.17187 1.7084,-3.88014 3.8802,-3.88014 h 16.2969 c 2.1719,0 3.8802,1.70827 3.8802,3.88014 v 93.12506 c 0,6.36453 -5.2812,11.64053 -11.6458,11.64053 z m 0,0"
         id="path4549"
         style="stroke-width:1.33333" /><path
         fill-rule="nonzero"
         fill="#ec008c"
         fill-opacity="1"
         d="m 1227.8802,658.34629 c -2.3281,0 -4.5052,-1.39573 -5.4323,-3.57293 l -25.4531,-59.13013 c -0.1563,-0.31254 -0.3125,-0.15627 -0.3125,0 v 58.82293 c 0,2.17187 -1.7084,3.88013 -3.8802,3.88013 h -16.2969 c -2.1719,0 -3.8802,-1.70826 -3.8802,-3.88013 V 553.5807 c 0,-2.17187 1.7083,-3.88014 3.8802,-3.88014 h 16.6094 c 2.3229,0 4.5,1.39575 5.4323,3.5676 L 1224,612.55989 c 0.151,0.30734 0.3073,0.15627 0.3073,0 V 553.5807 c 0,-2.17187 1.7083,-3.88014 3.8802,-3.88014 h 16.2969 c 2.177,0 3.8802,1.70827 3.8802,3.88014 v 100.88546 c 0,2.17187 -1.7032,3.88013 -3.8802,3.88013 z m 0,0"
         id="path4551"
         style="stroke-width:1.33333" /><path
         fill-rule="nonzero"
         fill="#ec008c"
         fill-opacity="1"
         d="m 1280.026,658.34629 c -6.3645,0 -11.6406,-5.276 -11.6406,-11.64053 V 561.3411 c 0,-6.36454 5.2761,-11.64054 11.6406,-11.64054 h 42.9896 c 6.3646,0 11.6459,5.276 11.6459,11.64054 v 13.5 c 0,2.33334 -1.4011,4.50519 -3.5729,5.43226 l -16.9167,6.98441 c -1.7084,0.77613 -3.5677,-0.46347 -3.5677,-2.32813 v -12.88013 c 0,-0.4636 -0.3126,-0.77615 -0.7812,-0.77615 h -16.6043 c -0.4687,0 -0.776,0.31255 -0.776,0.77615 v 63.94266 c 0,0.4688 0.3073,0.7812 0.776,0.7812 h 19.0885 c 0.4688,0 0.7762,-0.3124 0.7762,-0.7812 v -15.9844 c 0,-0.46347 -0.3074,-0.776 -0.7762,-0.776 h -10.4009 c -1.8595,0 -3.0991,-1.85933 -2.4844,-3.56773 l 6.0572,-14.43227 c 0.7761,-2.17707 2.948,-3.57293 5.2761,-3.57293 h 21.7291 c 2.1772,0 3.8803,1.7084 3.8803,3.88026 v 45.16667 c 0,6.36452 -5.276,11.64053 -11.6407,11.64053 z m 0,0"
         id="path4553"
         style="stroke-width:1.33333" /><path
         fill-rule="nonzero"
         fill="#ec008c"
         fill-opacity="1"
         d="m 1358.401,608.83589 c -2.1719,-0.46866 -3.7239,-2.64053 -3.7239,-4.81253 V 561.3411 c 0,-6.36454 5.276,-11.64054 11.6405,-11.64054 h 40.6615 c 6.3647,0 11.6407,5.276 11.6407,11.64054 v 11.948 c 0,2.32813 -1.3959,4.50519 -3.5678,5.43226 l -16.9166,6.9896 c -1.7083,0.7708 -3.573,-0.4688 -3.573,-2.32813 V 572.0495 c 0,-0.4636 -0.3072,-0.77614 -0.7708,-0.77614 h -14.2812 c -0.4688,0 -0.7761,0.31254 -0.7761,0.77614 v 17.84893 c 0,0.4636 0.3073,0.776 0.7761,0.93226 l 36.0104,8.53654 c 2.1719,0.46346 3.724,2.63533 3.724,4.8072 v 42.53133 c 0,6.36453 -5.2813,11.64053 -11.6406,11.64053 h -41.599 c -6.3646,0 -11.6406,-5.276 -11.6406,-11.64053 v -11.9532 c 0,-2.32813 1.3958,-4.5 3.5729,-5.43227 l 16.9167,-6.9844 c 1.7082,-0.776 3.5677,0.4688 3.5677,2.32814 v 11.33333 c 0,0.4636 0.3124,0.776 0.776,0.776 h 15.2084 c 0.4687,0 0.7812,-0.3124 0.7812,-0.776 v -17.5416 c 0,-0.4636 -0.3125,-0.77613 -0.7812,-0.9324 z m 0,0"
         id="path4555"
         style="stroke-width:1.33333" /><path
         fill-rule="nonzero"
         fill="#fff200"
         fill-opacity="1"
         d="m 799.5208,699.31509 c -0.4635,0 -0.776,0.31254 -0.776,0.776 v 24.05733 c 0,0.4636 0.3125,0.776 0.776,0.776 h 20.7969 c 0.4688,0 0.7813,-0.3124 0.7813,-0.776 v -24.05733 c 0,-0.46346 -0.3125,-0.776 -0.7813,-0.776 z m -20.9531,87.07293 c -2.1719,0 -3.8802,-1.7084 -3.8802,-3.88026 V 681.62243 c 0,-2.17187 1.7083,-3.88027 3.8802,-3.88027 h 54.1667 c 6.3646,0 11.6406,5.276 11.6406,11.64067 v 45.47386 c 0,6.36467 -5.276,11.64067 -11.6406,11.64067 h -2.7917 c -0.3125,0 -0.6198,0.31253 -0.4687,0.61986 l 19.4062,35.85414 c 0.9271,1.552 -0.3125,3.41666 -2.0208,3.41666 H 829.474 c -2.323,0 -4.6511,-1.39586 -5.7396,-3.41666 l -19.4011,-35.85414 c -0.1562,-0.30733 -0.6198,-0.61986 -1.0885,-0.61986 h -3.724 c -0.4635,0 -0.776,0.31253 -0.776,0.776 v 35.2344 c 0,2.17186 -1.7031,3.88026 -3.8802,3.88026 z m 0,0"
         id="path4557"
         style="stroke-width:1.33333" /><path
         fill-rule="nonzero"
         fill="#ec008c"
         fill-opacity="1"
         d="m 868.7396,786.38802 c -2.1719,0 -3.8802,-1.7084 -3.8802,-3.88026 V 681.62243 c 0,-2.17187 1.7083,-3.88027 3.8802,-3.88027 h 52.9271 c 2.1718,0 3.8802,1.7084 3.8802,3.88027 v 13.8124 c 0,2.17186 -1.7084,3.88026 -3.8802,3.88026 h -31.974 c -0.4635,0 -0.776,0.31254 -0.776,0.776 v 21.10947 c 0,0.46346 0.3125,0.776 0.776,0.776 h 22.349 c 2.177,0 3.8802,1.70826 3.8802,3.88013 v 12.26053 c 0,2.17187 -1.7032,3.88014 -3.8802,3.88014 h -22.349 c -0.4635,0 -0.776,0.30733 -0.776,0.776 v 21.26573 c 0,0.46347 0.3125,0.776 0.776,0.776 h 31.974 c 2.1718,0 3.8802,1.70307 3.8802,3.88027 v 13.8124 c 0,2.17186 -1.7084,3.88026 -3.8802,3.88026 z m 0,0"
         id="path4559"
         style="stroke-width:1.33333" /><path
         fill-rule="nonzero"
         fill="#ec008c"
         fill-opacity="1"
         d="m 946.1875,786.38802 c -2.1719,0 -3.8802,-1.7084 -3.8802,-3.88026 V 681.62243 c 0,-2.17187 1.7083,-3.88027 3.8802,-3.88027 h 16.2969 c 2.1718,0 3.8802,1.7084 3.8802,3.88027 v 100.88533 c 0,2.17186 -1.7084,3.88026 -3.8802,3.88026 z m 0,0"
         id="path4561"
         style="stroke-width:1.33333" /><path
         fill-rule="nonzero"
         fill="#ec008c"
         fill-opacity="1"
         d="m 989.6406,736.87762 c -2.1719,-0.4688 -3.7239,-2.64066 -3.7239,-4.81253 v -42.68226 c 0,-6.36467 5.276,-11.64067 11.6406,-11.64067 h 40.6666 c 6.3646,0 11.6407,5.276 11.6407,11.64067 v 11.94786 c 0,2.32814 -1.3959,4.5052 -3.5729,5.43227 l -16.9167,6.9896 c -1.7083,0.7708 -3.5677,-0.46867 -3.5677,-2.32814 v -11.33333 c 0,-0.46346 -0.3125,-0.776 -0.7761,-0.776 H 1010.75 c -0.4635,0 -0.7761,0.31254 -0.7761,0.776 v 17.84893 c 0,0.4636 0.3126,0.77614 0.7761,0.9324 l 36.0104,8.5364 c 2.1719,0.4636 3.724,2.63547 3.724,4.80734 v 42.5312 c 0,6.36466 -5.2813,11.64066 -11.6407,11.64066 H 997.25 c -6.3646,0 -11.6458,-5.276 -11.6458,-11.64066 v -11.95307 c 0,-2.32813 1.401,-4.5 3.5729,-5.43227 l 16.9166,-6.9844 c 1.7084,-0.77613 3.5678,0.46867 3.5678,2.32814 v 11.33333 c 0,0.46347 0.3124,0.776 0.776,0.776 h 15.2135 c 0.4636,0 0.7761,-0.31253 0.7761,-0.776 v -17.54173 c 0,-0.46347 -0.3125,-0.776 -0.7761,-0.92707 z m 0,0"
         id="path4563"
         style="stroke-width:1.33333" /><path
         fill-rule="nonzero"
         fill="#ec008c"
         fill-opacity="1"
         d="m 1073.6042,786.38802 c -2.1719,0 -3.8803,-1.7084 -3.8803,-3.88026 V 681.62243 c 0,-2.17187 1.7084,-3.88027 3.8803,-3.88027 h 52.927 c 2.1719,0 3.8803,1.7084 3.8803,3.88027 v 13.8124 c 0,2.17186 -1.7084,3.88026 -3.8803,3.88026 h -31.9739 c -0.4636,0 -0.7761,0.31254 -0.7761,0.776 v 21.10947 c 0,0.46346 0.3125,0.776 0.7761,0.776 h 22.3489 c 2.1771,0 3.8803,1.70826 3.8803,3.88013 v 12.26053 c 0,2.17187 -1.7032,3.88014 -3.8803,3.88014 h -22.3489 c -0.4636,0 -0.7761,0.30733 -0.7761,0.776 v 21.26573 c 0,0.46347 0.3125,0.776 0.7761,0.776 h 31.9739 c 2.1719,0 3.8803,1.70307 3.8803,3.88027 v 13.8124 c 0,2.17186 -1.7084,3.88026 -3.8803,3.88026 z m 0,0"
         id="path4565"
         style="stroke-width:1.33333" /></g><g
       id="license"
       inkscape:label="license"><g
         id="g25794"
         transform="translate(174.5,867.5)"
         inkscape:label="by">
	
	<g
   id="g25792">
		<path
   d="m 37.443,-3.5 c 8.988,0 16.57,3.085 22.742,9.257 6.208,6.21 9.315,13.791 9.315,22.743 0,8.991 -3.049,16.476 -9.145,22.456 C 53.879,57.319 46.242,60.5 37.443,60.5 28.794,60.5 21.29,57.356 14.929,51.07 8.644,44.784 5.5,37.262 5.5,28.5 5.5,19.739 8.644,12.158 14.929,5.758 21.101,-0.415 28.604,-3.5 37.443,-3.5 Z m 0.114,5.772 c -7.276,0 -13.428,2.553 -18.457,7.657 -5.22,5.334 -7.829,11.525 -7.829,18.572 0,7.086 2.59,13.22 7.77,18.398 5.181,5.182 11.352,7.771 18.514,7.771 7.123,0 13.334,-2.607 18.629,-7.828 5.029,-4.838 7.543,-10.952 7.543,-18.343 0,-7.276 -2.553,-13.465 -7.656,-18.571 C 50.967,4.824 44.795,2.272 37.557,2.272 Z m 8.572,18.285 V 33.642 H 42.473 V 49.184 H 32.529 V 33.643 H 28.873 V 20.557 c 0,-0.572 0.2,-1.057 0.599,-1.457 0.401,-0.399 0.887,-0.6 1.457,-0.6 h 13.144 c 0.533,0 1.01,0.2 1.428,0.6 0.417,0.4 0.628,0.886 0.628,1.457 z M 33.042,12.329 c 0,-3.008 1.485,-4.514 4.458,-4.514 2.973,0 4.457,1.504 4.457,4.514 0,2.971 -1.486,4.457 -4.457,4.457 -2.971,0 -4.458,-1.486 -4.458,-4.457 z"
   id="path25790"
   style="fill:#ffffff;fill-opacity:1;stroke:none" />
	</g>
</g><g
         id="g25809"
         transform="matrix(1.0000156,0,0,1.0000156,94.499914,867.50005)"
         inkscape:label="cc">
	
	<path
   d="m 37.441,-3.5 c 8.951,0 16.572,3.125 22.857,9.372 3.008,3.009 5.295,6.448 6.857,10.314 1.561,3.867 2.344,7.971 2.344,12.314 0,4.381 -0.773,8.486 -2.314,12.313 -1.543,3.828 -3.82,7.21 -6.828,10.143 -3.123,3.085 -6.666,5.448 -10.629,7.086 -3.961,1.638 -8.057,2.457 -12.285,2.457 -4.228,0 -8.276,-0.808 -12.143,-2.429 C 21.434,56.452 17.967,54.109 14.9,51.043 11.833,47.977 9.5,44.519 7.9,40.671 6.3,36.823 5.5,32.767 5.5,28.5 5.5,24.271 6.309,20.205 7.928,16.3 9.547,12.395 11.9,8.9 14.985,5.814 21.08,-0.394 28.565,-3.5 37.441,-3.5 Z m 0.116,5.772 c -7.314,0 -13.467,2.553 -18.458,7.657 -2.515,2.553 -4.448,5.419 -5.8,8.6 -1.354,3.181 -2.029,6.505 -2.029,9.972 0,3.429 0.675,6.734 2.029,9.913 1.353,3.183 3.285,6.021 5.8,8.516 2.514,2.496 5.351,4.399 8.515,5.715 3.161,1.314 6.476,1.971 9.943,1.971 3.428,0 6.75,-0.665 9.973,-1.999 3.219,-1.335 6.121,-3.257 8.713,-5.771 4.99,-4.876 7.484,-10.99 7.484,-18.344 0,-3.543 -0.648,-6.895 -1.943,-10.057 C 60.491,15.283 58.604,12.465 56.13,9.987 50.984,4.844 44.795,2.272 37.557,2.272 Z m -0.401,20.915 -4.287,2.229 c -0.458,-0.951 -1.019,-1.619 -1.685,-2 -0.667,-0.38 -1.286,-0.571 -1.858,-0.571 -2.856,0 -4.286,1.885 -4.286,5.657 0,1.714 0.362,3.084 1.085,4.113 0.724,1.029 1.791,1.544 3.201,1.544 1.867,0 3.181,-0.915 3.944,-2.743 l 3.942,2 c -0.838,1.563 -2,2.791 -3.486,3.686 -1.484,0.896 -3.123,1.343 -4.914,1.343 -2.857,0 -5.163,-0.875 -6.915,-2.629 -1.752,-1.752 -2.628,-4.19 -2.628,-7.313 0,-3.048 0.886,-5.466 2.657,-7.257 1.771,-1.79 4.009,-2.686 6.715,-2.686 3.963,-0.002 6.8,1.541 8.515,4.627 z m 18.457,0 -4.229,2.229 c -0.457,-0.951 -1.02,-1.619 -1.686,-2 -0.668,-0.38 -1.307,-0.571 -1.914,-0.571 -2.857,0 -4.287,1.885 -4.287,5.657 0,1.714 0.363,3.084 1.086,4.113 0.723,1.029 1.789,1.544 3.201,1.544 1.865,0 3.18,-0.915 3.941,-2.743 l 4,2 c -0.875,1.563 -2.057,2.791 -3.541,3.686 -1.486,0.896 -3.105,1.343 -4.857,1.343 -2.896,0 -5.209,-0.875 -6.941,-2.629 -1.736,-1.752 -2.602,-4.19 -2.602,-7.313 0,-3.048 0.885,-5.466 2.658,-7.257 1.77,-1.79 4.008,-2.686 6.713,-2.686 3.962,-0.002 6.783,1.541 8.458,4.627 z"
   id="path25807"
   style="fill:#ffffff;fill-opacity:1;stroke:none" />
</g><text
         xml:space="preserve"
         style="font-weight:bold;font-size:16px;line-height:1.25;font-family:'Noto Sans';-inkscape-font-specification:'Noto Sans Bold';letter-spacing:0px;word-spacing:0px"
         x="99.839996"
         y="956.15997"
         id="text25827"
         inkscape:label="license_text"><tspan
           sodipodi:role="line"
           id="tspan25825"
           x="99.839996"
           y="956.15997"
           style="font-style:normal;font-variant:normal;font-weight:normal;font-stretch:normal;font-size:16px;font-family:'Noto Sans';-inkscape-font-specification:'Noto Sans';fill:#ffffff;fill-opacity:1;stroke:none;stroke-opacity:1">This work is licensed under a Creative Commons Attribution 4.0 International License.</tspan></text><text
         xml:space="preserve"
         style="font-weight:bold;font-size:16px;line-height:1.25;font-family:'Noto Sans';-inkscape-font-specification:'Noto Sans Bold';letter-spacing:0px;word-spacing:0px"
         x="98.639999"
         y="976.15997"
         id="text25831"
         inkscape:label="license_url"><tspan
           sodipodi:role="line"
           id="tspan25829"
           x="98.639999"
           y="976.15997"
           style="font-style:normal;font-variant:normal;font-weight:normal;font-stretch:normal;font-size:16px;font-family:'Noto Sans';-inkscape-font-specification:'Noto Sans';fill:#ffffff;fill-opacity:1">http://creativecommons.org/licenses/by/4.0/</tspan></text></g></g></svg>
